<?xml version="1.0" encoding="UTF-8"?>
<svg version="1.1" xmlns="http://www.w3.org/2000/svg" width="306" height="344">
<path d="M0 0 C3.57454208 1.83568945 7.02810481 3.85816251 10.49047852 5.89550781 C12.44755855 7.01229033 14.40598882 8.12670868 16.36547852 9.23925781 C21.95642246 12.42877124 27.52042948 15.66277837 33.0793457 18.90771484 C38.53885351 22.08917151 44.01523498 25.24123741 49.49047852 28.39550781 C51.65461688 29.64407424 53.81867925 30.89277241 55.98266602 32.14160156 C60.3411324 34.65620217 64.70060043 37.16905443 69.06079102 39.68066406 C81.71638413 46.97252153 94.36106133 54.2821099 106.95922852 61.67285156 C110.46026971 63.72340945 113.97736217 65.73725614 117.52172852 67.71191406 C127.63322219 73.38656959 135.56167938 78.3851005 139.49047852 89.89550781 C139.87358856 93.22768879 139.87358856 93.22768879 139.8848877 96.74421692 C139.8909788 97.39651061 139.8970699 98.04880431 139.90334558 98.72086447 C139.91987556 100.88708927 139.91521444 103.05271978 139.91040039 105.21899414 C139.91774665 106.78014226 139.92633451 108.34128496 139.93606567 109.90242004 C139.95823385 114.12986322 139.96121466 118.35711119 139.95931816 122.5846045 C139.95919822 126.12065273 139.96777205 129.65665997 139.97609568 133.19269675 C139.99531353 141.53970667 139.99821976 149.8866166 139.99145508 158.23364258 C139.98481804 166.82759718 140.00766866 175.42112218 140.04476881 184.01498967 C140.07551991 191.4080323 140.08681991 198.80093713 140.082932 206.19404238 C140.08086977 210.60309879 140.08626166 215.01182092 140.11082458 219.42081642 C140.13317844 223.5701927 140.13114292 227.71887351 140.11089706 231.86825371 C140.107502 233.38470633 140.11251089 234.90120657 140.12688065 236.41759491 C140.2164228 246.57333093 139.04608766 254.33324895 132.45532227 262.38037109 C126.54925269 267.36326168 120.29505875 271.13225536 113.49047852 274.77050781 C111.24882712 275.99697343 109.00794213 277.22484087 106.76782227 278.45410156 C105.6861377 279.04433105 104.60445313 279.63456055 103.48999023 280.24267578 C99.63349928 282.36773225 95.8352639 284.5792356 92.05297852 286.83300781 C85.08354375 290.96995422 78.07544813 295.03673016 71.05297852 299.08300781 C69.94575439 299.72101318 68.83853027 300.35901855 67.69775391 301.01635742 C65.42710784 302.32440258 63.15635494 303.63226229 60.88549805 304.93994141 C56.4946764 307.46910014 52.10558171 310.00124441 47.71679688 312.53393555 C45.57074605 313.77219794 43.42442555 315.00999309 41.27783203 316.24731445 C36.24985129 319.14594973 31.22399288 322.04806759 26.20605469 324.96405029 C24.44072641 325.98966409 22.67469381 327.01405446 20.90844727 328.03808594 C18.70131531 329.31822247 16.49548928 330.60061448 14.29125977 331.88574219 C11.36981628 333.5783839 8.43597554 335.24512853 5.49047852 336.89550781 C4.61230469 337.394375 3.73413086 337.89324219 2.8293457 338.40722656 C-2.61907581 341.34598331 -7.057077 342.7827239 -13.25952148 342.64550781 C-14.43200439 342.62351318 -14.43200439 342.62351318 -15.62817383 342.60107422 C-22.84356368 342.2397886 -28.24163834 339.95376927 -34.40307617 336.1796875 C-36.84492131 334.69103365 -39.31894774 333.26562717 -41.79858398 331.84082031 C-45.88910616 329.48250906 -49.96563273 327.10219461 -54.03295898 324.70410156 C-60.46125668 320.91651823 -66.91873521 317.18114673 -73.38452148 313.45800781 C-74.46378906 312.83603516 -75.54305664 312.2140625 -76.6550293 311.57324219 C-78.84567114 310.31083841 -81.03642649 309.04863159 -83.22729492 307.78662109 C-89.73311758 304.03817552 -96.23596231 300.284566 -102.73925781 296.53173828 C-109.39793703 292.68959344 -116.05854966 288.85083032 -122.72094727 285.01513672 C-125.99563508 283.12704992 -129.26635063 281.23221765 -132.53686523 279.33691406 C-136.21907451 277.2056019 -139.9150265 275.10627543 -143.63842773 273.04785156 C-153.96683551 267.28411953 -162.52531779 261.66015774 -166.50952148 249.89550781 C-166.89263153 246.56332684 -166.89263153 246.56332684 -166.90393066 243.04679871 C-166.91002177 242.39450501 -166.91611287 241.74221132 -166.92238855 241.07015115 C-166.93891853 238.90392635 -166.93425741 236.73829585 -166.92944336 234.57202148 C-166.93678962 233.01087336 -166.94537747 231.44973066 -166.95510864 229.88859558 C-166.97727682 225.66115241 -166.98025762 221.43390444 -166.97836113 217.20641112 C-166.97824119 213.67036289 -166.98681502 210.13435566 -166.99513865 206.59831887 C-167.0143565 198.25130895 -167.01726273 189.90439903 -167.01049805 181.55737305 C-167.00386101 172.96341844 -167.02671163 164.36989345 -167.06381178 155.77602595 C-167.09456288 148.38298332 -167.10586288 140.9900785 -167.10197496 133.59697324 C-167.09991274 129.18791684 -167.10530462 124.77919471 -167.12986755 120.3701992 C-167.15222141 116.22082292 -167.15018588 112.07214211 -167.12994003 107.92276192 C-167.12654497 106.40630929 -167.13155386 104.88980906 -167.14592361 103.37342072 C-167.23198968 93.61193737 -166.51264068 85.35104897 -159.64388275 77.86116314 C-154.75432057 73.18694729 -148.91937649 70.03199938 -143.00952148 66.83300781 C-140.9526624 65.69525539 -138.89670015 64.55588042 -136.84155273 63.41503906 C-135.79177246 62.83447754 -134.74199219 62.25391602 -133.66040039 61.65576172 C-128.63197544 58.84660753 -123.66456172 55.93557653 -118.69702148 53.02050781 C-107.09079882 46.22546821 -95.44558239 39.49960349 -83.79174805 32.78662109 C-79.44360928 30.28136352 -75.09690726 27.77362069 -70.75048828 25.26538086 C-68.60124726 24.02537807 -66.45167386 22.7859512 -64.30175781 21.54711914 C-59.24493009 18.63256636 -54.19113861 15.71310661 -49.1477356 12.77539062 C-46.77755202 11.39520972 -44.40568725 10.01793254 -42.03369141 8.64086914 C-40.36969464 7.67323046 -38.70812503 6.70142169 -37.04663086 5.72949219 C-25.20789529 -1.13952687 -13.40359552 -6.15787594 0 0 Z " fill="#659AD2" transform="translate(166.509521484375,2.1044921875)"/>
<path d="M0 0 C2 1 2 1 3.10786533 3.1494875 C4.13765643 6.43983424 4.2603579 9.15998436 4.27415466 12.60820007 C4.27939134 13.25878492 4.28462802 13.90936976 4.29002339 14.5796693 C4.30498255 16.75198755 4.30572763 18.9240694 4.30639648 21.09643555 C4.31402089 22.65728653 4.32244887 24.21813377 4.33161926 25.77897644 C4.35354723 30.01476118 4.36236121 34.25047373 4.36744571 38.48630881 C4.37109219 41.13558857 4.37733387 43.78484951 4.3844471 46.43412209 C4.40893856 55.6851751 4.42199222 64.93617209 4.42553711 74.18725586 C4.42916909 82.79592091 4.45904093 91.40422872 4.50094169 100.01278466 C4.53569773 107.41426675 4.55108649 114.8156308 4.55178314 122.2171939 C4.55257434 126.63300478 4.56123985 131.04845188 4.58978081 135.46417809 C4.61605187 139.62171094 4.61811681 143.77858081 4.60212517 147.93615913 C4.60031765 149.45584439 4.60693812 150.97556855 4.62294388 152.49517059 C4.72346436 162.66472928 3.56505841 170.42620387 -3.03515625 178.48486328 C-8.94122583 183.46775387 -15.19541976 187.23674754 -22 190.875 C-24.24165139 192.10146562 -26.48253638 193.32933305 -28.72265625 194.55859375 C-29.80434082 195.14882324 -30.88602539 195.73905273 -32.00048828 196.34716797 C-35.85697924 198.47222444 -39.65521462 200.68372779 -43.4375 202.9375 C-50.40693477 207.07444641 -57.41503039 211.14122235 -64.4375 215.1875 C-65.54472412 215.82550537 -66.65194824 216.46351074 -67.79272461 217.12084961 C-70.06337068 218.42889477 -72.33412358 219.73675448 -74.60498047 221.04443359 C-78.99580211 223.57359233 -83.38489681 226.1057366 -87.77368164 228.63842773 C-89.91973247 229.87669013 -92.06605296 231.11448527 -94.21264648 232.35180664 C-99.24062722 235.25044192 -104.26648563 238.15255978 -109.28442383 241.06854248 C-111.04975211 242.09415628 -112.81578471 243.11854664 -114.58203125 244.14257812 C-116.7891632 245.42271466 -118.99498923 246.70510666 -121.19921875 247.99023438 C-124.12066224 249.68287609 -127.05450298 251.34962072 -130 253 C-131.31726074 253.74830078 -131.31726074 253.74830078 -132.66113281 254.51171875 C-138.10955433 257.45047549 -142.54755551 258.88721609 -148.75 258.75 C-149.92248291 258.72800537 -149.92248291 258.72800537 -151.11865234 258.70556641 C-158.3340422 258.34428079 -163.73211685 256.05826145 -169.89355469 252.28417969 C-172.33539983 250.79552583 -174.80942626 249.37011936 -177.2890625 247.9453125 C-181.37958468 245.58700124 -185.45611125 243.2066868 -189.5234375 240.80859375 C-195.9517352 237.02101042 -202.40921373 233.28563892 -208.875 229.5625 C-209.95426758 228.94052734 -211.03353516 228.31855469 -212.14550781 227.67773438 C-214.33614966 226.4153306 -216.526905 225.15312377 -218.71777344 223.89111328 C-225.2235961 220.1426677 -231.72644083 216.38905819 -238.22973633 212.63623047 C-244.88851178 208.7940301 -251.54926396 204.95528643 -258.21166992 201.11938477 C-261.48476101 199.23231957 -264.75424081 197.33911413 -268.0234375 195.4453125 C-271.72080598 193.30547373 -275.43084941 191.19379643 -279.1640625 189.1171875 C-294.89045847 180.2917359 -294.89045847 180.2917359 -298 174 C-296.74327861 170.22983584 -295.70437669 169.99288597 -292.27734375 168.13671875 C-291.27509766 167.5862085 -290.27285156 167.03569824 -289.24023438 166.46850586 C-287.60538086 165.58690796 -287.60538086 165.58690796 -285.9375 164.6875 C-283.65387409 163.43424636 -281.37135038 162.17898258 -279.08984375 160.921875 C-278.50455902 160.60041 -277.91927429 160.27894501 -277.31625366 159.94773865 C-270.15179768 156.00298641 -263.10804543 151.85309481 -256.05834961 147.70776367 C-254.23321772 146.63597667 -252.4053137 145.56889149 -250.57421875 144.50732422 C-248.85488907 143.50057712 -247.14891002 142.47068348 -245.45703125 141.41845703 C-244.27173828 140.70278564 -244.27173828 140.70278564 -243.0625 139.97265625 C-242.37285156 139.543479 -241.68320313 139.11430176 -240.97265625 138.67211914 C-239 138 -239 138 -236.86010742 138.73608398 C-234.33760493 140.45008784 -233.02064366 142.47896617 -231.3125 145 C-217.99760554 163.77302215 -199.27831535 177.59781359 -177 184 C-175.52853516 184.44472656 -175.52853516 184.44472656 -174.02734375 184.8984375 C-147.89528692 191.68841174 -119.27367247 186.19860721 -96.1171875 173 C-82.43679834 164.22260746 -70.33976184 153.11131887 -62 139 C-62 138.34 -62 137.68 -62 137 C-62.70906494 136.59273682 -63.41812988 136.18547363 -64.14868164 135.76586914 C-66.85235688 134.21205043 -69.55530289 132.65697226 -72.25778198 131.10107422 C-73.45748774 130.41067081 -74.65745791 129.72072664 -75.85769653 129.03125 C-87.46417192 122.3627808 -87.46417192 122.3627808 -92.9609375 118.96484375 C-93.64921631 118.54001709 -94.33749512 118.11519043 -95.04663086 117.67749023 C-96.27705967 116.91127227 -97.50218667 116.13645155 -98.72094727 115.35180664 C-100.47778824 114.22450709 -100.47778824 114.22450709 -103 113 C-106.54020844 114.18006948 -106.94282484 115.0641672 -109 118.0625 C-116.36495879 127.8202935 -127.52078662 134.37509951 -139.5 136.68359375 C-154.95223884 138.63926773 -168.86044199 135.40967701 -181.4375 126.21875 C-191.10516552 118.24945816 -198.05703738 106.44595869 -200 94 C-200.96965349 78.01936457 -198.20422338 64.74595663 -187.671875 52.234375 C-177.36855908 41.41265325 -165.07656397 34.94640129 -149.9375 34.5625 C-133.01219699 35.1260506 -120.73977643 41.66927084 -109.26171875 53.84375 C-106 57.59242958 -106 57.59242958 -106 60 C-98.9686649 57.27523008 -92.57784846 53.45159042 -86.0625 49.6875 C-84.80954871 48.96728367 -83.55645405 48.2473167 -82.30322266 47.52758789 C-73.49660495 42.46422655 -64.71714798 37.35419165 -55.94824219 32.22583008 C-46.4321766 26.66058874 -36.88914124 21.14287003 -27.33203125 15.6484375 C-23.13168037 13.23331634 -18.94276483 10.79994071 -14.76171875 8.3515625 C-12.84116082 7.23434924 -10.92058864 6.11716046 -9 5 C-8.11546143 4.47712402 -7.23092285 3.95424805 -6.31958008 3.41552734 C-5.10951294 2.71484131 -5.10951294 2.71484131 -3.875 2 C-3.17117188 1.5875 -2.46734375 1.175 -1.7421875 0.75 C-1.16726563 0.5025 -0.59234375 0.255 0 0 Z " fill="#00599C" transform="translate(302,86)"/>
<path d="M0 0 C1.86386324 1.4669294 3.71928103 2.94471338 5.5625 4.4375 C6.54476562 5.18966797 6.54476562 5.18966797 7.546875 5.95703125 C15.60518128 12.37040804 22.54014677 21.47604619 27.5625 30.4375 C27.5625 31.0975 27.5625 31.7575 27.5625 32.4375 C26.85343506 32.84476318 26.14437012 33.25202637 25.41381836 33.67163086 C22.71025158 35.22538723 20.00737191 36.78033032 17.30499268 38.33615112 C16.10481482 39.02690374 14.9044171 39.71727449 13.70379639 40.40725708 C5.12051163 45.33807133 5.12051163 45.33807133 -3.36328125 50.4375 C-4.04704834 50.85781494 -4.73081543 51.27812988 -5.43530273 51.71118164 C-7.18845288 52.79809369 -8.93436242 53.89666044 -10.6796875 54.99609375 C-13.4375 56.4375 -13.4375 56.4375 -17.4375 56.4375 C-18.82421875 54.96875 -18.82421875 54.96875 -20.125 52.9375 C-27.22834777 42.91132833 -37.27711767 35.90830469 -49.3125 33.0625 C-64.23242365 30.77079973 -77.40357376 32.92790695 -89.94140625 41.53515625 C-101.11009646 50.04713142 -108.51248527 61.37801741 -110.4375 75.4375 C-111.66630555 89.7223645 -108.68369728 101.70172806 -100.4375 113.4375 C-99.99792969 114.07300781 -99.55835938 114.70851562 -99.10546875 115.36328125 C-94.91614682 120.80819246 -89.31322166 124.03064331 -83.4375 127.4375 C-82.4475 128.035625 -81.4575 128.63375 -80.4375 129.25 C-68.12717723 134.1228361 -53.80862323 133.84865118 -41.4375 129.4375 C-30.72255455 124.69764478 -23.02713889 118.04739005 -16.4375 108.4375 C-12.46365263 109.91424897 -8.88983977 111.78468548 -5.2109375 113.88671875 C-4.62261139 114.22242386 -4.03428528 114.55812897 -3.4281311 114.90400696 C-2.1850759 115.61436678 -0.94293463 116.32632802 0.29833984 117.03979492 C2.15864403 118.10842404 4.02240555 119.17080594 5.88671875 120.23242188 C13.24378496 124.4375614 20.46099478 128.80866119 27.5625 133.4375 C26.41011326 136.53670442 25.2527682 139.1420668 23.20703125 141.7421875 C22.52688965 142.61170044 22.52688965 142.61170044 21.83300781 143.4987793 C21.35186523 144.09730713 20.87072266 144.69583496 20.375 145.3125 C19.87452148 145.93745361 19.37404297 146.56240723 18.85839844 147.20629883 C2.63203095 167.26899076 -21.22340931 181.20244874 -47.05859375 184.1171875 C-76.42399723 186.52362422 -103.11992475 180.37087999 -126.125 161.125 C-147.05403034 143.02796082 -160.59794114 118.24280152 -162.65625 90.48779297 C-163.3289824 77.33797685 -162.58347361 64.97073057 -158.4375 52.4375 C-158.22851074 51.80054199 -158.01952148 51.16358398 -157.80419922 50.50732422 C-152.48366663 34.85658903 -143.9920542 22.13063955 -132.4375 10.4375 C-131.79425781 9.72207031 -131.15101563 9.00664063 -130.48828125 8.26953125 C-97.56900999 -27.50607591 -37.60229013 -27.82756545 0 0 Z " fill="#FDFEFE" transform="translate(213.4375,89.5625)"/>
<path d="M0 0 C2.52250249 1.71400386 3.83946376 3.74288219 5.54760742 6.26391602 C18.86250188 25.03693817 37.58179207 38.8617296 59.86010742 45.26391602 C60.84108398 45.56040039 61.82206055 45.85688477 62.83276367 46.16235352 C88.9648205 52.95232776 117.58643495 47.46252323 140.74291992 34.26391602 C155.18587835 24.99725597 166.09473633 13.3664212 175.86010742 -0.73608398 C179.66570976 -0.15541795 182.38668442 0.92813335 185.68432617 2.89672852 C186.61841309 3.4486084 187.5525 4.00048828 188.51489258 4.5690918 C189.51568848 5.16963379 190.51648438 5.77017578 191.54760742 6.38891602 C193.69425502 7.66057319 195.84140924 8.93137545 197.98901367 10.20141602 C199.66761475 11.1972168 199.66761475 11.1972168 201.38012695 12.21313477 C204.90866456 14.29898944 208.45758965 16.34832222 212.01245117 18.38891602 C212.89059731 18.89320633 212.89059731 18.89320633 213.78648376 19.40768433 C216.62452452 21.03650123 219.46395287 22.66287408 222.30419922 24.2878418 C227.26553305 27.13871992 232.16123939 29.99584517 236.86010742 33.26391602 C235.28433472 39.76397841 229.52946 43.58091769 224.13598633 46.98144531 C221.08839726 48.72680877 218.0149347 50.41164224 214.92260742 52.07641602 C212.67184095 53.31199998 210.42184138 54.54898199 208.17260742 55.78735352 C207.08463867 56.38386719 205.99666992 56.98038086 204.87573242 57.5949707 C201.01708146 59.7304741 197.21166351 61.9453441 193.42260742 64.20141602 C186.45301738 68.33810507 179.44508123 72.40513595 172.42260742 76.45141602 C171.3153833 77.08942139 170.20815918 77.72742676 169.06738281 78.38476562 C166.79673675 79.69281078 164.52598384 81.00067049 162.25512695 82.30834961 C157.86430531 84.83750834 153.47521061 87.36965262 149.08642578 89.90234375 C146.94037496 91.14060614 144.79405446 92.37840129 142.64746094 93.61572266 C137.6194802 96.51435793 132.59362179 99.41647579 127.57568359 102.3324585 C125.81035531 103.35807229 124.04432272 104.38246266 122.27807617 105.40649414 C120.07094422 106.68663067 117.86511819 107.96902268 115.66088867 109.25415039 C112.73944518 110.9467921 109.80560444 112.61353673 106.86010742 114.26391602 C105.54284668 115.0122168 105.54284668 115.0122168 104.19897461 115.77563477 C98.7505531 118.71439151 94.31255191 120.15113211 88.11010742 120.01391602 C86.93762451 119.99192139 86.93762451 119.99192139 85.74145508 119.96948242 C78.52606523 119.60819681 73.12799057 117.32217747 66.96655273 113.5480957 C64.52470759 112.05944185 62.05068117 110.63403537 59.57104492 109.20922852 C55.48052274 106.85091726 51.40399617 104.47060282 47.33666992 102.07250977 C40.90837222 98.28492644 34.4508937 94.54955493 27.98510742 90.82641602 C26.90583984 90.20444336 25.82657227 89.5824707 24.71459961 88.94165039 C22.52395777 87.67924662 20.33320242 86.41703979 18.14233398 85.1550293 C11.63651132 81.40658372 5.1336666 77.6529742 -1.36962891 73.90014648 C-8.02840436 70.05794611 -14.68915654 66.21920245 -21.3515625 62.38330078 C-24.62465359 60.49623559 -27.89413339 58.60303014 -31.16333008 56.70922852 C-34.86069856 54.56938974 -38.57074199 52.45771244 -42.30395508 50.38110352 C-58.03035105 41.55565192 -58.03035105 41.55565192 -61.13989258 35.26391602 C-59.88317119 31.49375186 -58.84426927 31.25680199 -55.41723633 29.40063477 C-53.91386719 28.57486938 -53.91386719 28.57486938 -52.38012695 27.73242188 C-51.29022461 27.14468994 -50.20032227 26.55695801 -49.07739258 25.95141602 C-46.79376667 24.69816238 -44.51124296 23.4428986 -42.22973633 22.18579102 C-41.6444516 21.86432602 -41.05916687 21.54286102 -40.45614624 21.21165466 C-33.29169026 17.26690243 -26.24793801 13.11701083 -19.19824219 8.97167969 C-17.3731103 7.89989269 -15.54520627 6.83280751 -13.71411133 5.77124023 C-11.99478165 4.76449313 -10.2888026 3.73459949 -8.59692383 2.68237305 C-7.80672852 2.20525879 -7.0165332 1.72814453 -6.20239258 1.23657227 C-5.51274414 0.80739502 -4.8230957 0.37821777 -4.11254883 -0.06396484 C-2.13989258 -0.73608398 -2.13989258 -0.73608398 0 0 Z " fill="#004482" transform="translate(65.139892578125,224.736083984375)"/>
<path d="M0 0 C5.57804268 4.41833249 10.78942523 9.24554782 15 15 C15 15.66 15 16.32 15 17 C15.66 17.33 16.32 17.66 17 18 C16.33170166 18.3717334 15.66340332 18.7434668 14.97485352 19.12646484 C-1.79955725 28.46080825 -1.79955725 28.46080825 -18.39868164 38.10131836 C-24.86053847 41.93271213 -31.365747 45.68729382 -37.875 49.4375 C-38.98286865 50.0763916 -40.0907373 50.7152832 -41.23217773 51.37353516 C-46.42470127 54.36718198 -51.61976477 57.35625147 -56.8203125 60.3359375 C-58.54687778 61.32812016 -60.27344045 62.32030736 -62 63.3125 C-62.78874512 63.76230225 -63.57749023 64.21210449 -64.39013672 64.67553711 C-65.46545654 65.29440796 -65.46545654 65.29440796 -66.5625 65.92578125 C-67.18253906 66.28067627 -67.80257812 66.63557129 -68.44140625 67.0012207 C-70.17874187 68.03618272 -70.17874187 68.03618272 -72 70 C-72.985267 67.77335683 -73.96331444 65.54398683 -74.9375 63.3125 C-75.21529297 62.68666016 -75.49308594 62.06082031 -75.77929688 61.41601562 C-80.84027206 49.76967514 -80.45932874 35.83314734 -76 24 C-69.78935658 10.49185056 -59.71300117 0.42343274 -45.97265625 -5.25 C-30.61041279 -10.61281953 -13.7506515 -8.88199977 0 0 Z " fill="#659AD2" transform="translate(181,129)"/>
<path d="M0 0 C2.91279676 1.58029744 5.44201457 3.39590231 8.08544922 5.39160156 C9.98751215 6.49246981 11.90594784 7.56551222 13.83935547 8.61035156 C15.7760392 9.7032411 17.71223595 10.79699406 19.64794922 11.89160156 C21.09331055 12.70564453 21.09331055 12.70564453 22.56787109 13.53613281 C28.80047008 17.05799253 34.96617505 20.67635784 41.08544922 24.39160156 C37.27612581 34.35952004 29.36224366 40.54551491 20.08544922 45.39160156 C6.22628792 51.38327577 -7.45658302 52.16886024 -21.91455078 47.39160156 C-31.36718136 43.36733841 -41.20224872 36.81620568 -45.91455078 27.39160156 C-45.85864258 25.4453125 -45.85864258 25.4453125 -44.91455078 23.39160156 C-42.45288086 21.59570312 -42.45288086 21.59570312 -39.18408203 19.78222656 C-38.59721115 19.45172302 -38.01034027 19.12121948 -37.40568542 18.78070068 C-35.51940049 17.72198829 -33.6237316 16.68155332 -31.72705078 15.64160156 C-29.88778466 14.61641294 -28.05058355 13.58762483 -26.21408081 12.55749512 C-24.98257166 11.8722151 -23.74659705 11.19490094 -22.50637817 10.5255127 C-19.30001236 8.78614411 -16.24499897 6.96990021 -13.25195312 4.88183594 C-4.64290732 -0.96918454 -4.64290732 -0.96918454 0 0 Z " fill="#014482" transform="translate(155.91455078125,172.6083984375)"/>
<path d="M0 0 C3.96 0 7.92 0 12 0 C12 3.63 12 7.26 12 11 C15.63 11 19.26 11 23 11 C23 14.96 23 18.92 23 23 C19.37 23 15.74 23 12 23 C12 26.63 12 30.26 12 34 C8.04 34 4.08 34 0 34 C0 30.37 0 26.74 0 23 C-3.63 23 -7.26 23 -11 23 C-11 19.04 -11 15.08 -11 11 C-7.37 11 -3.74 11 0 11 C0 7.37 0 3.74 0 0 Z " fill="#F2F7FA" transform="translate(232,155)"/>
<path d="M0 0 C3.63 0 7.26 0 11 0 C11 3.63 11 7.26 11 11 C13.6915625 10.9690625 13.6915625 10.9690625 16.4375 10.9375 C18.29166122 10.9161878 20.14712498 10.92773498 22 11 C23 12 23 12 23.09765625 14.50390625 C23.06510417 17.3359375 23.03255208 20.16796875 23 23 C19.04 23 15.08 23 11 23 C11 26.63 11 30.26 11 34 C7.37 34 3.74 34 0 34 C0 30.37 0 26.74 0 23 C-3.96 23 -7.92 23 -12 23 C-12.09765625 14.50390625 -12.09765625 14.50390625 -12 12 C-11 11 -11 11 -8.49609375 10.90234375 C-5.6640625 10.93489583 -2.83203125 10.96744792 0 11 C0 7.37 0 3.74 0 0 Z " fill="#F4F8FA" transform="translate(275,155)"/>
</svg>
