<?xml version="1.0" encoding="UTF-8"?>
<svg version="1.1" xmlns="http://www.w3.org/2000/svg" width="360" height="360">
<path d="M0 0 C118.8 0 237.6 0 360 0 C360 118.8 360 237.6 360 360 C241.2 360 122.4 360 0 360 C0 241.2 0 122.4 0 0 Z " fill="#FBAF3F" transform="translate(0,0)"/>
<path d="M0 0 C118.8 0 237.6 0 360 0 C360 118.8 360 237.6 360 360 C241.2 360 122.4 360 0 360 C0 241.2 0 122.4 0 0 Z M170.76171875 13.7109375 C169.78485107 14.29166016 168.8079834 14.87238281 167.80151367 15.47070312 C166.2600769 16.41333008 166.2600769 16.41333008 164.6875 17.375 C163.09095581 18.32922852 163.09095581 18.32922852 161.4621582 19.30273438 C159.31020099 20.58953514 157.16131391 21.88148499 155.015625 23.17871094 C150.92412441 25.6497759 146.80845073 28.07848391 142.6875 30.5 C141.99873779 30.90653809 141.30997559 31.31307617 140.6003418 31.73193359 C136.07879886 34.39361778 131.49958395 36.92421788 126.87890625 39.41015625 C123.35863246 41.35418804 119.89829503 43.38994123 116.4375 45.4375 C109.17294458 49.73504064 101.87567437 53.97322962 94.5625 58.1875 C93.4593042 58.82341064 92.3561084 59.45932129 91.21948242 60.11450195 C85.58916454 63.35878242 79.95704158 66.59991493 74.32421875 69.83984375 C73.22198975 70.47446533 72.11976074 71.10908691 70.98413086 71.76293945 C68.94260713 72.93835287 66.90052653 74.11280012 64.85766602 75.28588867 C62.87692009 76.42656772 60.9182739 77.60638597 58.98222351 78.82138062 C55.95118949 80.61356214 52.92741653 81.75364983 49.59942627 82.89207458 C43.01951396 85.45488419 37.37944469 88.31399691 33 94 C29.06590417 105.16879378 30.138339 117.78167177 30.4400177 129.44847751 C30.54102005 134.15929725 30.52392174 138.86986201 30.52246094 143.58155823 C30.53729248 151.48410783 30.63624339 159.38197344 30.79101562 167.28295898 C30.96924879 176.41078178 31.03563771 185.53392061 31.0378418 194.66337723 C31.04098967 204.40341881 31.12034301 214.14171179 31.22476196 223.88113904 C31.24997381 226.68068594 31.2615294 229.48001867 31.27026367 232.27966118 C31.28811818 236.67841642 31.35745084 241.07351177 31.46646881 245.47092247 C31.49881611 247.08232951 31.5144042 248.69417472 31.51186371 250.30590439 C31.23971772 258.99217676 31.23971772 258.99217676 35.22370911 266.26519966 C37.77377855 267.82043782 40.2073737 268.95697817 43 270 C43.94230469 270.52207031 44.88460937 271.04414063 45.85546875 271.58203125 C46.62503906 271.98808594 47.39460938 272.39414062 48.1875 272.8125 C52.70771534 275.24842934 57.11017369 277.83961626 61.5 280.5 C65.78649716 283.09763337 70.08034622 285.63232833 74.5 288 C79.590734 290.72717893 84.51582069 293.69158734 89.453125 296.68359375 C93.09147112 298.87991244 96.75263822 300.99248476 100.5 303 C105.590734 305.72717893 110.51582069 308.69158734 115.453125 311.68359375 C119.09147112 313.87991244 122.75263822 315.99248476 126.5 318 C130.9196663 320.36767837 135.21339619 322.90252923 139.5 325.5 C144.65639615 328.62248792 149.85528913 331.60945429 155.16796875 334.4609375 C161.77347715 338.05068965 168.39211908 341.70969043 174.73828125 345.73828125 C176.97771928 347.22836512 176.97771928 347.22836512 179.8125 347 C183.24056221 345.9245295 185.7166682 344.47484176 188.6953125 342.5078125 C196.5979818 337.33759157 204.97913511 332.87769234 213.21679688 328.26660156 C217.63288134 325.78810057 221.9854931 323.22503798 226.3125 320.59375 C230.47734298 318.12390125 234.7084001 315.77259874 238.94140625 313.421875 C242.59457422 311.3849571 246.20154701 309.28874422 249.78125 307.125 C256.25014992 303.22288835 262.84437814 299.54929002 269.43359375 295.85546875 C277.8914615 291.09862769 286.20636277 286.13777096 294.4375 281 C299.2860551 278.00797595 304.19458682 275.20689675 309.21484375 272.515625 C317.5919607 268.43086058 317.5919607 268.43086058 325 263 C325.12332872 260.8394649 325.1753365 258.67485578 325.20100403 256.51095581 C325.21032524 255.82492 325.21964646 255.13888418 325.22925013 254.43205941 C325.2591724 252.11603353 325.28165352 249.79999769 325.30395508 247.48388672 C325.32330382 245.83009021 325.34292794 244.17629691 325.36280823 242.52250671 C325.53637475 227.4075884 325.62979176 212.29165957 325.70387745 197.17596245 C325.7597947 185.99863271 325.8545199 174.82303134 325.99953538 163.6464957 C326.09801801 155.79254125 326.15061606 147.93906228 326.16973227 140.08451855 C326.18250926 135.39125915 326.2159444 130.7002366 326.29932594 126.0076561 C326.37700742 121.58929385 326.39787906 117.17425818 326.37558556 112.75530434 C326.3772875 111.1358518 326.39948275 109.51626823 326.44392395 107.8974247 C326.56962624 103.07058981 326.51580927 98.64249204 325 94 C321.39720567 90.5581737 317.58183782 88.83968746 313 87 C311.09286927 86.00043155 309.195004 84.98270974 307.3125 83.9375 C306.41273438 83.4528125 305.51296875 82.968125 304.5859375 82.46875 C302.11117997 81.06314754 299.78162077 79.54959709 297.4375 77.9375 C294.49857585 75.92638435 291.58373496 74.23107596 288.375 72.6875 C283.31965021 70.2502396 278.56751899 67.41151927 273.79248047 64.47338867 C270.15370841 62.24671448 266.46830571 60.14946966 262.71484375 58.12109375 C256.11548103 54.54920072 249.6891774 50.70617001 243.25 46.85546875 C237.73887429 43.57540956 232.17311578 40.43800416 226.53125 37.38867188 C223.12698656 35.52105513 219.81015388 33.52828507 216.5 31.5 C212.09534387 28.82458339 207.67345087 26.23961454 203.125 23.8125 C198.89979473 21.55236048 194.9610145 19.02880618 191.01171875 16.3203125 C188.45167648 14.64012942 185.76308948 13.3124675 183 12 C182.67 11.67 182.34 11.34 182 11 C177.36038103 10.60656627 174.71916017 11.32108035 170.76171875 13.7109375 Z " fill="#F6F5F5" transform="translate(0,0)"/>
<path d="M0 0 C2.05078125 1.32421875 2.05078125 1.32421875 4 3 C5.71456873 3.96393864 7.44510661 4.89981775 9.1875 5.8125 C12.7541879 7.72575642 16.16350041 9.70953812 19.5 12 C23.53757104 14.75841136 27.71822819 17.08882843 32.02734375 19.39453125 C35.70723531 21.38196283 39.33167877 23.45930068 42.95703125 25.54418945 C46.83325583 27.76960204 50.72238605 29.97042356 54.62109375 32.15625 C55.62043945 32.71755615 56.61978516 33.2788623 57.64941406 33.85717773 C59.62003911 34.96331852 61.59196876 36.06713955 63.56542969 37.16821289 C69.32461088 40.40513586 74.9341157 43.80606961 80.47265625 47.40820312 C83.91211085 49.57447476 87.46809848 51.48578734 91.05078125 53.40234375 C95.00561987 55.54476626 98.8991588 57.79058911 102.796875 60.03442383 C106.43851084 62.12486286 110.10911102 64.14640617 113.8125 66.125 C117.19488101 67.94970554 120.39530546 69.88643802 123.5625 72.0625 C127.42568163 74.71193516 131.41342405 76.81422614 135.640625 78.82421875 C136.41921875 79.21222656 137.1978125 79.60023437 138 80 C139.29001765 80.570472 139.29001765 80.570472 140.60609627 81.15246868 C143 83 143 83 143.64037895 85.99171925 C143.64745935 87.22742507 143.65453976 88.46313089 143.66183472 89.73628235 C143.67245693 90.42473258 143.68307915 91.11318281 143.69402325 91.82249516 C143.72339142 94.13512139 143.71689271 96.44624955 143.71044922 98.7590332 C143.72376974 100.41476154 143.73916007 102.07047433 143.75646973 103.72616577 C143.79642507 108.22842594 143.80397087 112.7301915 143.80335379 117.23260903 C143.80513202 120.99005861 143.8210451 124.74739873 143.83647549 128.5048129 C143.87202223 137.37038154 143.87975553 146.23569149 143.87158203 155.10131836 C143.86374235 164.2477422 143.90768538 173.3929092 143.97638309 182.5390504 C144.03322892 190.38973846 144.05532094 198.24001937 144.05014813 206.09091061 C144.04756955 210.78075386 144.05876619 215.46956087 144.10439682 220.15920448 C144.14602359 224.57162095 144.1443182 228.98193572 144.10943604 233.39439011 C144.10393225 235.01251551 144.11375972 236.63077758 144.14014053 238.24869728 C144.32615039 250.47814435 144.32615039 250.47814435 141.03238297 254.25798607 C138.7366915 255.81499102 136.55468099 256.93559593 134 258 C132.97132813 258.6290625 131.94265625 259.258125 130.8828125 259.90625 C125.20959976 263.18482053 119.49949017 266.37509939 113.73828125 269.49609375 C106.97733132 273.20931161 100.36646405 277.18792947 93.734375 281.125 C92.78216064 281.68952881 91.82994629 282.25405762 90.84887695 282.83569336 C88.95828865 283.95704607 87.06874069 285.08015531 85.18041992 286.20532227 C79.65622222 289.48269174 74.07630022 292.62481576 68.42651367 295.68041992 C65.64734533 297.19177971 62.91124672 298.76607015 60.1875 300.375 C55.80853502 302.946863 51.4128536 305.48683122 47 308 C42.6530544 310.4770172 38.31831901 312.97332399 34 315.5 C29.68167822 318.02667764 25.34680394 320.52273166 21 323 C9.84479038 329.24691333 9.84479038 329.24691333 -1 336 C-4.81115243 335.65580725 -7.63602713 334.30443458 -10.9375 332.4375 C-11.91074219 331.8909375 -12.88398438 331.344375 -13.88671875 330.78125 C-14.91410156 330.1934375 -15.94148437 329.605625 -17 329 C-18.49466797 328.14921875 -18.49466797 328.14921875 -20.01953125 327.28125 C-21.66514189 326.34203812 -23.31066687 325.40266805 -24.95385742 324.45922852 C-28.84515518 322.22530648 -32.74719948 320.01132298 -36.65625 317.80859375 C-37.66010742 317.24277588 -38.66396484 316.67695801 -39.69824219 316.09399414 C-41.68265865 314.97621204 -43.66765376 313.85945638 -45.65332031 312.74389648 C-51.83160942 309.26208213 -57.93083471 305.66814694 -64 302 C-70.51339014 298.14052332 -77.08040558 294.3834564 -83.6875 290.6875 C-89.18780845 287.60996982 -94.64080599 284.46388412 -100.0625 281.25 C-107.91225405 276.59764341 -115.84735735 272.10321703 -123.80688477 267.64160156 C-129.09579529 264.67027223 -134.333663 261.6342581 -139.51782227 258.48339844 C-141.55196222 257.26775622 -143.59677402 256.0809941 -145.65513611 254.9072876 C-146.75894119 254.27788269 -147.86274628 253.64847778 -149 253 C-149.56182024 231.07806129 -149.98441217 209.15731603 -150.24349213 187.22962761 C-150.36701668 177.04662687 -150.53522655 166.86810943 -150.81054688 156.68798828 C-151.05054718 147.8095752 -151.20476567 138.93440791 -151.25812387 130.05284131 C-151.28930562 125.35231245 -151.36192171 120.66106308 -151.53752136 115.96352768 C-152.56389226 87.4266722 -152.56389226 87.4266722 -146.64449692 80.07425499 C-140.96358026 75.32477024 -134.72912669 72.47369514 -127.7881546 70.02476501 C-124.16714589 68.69389081 -121.14580634 66.92374275 -117.8828125 64.87890625 C-115.96387223 63.77286379 -114.04460974 62.66738015 -112.125 61.5625 C-111.06313477 60.95035645 -110.00126953 60.33821289 -108.90722656 59.70751953 C-103.39036136 56.52733305 -97.87144509 53.35072693 -92.3515625 50.17578125 C-82.13834713 44.29736276 -71.94316857 38.39475182 -61.8125 32.375 C-53.48896142 27.42941324 -45.09401168 22.62578425 -36.64208984 17.90307617 C-31.66668511 15.11264879 -26.74298354 12.26099057 -21.87109375 9.29296875 C-20.8759375 8.6896875 -19.88078125 8.08640625 -18.85546875 7.46484375 C-16.95658132 6.30822557 -15.06423262 5.14078019 -13.1796875 3.9609375 C-4.97340307 -1.02719618 -4.97340307 -1.02719618 0 0 Z M-8.75 13.9375 C-9.54148438 14.39125 -10.33296875 14.845 -11.1484375 15.3125 C-15.22973971 17.72773637 -19.29020029 20.17718132 -23.34863281 22.63061523 C-27.87431264 25.35607769 -32.46787188 27.91135994 -37.125 30.40625 C-41.23713105 32.68580091 -45.25097041 35.12212616 -49.25976562 37.578125 C-52.86016975 39.76933016 -56.50786921 41.83742695 -60.21484375 43.84375 C-66.23765906 47.10580682 -72.15348984 50.53701004 -78.0625 54 C-79.07376953 54.59039062 -80.08503906 55.18078125 -81.12695312 55.7890625 C-85.90928886 58.5851738 -90.677852 61.4010478 -95.421875 64.26171875 C-98.63720104 66.19674702 -101.86761732 68.06080311 -105.1875 69.8125 C-110.3682028 72.60436388 -115.39425905 75.61479396 -120.42333984 78.66748047 C-125.17648668 81.54036886 -130.00673364 84.22774814 -134.92578125 86.80859375 C-137.12686757 87.95288944 -137.12686757 87.95288944 -139 90 C-139.29984628 92.82787565 -139.29984628 92.82787565 -139.24050903 96.20083618 C-139.24221788 96.84366275 -139.24392673 97.48648932 -139.24568737 98.14879549 C-139.24899328 100.3123622 -139.23796078 102.4756218 -139.22705078 104.63916016 C-139.2264869 106.18623345 -139.22680277 107.73330727 -139.22793579 109.28038025 C-139.22851122 113.48885185 -139.21672621 117.69721018 -139.20278788 121.90565538 C-139.19031215 126.30057233 -139.18911252 130.69549167 -139.18673706 135.09042358 C-139.18051298 143.41667602 -139.16408965 151.74287614 -139.14403808 160.06910551 C-139.1217079 169.54659421 -139.11069291 179.02408538 -139.10064721 188.50159383 C-139.0797242 208.00109225 -139.04453024 227.50054192 -139 247 C-137.23152843 247.96505882 -135.46300439 248.93002151 -133.69445801 249.89494324 C-132.21719616 250.70100399 -132.21719616 250.70100399 -130.71009064 251.52334881 C-128.77162609 252.57956293 -126.8308918 253.63161566 -124.88867188 254.6809082 C-118.67027914 258.04042123 -112.56924281 261.56655994 -106.5 265.1875 C-88.34141188 276.02000051 -88.34141188 276.02000051 -69.875 286.3125 C-65.78836368 288.50471111 -61.96262666 290.94113447 -58.16796875 293.60546875 C-55.53896763 295.29655596 -52.79869535 296.60224069 -50 298 C-46.23071016 300.07007776 -42.49092016 302.19168233 -38.75 304.3125 C-37.76386719 304.86873047 -36.77773437 305.42496094 -35.76171875 305.99804688 C-28.27549276 310.23432364 -20.8493574 314.56131218 -13.57421875 319.15234375 C-12.14529297 320.03599609 -12.14529297 320.03599609 -10.6875 320.9375 C-9.72199219 321.54464844 -8.75648438 322.15179688 -7.76171875 322.77734375 C-4.43150285 324.25168261 -3.39253074 324.24613198 0 323 C2.52170664 321.64349574 4.9403136 320.2475814 7.375 318.75 C8.90379415 317.83011104 10.43380735 316.91224592 11.96484375 315.99609375 C12.78065918 315.50737793 13.59647461 315.01866211 14.43701172 314.51513672 C18.89782309 311.87808248 23.41933133 309.34958674 27.9375 306.8125 C48.10363378 295.45691139 68.10672157 283.82655705 88 272 C87.36191406 271.27683594 86.72382813 270.55367188 86.06640625 269.80859375 C83.95847982 266.94356708 83.48165567 265.49120904 82.9375 262.0625 C80.75780182 253.27301438 74.23271349 246.94517729 68.47705078 240.22070312 C62.30022959 232.96328907 57.93174194 227.34275333 56.26953125 217.64453125 C55.15804931 214.62233143 55.15804931 214.62233143 51.46484375 213.3046875 C49.98357785 212.84646615 48.49463878 212.41251712 47 212 C46.26048096 211.77111084 45.52096191 211.54222168 44.7590332 211.30639648 C33.30198763 207.81529931 21.59954698 204.28402257 10 209 C7.68586275 210.46608216 5.50681391 211.93836941 3.3125 213.5625 C2.70092041 214.00795166 2.08934082 214.45340332 1.45922852 214.91235352 C-4.1983935 219.07022274 -9.63742248 223.46877179 -15 228 C-15.54076172 228.45584473 -16.08152344 228.91168945 -16.63867188 229.38134766 C-19.41601466 231.72285884 -22.1892099 234.06911762 -24.95703125 236.421875 C-25.96121094 237.27265625 -26.96539062 238.1234375 -28 239 C-28.52561523 239.46994385 -29.05123047 239.9398877 -29.59277344 240.42407227 C-32.46772962 242.94928689 -33.72186529 243.96643202 -37.625 244.4375 C-42.45114067 243.81188917 -44.92256438 242.42357049 -47.9609375 238.671875 C-52.65449071 233.12972737 -57.79313763 228.0570275 -62.93457031 222.93505859 C-64.63203227 221.24299008 -66.32403952 219.5455974 -68.015625 217.84765625 C-69.10645009 216.75749147 -70.19758509 215.66763668 -71.2890625 214.578125 C-71.78814117 214.07702209 -72.28721985 213.57591919 -72.80142212 213.05963135 C-78.47215452 206.85627124 -78.47215452 206.85627124 -86.07421875 204.46875 C-86.82010254 204.46101562 -87.56598633 204.45328125 -88.33447266 204.4453125 C-89.11097168 204.46335938 -89.8874707 204.48140625 -90.6875 204.5 C-91.48462402 204.50773438 -92.28174805 204.51546875 -93.10302734 204.5234375 C-99.32232716 204.70557685 -104.52974342 205.92126263 -110 209 C-107.04256512 200.83184651 -102.65647386 198.59055247 -95 195 C-93.18739195 194.04187106 -91.37488521 193.0835504 -89.5625 192.125 C-86.18173329 190.35385698 -84.9865143 190 -81 190 C-80.01 192.31 -79.02 194.62 -78 197 C-77.34 197 -76.68 197 -76 197 C-75.74605469 197.60972656 -75.49210937 198.21945313 -75.23046875 198.84765625 C-70.90910336 206.40661603 -57.82515856 208.56050213 -50 211 C-49.01 211.33 -48.02 211.66 -47 212 C-46.31653318 213.65984798 -45.65411685 215.32836805 -45 217 C-43.42316102 219.41016844 -41.72231212 221.68847583 -40 224 C-36.34159069 219.58151021 -33.21036343 214.88214967 -30.08666992 210.08325195 C-27.86710423 206.70490953 -25.59884454 203.42875885 -23.08984375 200.2578125 C-22.62465332 199.65702881 -22.15946289 199.05624512 -21.68017578 198.43725586 C-20.79578134 197.30579299 -19.89022521 196.19042356 -18.96044922 195.09594727 C-16.35685685 191.72105496 -15.74870377 189.29641603 -16.1015625 185.18359375 C-16.73376835 181.03027108 -17.58662942 176.92120954 -18.51147461 172.82373047 C-21.66850144 158.7940543 -21.79859831 146.12429454 -18.98022461 132.02490234 C-18.21076248 128.08001659 -17.61508949 124.83838141 -19 121 C-23.72601297 116.99316292 -29.0845119 114.22342177 -34.546875 111.33203125 C-37 110 -37 110 -40 108 C-44.89787793 108.1798172 -48.37157341 110.97657147 -52.25 113.6875 C-59.50767459 118.74577168 -59.50767459 118.74577168 -62.98046875 120.5390625 C-65.49967525 121.84472437 -67.21282549 122.78979748 -69 125 C-69.53148252 128.37048501 -69.436731 131.38532821 -69.18359375 134.78515625 C-68.94598403 138.94585405 -69.76219021 142.05448128 -71 146 C-71.66 146 -72.32 146 -73 146 C-73.33 145.34 -73.66 144.68 -74 144 C-74.66 144.66 -75.32 145.32 -76 146 C-78.72869407 145.96712417 -81.2966618 145.43602229 -84 145 C-84.5345256 143.75579353 -85.05208611 142.50429064 -85.5625 141.25 C-85.85253906 140.55390625 -86.14257812 139.8578125 -86.44140625 139.140625 C-87.12238239 136.53101013 -87.05020397 135.48658159 -86 133 C-79.07202914 124.08449651 -70.36987056 116.50680805 -62.11328125 108.859375 C-58.55722727 105.56017068 -55.13561676 102.14695926 -51.75073242 98.67285156 C-48.87910117 95.92896405 -46.89685036 94.71132354 -42.97265625 94.69921875 C-37.52434487 94.82597493 -32.62006766 96.22508065 -27.4375 97.8125 C-26.09655273 98.20405273 -26.09655273 98.20405273 -24.72851562 98.60351562 C-20.71773876 99.79178529 -16.77356123 101.0525301 -12.875 102.5703125 C-5.71866531 105.31051741 3.55154184 108.53059063 11.03125 105.95703125 C14.54172879 103.64900542 16.66549232 101.50176152 19 98 C19.19495925 95.31728708 19.19495925 95.31728708 19.01953125 92.30078125 C18.99052734 91.17349609 18.96152344 90.04621094 18.93164062 88.88476562 C18.85285012 86.52234204 18.76190265 84.16028944 18.65820312 81.79882812 C18.49599818 74.4829693 19.01916557 69.56265389 24 64 C29.14443857 58.98651077 34.55148638 57.58635997 41.625 57.375 C48.78695019 57.70677211 53.8539637 58.5559911 58.7734375 63.94140625 C63.2005266 69.58438602 64.18341731 74.07193152 64.5625 81.1875 C64.60568359 81.93708984 64.64886719 82.68667969 64.69335938 83.45898438 C64.79922685 85.30578375 64.9000976 87.15286834 65 89 C62.525 89.99 62.525 89.99 60 91 C60.59924224 95.19469571 61.57499941 99.00999834 63 103 C61.35 103 59.7 103 58 103 C58 104.32 58 105.64 58 107 C57.01 107 56.02 107 55 107 C54.34 108.98 53.68 110.96 53 113 C46.75090673 114.36343853 43.71897041 113.67982304 38.0390625 110.87890625 C35.93940748 109.82263092 35.93940748 109.82263092 33.1875 109.9375 C30.24491567 111.36675525 28.84062973 113.34131261 27 116 C30.75157839 124.57770021 40.75770476 129.88047688 48.1875 135 C49.15880859 135.69222656 50.13011719 136.38445312 51.13085938 137.09765625 C52.07123047 137.74605469 53.01160156 138.39445312 53.98046875 139.0625 C55.24733521 139.94615234 55.24733521 139.94615234 56.53979492 140.84765625 C61.13495385 142.99999823 65.43976296 140.59078036 70 139 C70 138.34 70 137.68 70 137 C71.918125 136.690625 71.918125 136.690625 73.875 136.375 C80.30400216 134.96897417 86.3375821 131.6624179 91 127 C90.90423228 124.06569908 90.90423228 124.06569908 90.4375 120.75 C89.93022582 115.53314621 89.97661176 112.47461459 93 108 C93 107.34 93 106.68 93 106 C93.66 106 94.32 106 95 106 C95 106.99 95 107.98 95 109 C95.680625 108.608125 96.36125 108.21625 97.0625 107.8125 C101.29649749 106.64139431 103.14937286 108.03693518 107 110 C108.00919109 113.11596957 108.45392918 115.73861753 108 119 C106.03192902 121.65689582 103.88297836 123.68851645 101.39453125 125.859375 C98.96095432 127.88920025 98.96095432 127.88920025 97.2890625 130.3125 C93.8929461 134.29974929 89.77158651 137.16273825 85.5625 140.25 C84.66958252 140.90806641 83.77666504 141.56613281 82.85668945 142.24414062 C81.06799425 143.55861311 79.27693663 144.86987765 77.48339844 146.17773438 C75.31660432 147.7676824 73.174309 149.38377431 71.0390625 151.015625 C69.92275059 151.84492992 68.80563798 152.67315879 67.6875 153.5 C66.74261719 154.2115625 65.79773438 154.923125 64.82421875 155.65625 C60.95644482 157.49651865 59.12644974 157.12422065 55 156 C51.7083762 154.57572246 48.57984814 152.91295275 45.4375 151.1875 C44.61314453 150.74857422 43.78878906 150.30964844 42.93945312 149.85742188 C39.36686645 147.93547876 35.93849048 146.00641377 32.66015625 143.61328125 C30.20292547 141.82711056 30.20292547 141.82711056 27.7890625 141.921875 C25.14006082 143.51821662 24.54683869 145.42246665 23.375 148.25 C22.97023437 149.20390625 22.56546875 150.1578125 22.1484375 151.140625 C21.76945313 152.08421875 21.39046875 153.0278125 21 154 C20.443125 155.22396484 20.443125 155.22396484 19.875 156.47265625 C17.24719064 164.06280204 18.66314496 172.47944427 21.24609375 179.87890625 C26.85282726 186.65943252 39.55429171 188.73290958 47.5859375 191.46875 C66.86314513 198.22522228 66.86314513 198.22522228 70.4375 204.5 C72.33914189 209.29981727 73.57569066 214.36604791 74.9375 219.33984375 C78.40714852 231.29227266 83.71965693 242.30015624 90 253 C99.50767881 253.322092 107.90256921 253.23806859 117 250 C117 251.65 117 253.3 117 255 C121.95 252.36 126.9 249.72 132 247 C132 194.86 132 142.72 132 89 C127.38 86.36 122.76 83.72 118 81 C113.125 78.0625 113.125 78.0625 110.73046875 76.61328125 C107.32950469 74.60384183 103.88585946 72.67662218 100.4375 70.75 C94.10019208 67.20700134 87.82520922 63.57014039 81.57470703 59.87646484 C69.51079587 52.75016176 57.36357132 45.76752849 45.19140625 38.828125 C41.13386786 36.50385576 37.0984622 34.14271724 33.0625 31.78125 C29.13110569 29.4946227 25.18084494 27.24160288 21.22851562 24.99145508 C16.36571046 22.21935929 11.53687236 19.39188661 6.71875 16.54296875 C-0.81383342 11.88438731 -0.81383342 11.88438731 -8.75 13.9375 Z " fill="#323436" transform="translate(182,11)"/>
<path d="M0 0 C57.42 0 114.84 0 174 0 C170.95656937 2.28257297 168.11311095 4.16935817 164.8359375 6.046875 C163.80968262 6.63670166 162.78342773 7.22652832 161.72607422 7.83422852 C160.62021973 8.46643311 159.51436523 9.0986377 158.375 9.75 C157.2096351 10.41890541 156.04443611 11.08809996 154.87939453 11.75756836 C152.45802069 13.14862178 150.03593877 14.53842958 147.61328125 15.92724609 C142.02848942 19.12968409 136.45158197 22.34579313 130.875 25.5625 C129.25899902 26.49412964 129.25899902 26.49412964 127.61035156 27.44458008 C120.4344281 31.584909 113.27600335 35.7543114 106.125 39.9375 C96.85733917 45.35784498 87.54640471 50.69940385 78.21859741 56.01519775 C69.04094689 61.24673131 59.89533519 66.5307993 50.77929688 71.86914062 C49.90208984 72.38283203 49.02488281 72.89652344 48.12109375 73.42578125 C47.257724 73.9822937 46.39435425 74.53880615 45.50482178 75.11218262 C42.58789117 76.68334162 40.44120567 77.47655683 37.31121826 78.31787109 C31.31231018 80.27582254 26.61413501 82.67633901 23 88 C19.51892643 100.0824598 20.73180138 113.43269182 21.07351518 125.86642814 C21.19275082 130.93748133 21.20348528 136.0087703 21.22599792 141.08100891 C21.28492515 150.6732737 21.44064205 160.26139664 21.63163823 169.85184175 C21.84442885 180.77512265 21.94857623 191.69860747 22.04385149 202.62344682 C22.24215616 225.08458947 22.57607992 247.54206217 23 270 C23.7778334 270.44410217 24.55566681 270.88820435 25.35707092 271.34576416 C28.31309455 273.03368479 31.26896735 274.72186897 34.2247467 276.41021729 C35.49090375 277.13338193 36.75711651 277.85644903 38.02339172 278.57940674 C46.84112613 283.61385571 55.64585312 288.67011678 64.4375 293.75 C72.15478477 298.20865305 79.88086729 302.65064197 87.625 307.0625 C96.01937089 311.84748386 104.37039758 316.70413257 112.71191406 321.58056641 C120.08625387 325.8895267 127.47567831 330.17159007 134.875 334.4375 C135.93887939 335.05117432 137.00275879 335.66484863 138.09887695 336.29711914 C143.21213839 339.24519847 148.32766876 342.18923845 153.44821167 345.12464905 C155.84713889 346.50028294 158.24494779 347.8778592 160.64263916 349.25564575 C162.33600979 350.22762009 164.03102352 351.19673004 165.72607422 352.16577148 C166.7523291 352.75559814 167.77858398 353.3454248 168.8359375 353.953125 C169.73876465 354.47036133 170.6415918 354.98759766 171.57177734 355.52050781 C174 357 174 357 178 360 C119.26 360 60.52 360 0 360 C0 241.2 0 122.4 0 0 Z " fill="#EEEEEE" transform="translate(0,0)"/>
<path d="M0 0 C4.25503492 1.79389076 8.08562472 4.12497693 12 6.5625 C13.72263516 7.59608109 15.4452912 8.62962929 17.16918945 9.66110229 C18.94753186 10.72867859 20.72014767 11.80530177 22.4921875 12.88330078 C27.93885412 16.18502287 33.47397822 19.33363904 39 22.5 C41.16445852 23.74801133 43.32852003 24.99671148 45.4921875 26.24609375 C49.85065388 28.76069436 54.21012191 31.27354661 58.5703125 33.78515625 C70.00636805 40.37463222 81.42392693 46.99367837 92.81640625 53.65820312 C98.1806369 56.79026702 103.5573051 59.89923946 108.953125 62.9765625 C109.54968903 63.31681961 110.14625305 63.65707672 110.76089478 64.00764465 C113.61602247 65.63509199 116.47272173 67.25965881 119.33154297 68.88061523 C121.50504542 70.11678861 123.65480265 71.3955987 125.77944946 72.713974 C128.92015597 74.5541191 132.00257954 75.70062023 135.46252441 76.81716919 C142.14098812 79.30835377 147.71465121 82.14571301 152 88 C156.48055235 99.50665853 154.61566729 114.00571633 154.23066664 126.06921601 C154.09241239 131.13475031 154.08016085 136.20061624 154.05410767 141.26774597 C153.98592841 150.84646431 153.80570942 160.41960848 153.58441889 169.99587983 C153.337855 180.9044934 153.2173966 191.81338439 153.10711932 202.72409403 C152.877625 225.15247784 152.49109047 247.57592571 152 270 C151.21529327 270.44770248 150.43058655 270.89540497 149.62210083 271.35667419 C146.64887394 273.05334828 143.67592725 274.75051143 140.70315552 276.44798279 C139.42807644 277.17593502 138.152893 277.90370449 136.87759399 278.63127136 C128.51888972 283.40017502 120.18161662 288.20319338 111.875 293.0625 C110.85054779 293.66165726 109.82609558 294.26081451 108.77059937 294.87812805 C107.85114532 295.41592392 106.93169128 295.95371979 105.984375 296.5078125 C96.44177067 302.08429156 86.85942207 307.59211491 77.28222656 313.10888672 C71.85340058 316.23680148 66.42680719 319.36858448 61 322.5 C58.83334417 323.75001879 56.6666775 325.00001878 54.5 326.25 C53.4275 326.86875 52.355 327.4875 51.25 328.125 C48 330 44.75 331.875 41.5 333.75 C40.42588867 334.37011963 39.35177734 334.99023926 38.24511719 335.62915039 C36.09626575 336.86798943 33.94589273 338.10419322 31.79394531 339.33764648 C26.70316444 342.25985983 21.63232365 345.20685331 16.61242676 348.24905396 C14.23750276 349.68613607 11.85378932 351.10826117 9.46923828 352.52929688 C7.78710668 353.54020016 6.11796688 354.57262227 4.44921875 355.60546875 C3.42957031 356.21132813 2.40992188 356.8171875 1.359375 357.44140625 C0.46702148 357.98482666 -0.42533203 358.52824707 -1.34472656 359.08813477 C-4.95929682 360.32943855 -6.55486002 359.54531198 -10 358 C-11.95884816 356.99412776 -13.89054472 355.93419728 -15.796875 354.83203125 C-16.90708008 354.19378418 -18.01728516 353.55553711 -19.16113281 352.89794922 C-20.35748865 352.20291441 -21.55377593 351.50776158 -22.75 350.8125 C-24.0006971 350.09082406 -25.25167838 349.3696404 -26.50292969 348.64892578 C-29.07790026 347.16458899 -31.65103462 345.67714282 -34.22265625 344.18701172 C-37.73820603 342.15028365 -41.25898408 340.12275172 -44.78125 338.09765625 C-55.27291214 332.06229515 -65.74081798 325.98785374 -76.1875 319.875 C-83.92174871 315.35007235 -91.69015354 310.89312189 -99.5 306.5 C-108.30187165 301.54885337 -117.04409105 296.50381028 -125.75805664 291.3996582 C-131.24691394 288.18573758 -136.74442032 284.98799946 -142.2578125 281.81640625 C-142.85951767 281.47015198 -143.46122284 281.12389771 -144.0811615 280.76715088 C-147.01551159 279.07907599 -149.95103646 277.39310586 -152.88793945 275.70947266 C-154.45741333 274.80720947 -154.45741333 274.80720947 -156.05859375 273.88671875 C-156.98986084 273.35264404 -157.92112793 272.81856934 -158.88061523 272.26831055 C-161 271 -161 271 -162 270 C-162.14186244 267.67528056 -162.21901451 265.37831105 -162.25483704 263.05107117 C-162.26980278 262.315477 -162.28476852 261.57988284 -162.30018777 260.82199794 C-162.34896205 258.33802489 -162.39011104 255.85398913 -162.4309082 253.36987305 C-162.46334449 251.59611215 -162.49594621 249.82235427 -162.52870178 248.04859924 C-162.81766026 231.81697182 -162.98465341 215.58362402 -163.11837482 199.35005474 C-163.21039271 188.4347704 -163.33997765 177.52258065 -163.5637207 166.60913086 C-163.75884453 157.09014934 -163.88309537 147.57333748 -163.92244023 138.05238944 C-163.94559712 133.01363895 -164.00311046 127.98077121 -164.1451664 122.94385338 C-164.97515494 92.29302019 -164.97515494 92.29302019 -160.0307312 85.1584301 C-155.38977383 80.8703682 -150.29833878 78.54819097 -144.29891682 76.72994041 C-141.37909511 75.80285343 -138.93768004 74.37929419 -136.3671875 72.73046875 C-134.87099098 71.88069739 -133.37361853 71.0329927 -131.875 70.1875 C-130.11820532 69.18930221 -128.36170949 68.19057833 -126.60546875 67.19140625 C-125.70103027 66.67723145 -124.7965918 66.16305664 -123.86474609 65.63330078 C-118.62886982 62.64812844 -113.4080056 59.636949 -108.1875 56.625 C-107.08954102 55.99158691 -105.99158203 55.35817383 -104.86035156 54.70556641 C-97.60202328 50.51364201 -90.3600479 46.29444555 -83.125 42.0625 C-73.86070465 36.6441815 -64.5537573 31.30349304 -55.22866821 25.99084473 C-45.74993707 20.58960238 -36.30952177 15.1253062 -26.90039062 9.60351562 C-25.10506841 8.55126086 -23.30591492 7.5055073 -21.50244141 6.46728516 C-19.87418957 5.51257359 -18.26521917 4.52391648 -16.68115234 3.49755859 C-11.14233748 0.04291822 -6.50112509 -1.41823145 0 0 Z M-13.23828125 13.7109375 C-14.21514893 14.29166016 -15.1920166 14.87238281 -16.19848633 15.47070312 C-17.7399231 16.41333008 -17.7399231 16.41333008 -19.3125 17.375 C-20.90904419 18.32922852 -20.90904419 18.32922852 -22.5378418 19.30273438 C-24.68979901 20.58953514 -26.83868609 21.88148499 -28.984375 23.17871094 C-33.07587559 25.6497759 -37.19154927 28.07848391 -41.3125 30.5 C-42.00126221 30.90653809 -42.69002441 31.31307617 -43.3996582 31.73193359 C-47.92120114 34.39361778 -52.50041605 36.92421788 -57.12109375 39.41015625 C-60.64136754 41.35418804 -64.10170497 43.38994123 -67.5625 45.4375 C-74.82705542 49.73504064 -82.12432563 53.97322962 -89.4375 58.1875 C-90.5406958 58.82341064 -91.6438916 59.45932129 -92.78051758 60.11450195 C-98.41083546 63.35878242 -104.04295842 66.59991493 -109.67578125 69.83984375 C-110.77801025 70.47446533 -111.88023926 71.10908691 -113.01586914 71.76293945 C-115.05739287 72.93835287 -117.09947347 74.11280012 -119.14233398 75.28588867 C-121.12307991 76.42656772 -123.0817261 77.60638597 -125.01777649 78.82138062 C-128.04881051 80.61356214 -131.07258347 81.75364983 -134.40057373 82.89207458 C-140.98048604 85.45488419 -146.62055531 88.31399691 -151 94 C-154.93409583 105.16879378 -153.861661 117.78167177 -153.5599823 129.44847751 C-153.45897995 134.15929725 -153.47607826 138.86986201 -153.47753906 143.58155823 C-153.46270752 151.48410783 -153.36375661 159.38197344 -153.20898438 167.28295898 C-153.03075121 176.41078178 -152.96436229 185.53392061 -152.9621582 194.66337723 C-152.95901033 204.40341881 -152.87965699 214.14171179 -152.77523804 223.88113904 C-152.75002619 226.68068594 -152.7384706 229.48001867 -152.72973633 232.27966118 C-152.71188182 236.67841642 -152.64254916 241.07351177 -152.53353119 245.47092247 C-152.50118389 247.08232951 -152.4855958 248.69417472 -152.48813629 250.30590439 C-152.76028228 258.99217676 -152.76028228 258.99217676 -148.77629089 266.26519966 C-146.22622145 267.82043782 -143.7926263 268.95697817 -141 270 C-140.05769531 270.52207031 -139.11539063 271.04414063 -138.14453125 271.58203125 C-137.37496094 271.98808594 -136.60539062 272.39414062 -135.8125 272.8125 C-131.29228466 275.24842934 -126.88982631 277.83961626 -122.5 280.5 C-118.21350284 283.09763337 -113.91965378 285.63232833 -109.5 288 C-104.409266 290.72717893 -99.48417931 293.69158734 -94.546875 296.68359375 C-90.90852888 298.87991244 -87.24736178 300.99248476 -83.5 303 C-78.409266 305.72717893 -73.48417931 308.69158734 -68.546875 311.68359375 C-64.90852888 313.87991244 -61.24736178 315.99248476 -57.5 318 C-53.0803337 320.36767837 -48.78660381 322.90252923 -44.5 325.5 C-39.34360385 328.62248792 -34.14471087 331.60945429 -28.83203125 334.4609375 C-22.22652285 338.05068965 -15.60788092 341.70969043 -9.26171875 345.73828125 C-7.02228072 347.22836512 -7.02228072 347.22836512 -4.1875 347 C-0.75943779 345.9245295 1.7166682 344.47484176 4.6953125 342.5078125 C12.5979818 337.33759157 20.97913511 332.87769234 29.21679688 328.26660156 C33.63288134 325.78810057 37.9854931 323.22503798 42.3125 320.59375 C46.47734298 318.12390125 50.7084001 315.77259874 54.94140625 313.421875 C58.59457422 311.3849571 62.20154701 309.28874422 65.78125 307.125 C72.25014992 303.22288835 78.84437814 299.54929002 85.43359375 295.85546875 C93.8914615 291.09862769 102.20636277 286.13777096 110.4375 281 C115.2860551 278.00797595 120.19458682 275.20689675 125.21484375 272.515625 C133.5919607 268.43086058 133.5919607 268.43086058 141 263 C141.12332872 260.8394649 141.1753365 258.67485578 141.20100403 256.51095581 C141.21032524 255.82492 141.21964646 255.13888418 141.22925013 254.43205941 C141.2591724 252.11603353 141.28165352 249.79999769 141.30395508 247.48388672 C141.32330382 245.83009021 141.34292794 244.17629691 141.36280823 242.52250671 C141.53637475 227.4075884 141.62979176 212.29165957 141.70387745 197.17596245 C141.7597947 185.99863271 141.8545199 174.82303134 141.99953538 163.6464957 C142.09801801 155.79254125 142.15061606 147.93906228 142.16973227 140.08451855 C142.18250926 135.39125915 142.2159444 130.7002366 142.29932594 126.0076561 C142.37700742 121.58929385 142.39787906 117.17425818 142.37558556 112.75530434 C142.3772875 111.1358518 142.39948275 109.51626823 142.44392395 107.8974247 C142.56962624 103.07058981 142.51580927 98.64249204 141 94 C137.39720567 90.5581737 133.58183782 88.83968746 129 87 C127.09286927 86.00043155 125.195004 84.98270974 123.3125 83.9375 C122.41273438 83.4528125 121.51296875 82.968125 120.5859375 82.46875 C118.11117997 81.06314754 115.78162077 79.54959709 113.4375 77.9375 C110.49857585 75.92638435 107.58373496 74.23107596 104.375 72.6875 C99.31965021 70.2502396 94.56751899 67.41151927 89.79248047 64.47338867 C86.15370841 62.24671448 82.46830571 60.14946966 78.71484375 58.12109375 C72.11548103 54.54920072 65.6891774 50.70617001 59.25 46.85546875 C53.73887429 43.57540956 48.17311578 40.43800416 42.53125 37.38867188 C39.12698656 35.52105513 35.81015388 33.52828507 32.5 31.5 C28.09534387 28.82458339 23.67345087 26.23961454 19.125 23.8125 C14.89979473 21.55236048 10.9610145 19.02880618 7.01171875 16.3203125 C4.45167648 14.64012942 1.76308948 13.3124675 -1 12 C-1.33 11.67 -1.66 11.34 -2 11 C-6.63961897 10.60656627 -9.28083983 11.32108035 -13.23828125 13.7109375 Z " fill="#F9B041" transform="translate(184,0)"/>
<path d="M0 0 C0.33 0 0.66 0 1 0 C1 50.16 1 100.32 1 152 C0.67 152 0.34 152 0 152 C0 147.05 0 142.1 0 137 C-1.98 137 -3.96 137 -6 137 C-6 132.05 -6 127.1 -6 122 C-4.02 122 -2.04 122 0 122 C0 117.05 0 112.1 0 107 C-1.98 107 -3.96 107 -6 107 C-6 102.05 -6 97.1 -6 92 C-4.02 92 -2.04 92 0 92 C0 87.05 0 82.1 0 77 C-1.98 77 -3.96 77 -6 77 C-6 72.05 -6 67.1 -6 62 C-4.02 62 -2.04 62 0 62 C0 57.05 0 52.1 0 47 C-1.98 47 -3.96 47 -6 47 C-6 42.05 -6 37.1 -6 32 C-4.02 32 -2.04 32 0 32 C0 27.05 0 22.1 0 17 C-1.98 17 -3.96 17 -6 17 C-6 12.05 -6 7.1 -6 2 C-4.02 2 -2.04 2 0 2 C0 1.34 0 0.68 0 0 Z " fill="#EEEEEE" transform="translate(21,88)"/>
<path d="M0 0 C3.66095826 1.38289079 7.01704575 3.02896063 10.4296875 4.94140625 C11.46617432 5.52011475 12.50266113 6.09882324 13.57055664 6.69506836 C15.79944119 7.9546722 18.02513104 9.21994371 20.24780273 10.49047852 C27.51008719 14.64230453 27.51008719 14.64230453 34.98046875 18.3984375 C38.84478486 20.28265064 41.9636671 21.90583219 45 25 C46.32737095 30.736551 45.82377337 33.90407705 45 40 C40.05 40 35.1 40 30 40 C30 35.05 30 30.1 30 25 C25.05 25 20.1 25 15 25 C15 20.05 15 15.1 15 10 C10.05 10 5.1 10 0 10 C0 6.7 0 3.4 0 0 Z " fill="#FEFEFE" transform="translate(30,275)"/>
<path d="M0 0 C4.95 0 9.9 0 15 0 C17.17882952 10.59703449 17.17882952 10.59703449 15 15 C9.62317126 20.02133593 -1.39055355 28 -9 28 C-9 28.66 -9 29.32 -9 30 C-10.98 30 -12.96 30 -15 30 C-15 25.05 -15 20.1 -15 15 C-10.05 15 -5.1 15 0 15 C0 10.05 0 5.1 0 0 Z " fill="#FEFEFE" transform="translate(30,60)"/>
<path d="M0 0 C4.95 0 9.9 0 15 0 C15 4.29 15 8.58 15 13 C13.39769531 13.90363281 11.79539062 14.80726562 10.14453125 15.73828125 C8.03383435 16.92965239 5.92315836 18.12106058 3.8125 19.3125 C2.75740234 19.90740234 1.70230469 20.50230469 0.61523438 21.11523438 C-0.40634766 21.69208984 -1.42792969 22.26894531 -2.48046875 22.86328125 C-3.41785889 23.39219971 -4.35524902 23.92111816 -5.32104492 24.46606445 C-7.14094507 25.50811609 -8.94046073 26.58642678 -10.7199707 27.69604492 C-13 29 -13 29 -15 29 C-15 24.38 -15 19.76 -15 15 C-10.05 15 -5.1 15 0 15 C0 10.05 0 5.1 0 0 Z " fill="#EEEEEE" transform="translate(60,45)"/>
<path d="M0 0 C3.92112336 1.56844934 7.30396946 3.19711098 10.95703125 5.2578125 C12.06884766 5.88300781 13.18066406 6.50820313 14.32617188 7.15234375 C15.48831901 7.8098291 16.65042791 8.46738203 17.8125 9.125 C18.99398189 9.79064641 20.175621 10.45601384 21.35742188 11.12109375 C24.23982788 12.74465305 27.12011989 14.37196445 30 16 C30 20.29 30 24.58 30 29 C25.05 29 20.1 29 15 29 C15 24.05 15 19.1 15 14 C10.05 14 5.1 14 0 14 C0 9.38 0 4.76 0 0 Z " fill="#EEEEEE" transform="translate(75,301)"/>
<path d="M0 0 C4.95 0 9.9 0 15 0 C15.77954679 6.40960695 15.77954679 6.40960695 15 10 C13.32568359 11.63085938 13.32568359 11.63085938 11.0859375 12.96875 C10.26843018 13.46842285 9.45092285 13.9680957 8.60864258 14.48291016 C7.74779053 14.9835498 6.88693848 15.48418945 6 16 C5.17846436 16.49677246 4.35692871 16.99354492 3.51049805 17.50537109 C1.04215135 18.98798589 -1.4438014 20.43550026 -3.9375 21.875 C-4.78634766 22.37257813 -5.63519531 22.87015625 -6.50976562 23.3828125 C-7.31994141 23.85203125 -8.13011719 24.32125 -8.96484375 24.8046875 C-9.6930835 25.22733887 -10.42132324 25.64999023 -11.17163086 26.08544922 C-13 27 -13 27 -15 27 C-15 23.04 -15 19.08 -15 15 C-10.05 15 -5.1 15 0 15 C0 10.05 0 5.1 0 0 Z " fill="#FEFEFE" transform="translate(90,30)"/>
<path d="M0 0 C7.25869792 3.49152558 14.25129419 7.22445219 21.1875 11.3125 C21.94216553 11.75706543 22.69683105 12.20163086 23.47436523 12.65966797 C28.85836398 15.85836398 28.85836398 15.85836398 30 17 C30.14257189 20.33618231 30.04228157 23.65975606 30 27 C25.05 27 20.1 27 15 27 C15 22.05 15 17.1 15 12 C10.05 12 5.1 12 0 12 C0 8.04 0 4.08 0 0 Z " fill="#FEFEFE" transform="translate(105,318)"/>
<path d="M0 0 C8.91 0 17.82 0 27 0 C27 4.95 27 9.9 27 15 C31.95 15 36.9 15 42 15 C42 17.97 42 20.94 42 24 C37.8575148 22.73658381 34.30952345 21.19295694 30.5859375 18.98828125 C29.57660156 18.39466797 28.56726563 17.80105469 27.52734375 17.18945312 C26.48707031 16.57005859 25.44679688 15.95066406 24.375 15.3125 C23.35792969 14.71244141 22.34085937 14.11238281 21.29296875 13.49414062 C19.2414025 12.28374254 17.19158809 11.07037013 15.14355469 9.85400391 C10.84824169 7.32071664 6.52055168 4.84422234 2.18994141 2.37182617 C1.46726074 1.91912354 0.74458008 1.4664209 0 1 C0 0.67 0 0.34 0 0 Z " fill="#FEFEFE" transform="translate(288,60)"/>
<path d="M0 0 C4.95 0 9.9 0 15 0 C15 4.95 15 9.9 15 15 C10.05 15 5.1 15 0 15 C0 10.05 0 5.1 0 0 Z " fill="#FFFFFF" transform="translate(345,345)"/>
<path d="M0 0 C4.95 0 9.9 0 15 0 C15 4.95 15 9.9 15 15 C10.05 15 5.1 15 0 15 C0 10.05 0 5.1 0 0 Z " fill="#EFEEEE" transform="translate(330,345)"/>
<path d="M0 0 C4.95 0 9.9 0 15 0 C15 4.95 15 9.9 15 15 C10.05 15 5.1 15 0 15 C0 10.05 0 5.1 0 0 Z " fill="#FFFFFF" transform="translate(315,345)"/>
<path d="M0 0 C4.95 0 9.9 0 15 0 C15 4.95 15 9.9 15 15 C10.05 15 5.1 15 0 15 C0 10.05 0 5.1 0 0 Z " fill="#EFEEEE" transform="translate(300,345)"/>
<path d="M0 0 C4.95 0 9.9 0 15 0 C15 4.95 15 9.9 15 15 C10.05 15 5.1 15 0 15 C0 10.05 0 5.1 0 0 Z " fill="#FFFFFF" transform="translate(285,345)"/>
<path d="M0 0 C4.95 0 9.9 0 15 0 C15 4.95 15 9.9 15 15 C10.05 15 5.1 15 0 15 C0 10.05 0 5.1 0 0 Z " fill="#EFEEEE" transform="translate(270,345)"/>
<path d="M0 0 C4.95 0 9.9 0 15 0 C15 4.95 15 9.9 15 15 C10.05 15 5.1 15 0 15 C0 10.05 0 5.1 0 0 Z " fill="#FFFFFF" transform="translate(255,345)"/>
<path d="M0 0 C4.95 0 9.9 0 15 0 C15 4.95 15 9.9 15 15 C10.05 15 5.1 15 0 15 C0 10.05 0 5.1 0 0 Z " fill="#FFFFFF" transform="translate(225,345)"/>
<path d="M0 0 C4.95 0 9.9 0 15 0 C15 4.95 15 9.9 15 15 C10.05 15 5.1 15 0 15 C0 10.05 0 5.1 0 0 Z " fill="#EFEEEE" transform="translate(210,345)"/>
<path d="M0 0 C4.95 0 9.9 0 15 0 C15 4.95 15 9.9 15 15 C10.05 15 5.1 15 0 15 C0 10.05 0 5.1 0 0 Z " fill="#FFFFFF" transform="translate(135,345)"/>
<path d="M0 0 C4.95 0 9.9 0 15 0 C15 4.95 15 9.9 15 15 C10.05 15 5.1 15 0 15 C0 10.05 0 5.1 0 0 Z " fill="#EFEEEE" transform="translate(120,345)"/>
<path d="M0 0 C4.95 0 9.9 0 15 0 C15 4.95 15 9.9 15 15 C10.05 15 5.1 15 0 15 C0 10.05 0 5.1 0 0 Z " fill="#FFFFFF" transform="translate(105,345)"/>
<path d="M0 0 C4.95 0 9.9 0 15 0 C15 4.95 15 9.9 15 15 C10.05 15 5.1 15 0 15 C0 10.05 0 5.1 0 0 Z " fill="#EFEEEE" transform="translate(90,345)"/>
<path d="M0 0 C4.95 0 9.9 0 15 0 C15 4.95 15 9.9 15 15 C10.05 15 5.1 15 0 15 C0 10.05 0 5.1 0 0 Z " fill="#FFFFFF" transform="translate(75,345)"/>
<path d="M0 0 C4.95 0 9.9 0 15 0 C15 4.95 15 9.9 15 15 C10.05 15 5.1 15 0 15 C0 10.05 0 5.1 0 0 Z " fill="#EFEEEE" transform="translate(60,345)"/>
<path d="M0 0 C4.95 0 9.9 0 15 0 C15 4.95 15 9.9 15 15 C10.05 15 5.1 15 0 15 C0 10.05 0 5.1 0 0 Z " fill="#FFFFFF" transform="translate(45,345)"/>
<path d="M0 0 C4.95 0 9.9 0 15 0 C15 4.95 15 9.9 15 15 C10.05 15 5.1 15 0 15 C0 10.05 0 5.1 0 0 Z " fill="#EFEEEE" transform="translate(30,345)"/>
<path d="M0 0 C4.95 0 9.9 0 15 0 C15 4.95 15 9.9 15 15 C10.05 15 5.1 15 0 15 C0 10.05 0 5.1 0 0 Z " fill="#FFFFFF" transform="translate(15,345)"/>
<path d="M0 0 C4.95 0 9.9 0 15 0 C15 4.95 15 9.9 15 15 C10.05 15 5.1 15 0 15 C0 10.05 0 5.1 0 0 Z " fill="#EFEEEE" transform="translate(0,345)"/>
<path d="M0 0 C4.95 0 9.9 0 15 0 C15 4.95 15 9.9 15 15 C10.05 15 5.1 15 0 15 C0 10.05 0 5.1 0 0 Z " fill="#EFEEEE" transform="translate(345,330)"/>
<path d="M0 0 C4.95 0 9.9 0 15 0 C15 4.95 15 9.9 15 15 C10.05 15 5.1 15 0 15 C0 10.05 0 5.1 0 0 Z " fill="#FFFFFF" transform="translate(330,330)"/>
<path d="M0 0 C4.95 0 9.9 0 15 0 C15 4.95 15 9.9 15 15 C10.05 15 5.1 15 0 15 C0 10.05 0 5.1 0 0 Z " fill="#EFEEEE" transform="translate(315,330)"/>
<path d="M0 0 C4.95 0 9.9 0 15 0 C15 4.95 15 9.9 15 15 C10.05 15 5.1 15 0 15 C0 10.05 0 5.1 0 0 Z " fill="#FFFFFF" transform="translate(300,330)"/>
<path d="M0 0 C4.95 0 9.9 0 15 0 C15 4.95 15 9.9 15 15 C10.05 15 5.1 15 0 15 C0 10.05 0 5.1 0 0 Z " fill="#EFEEEE" transform="translate(285,330)"/>
<path d="M0 0 C4.95 0 9.9 0 15 0 C15 4.95 15 9.9 15 15 C10.05 15 5.1 15 0 15 C0 10.05 0 5.1 0 0 Z " fill="#FFFFFF" transform="translate(270,330)"/>
<path d="M0 0 C4.95 0 9.9 0 15 0 C15 4.95 15 9.9 15 15 C10.05 15 5.1 15 0 15 C0 10.05 0 5.1 0 0 Z " fill="#EFEEEE" transform="translate(255,330)"/>
<path d="M0 0 C4.95 0 9.9 0 15 0 C15 4.95 15 9.9 15 15 C10.05 15 5.1 15 0 15 C0 10.05 0 5.1 0 0 Z " fill="#FFFFFF" transform="translate(240,330)"/>
<path d="M0 0 C4.95 0 9.9 0 15 0 C15 4.95 15 9.9 15 15 C10.05 15 5.1 15 0 15 C0 10.05 0 5.1 0 0 Z " fill="#EFEEEE" transform="translate(105,330)"/>
<path d="M0 0 C4.95 0 9.9 0 15 0 C15 4.95 15 9.9 15 15 C10.05 15 5.1 15 0 15 C0 10.05 0 5.1 0 0 Z " fill="#FFFFFF" transform="translate(90,330)"/>
<path d="M0 0 C4.95 0 9.9 0 15 0 C15 4.95 15 9.9 15 15 C10.05 15 5.1 15 0 15 C0 10.05 0 5.1 0 0 Z " fill="#EFEEEE" transform="translate(75,330)"/>
<path d="M0 0 C4.95 0 9.9 0 15 0 C15 4.95 15 9.9 15 15 C10.05 15 5.1 15 0 15 C0 10.05 0 5.1 0 0 Z " fill="#FFFFFF" transform="translate(60,330)"/>
<path d="M0 0 C4.95 0 9.9 0 15 0 C15 4.95 15 9.9 15 15 C10.05 15 5.1 15 0 15 C0 10.05 0 5.1 0 0 Z " fill="#EFEEEE" transform="translate(45,330)"/>
<path d="M0 0 C4.95 0 9.9 0 15 0 C15 4.95 15 9.9 15 15 C10.05 15 5.1 15 0 15 C0 10.05 0 5.1 0 0 Z " fill="#FFFFFF" transform="translate(30,330)"/>
<path d="M0 0 C4.95 0 9.9 0 15 0 C15 4.95 15 9.9 15 15 C10.05 15 5.1 15 0 15 C0 10.05 0 5.1 0 0 Z " fill="#EFEEEE" transform="translate(15,330)"/>
<path d="M0 0 C4.95 0 9.9 0 15 0 C15 4.95 15 9.9 15 15 C10.05 15 5.1 15 0 15 C0 10.05 0 5.1 0 0 Z " fill="#FFFFFF" transform="translate(0,330)"/>
<path d="M0 0 C4.95 0 9.9 0 15 0 C15 4.95 15 9.9 15 15 C10.05 15 5.1 15 0 15 C0 10.05 0 5.1 0 0 Z " fill="#FFFFFF" transform="translate(345,315)"/>
<path d="M0 0 C4.95 0 9.9 0 15 0 C15 4.95 15 9.9 15 15 C10.05 15 5.1 15 0 15 C0 10.05 0 5.1 0 0 Z " fill="#FFFFFF" transform="translate(315,315)"/>
<path d="M0 0 C4.95 0 9.9 0 15 0 C15 4.95 15 9.9 15 15 C10.05 15 5.1 15 0 15 C0 10.05 0 5.1 0 0 Z " fill="#EFEEEE" transform="translate(300,315)"/>
<path d="M0 0 C4.95 0 9.9 0 15 0 C15 4.95 15 9.9 15 15 C10.05 15 5.1 15 0 15 C0 10.05 0 5.1 0 0 Z " fill="#FFFFFF" transform="translate(285,315)"/>
<path d="M0 0 C4.95 0 9.9 0 15 0 C15 4.95 15 9.9 15 15 C10.05 15 5.1 15 0 15 C0 10.05 0 5.1 0 0 Z " fill="#EFEEEE" transform="translate(270,315)"/>
<path d="M0 0 C4.95 0 9.9 0 15 0 C15 4.95 15 9.9 15 15 C10.05 15 5.1 15 0 15 C0 10.05 0 5.1 0 0 Z " fill="#FFFFFF" transform="translate(75,315)"/>
<path d="M0 0 C4.95 0 9.9 0 15 0 C15 4.95 15 9.9 15 15 C10.05 15 5.1 15 0 15 C0 10.05 0 5.1 0 0 Z " fill="#EFEEEE" transform="translate(60,315)"/>
<path d="M0 0 C4.95 0 9.9 0 15 0 C15 4.95 15 9.9 15 15 C10.05 15 5.1 15 0 15 C0 10.05 0 5.1 0 0 Z " fill="#FFFFFF" transform="translate(45,315)"/>
<path d="M0 0 C4.95 0 9.9 0 15 0 C15 4.95 15 9.9 15 15 C10.05 15 5.1 15 0 15 C0 10.05 0 5.1 0 0 Z " fill="#EFEEEE" transform="translate(30,315)"/>
<path d="M0 0 C4.95 0 9.9 0 15 0 C15 4.95 15 9.9 15 15 C10.05 15 5.1 15 0 15 C0 10.05 0 5.1 0 0 Z " fill="#FFFFFF" transform="translate(15,315)"/>
<path d="M0 0 C4.95 0 9.9 0 15 0 C15 4.95 15 9.9 15 15 C10.05 15 5.1 15 0 15 C0 10.05 0 5.1 0 0 Z " fill="#EFEEEE" transform="translate(0,315)"/>
<path d="M0 0 C4.95 0 9.9 0 15 0 C15 4.95 15 9.9 15 15 C10.05 15 5.1 15 0 15 C0 10.05 0 5.1 0 0 Z " fill="#EFEEEE" transform="translate(345,300)"/>
<path d="M0 0 C4.95 0 9.9 0 15 0 C15 4.95 15 9.9 15 15 C10.05 15 5.1 15 0 15 C0 10.05 0 5.1 0 0 Z " fill="#FFFFFF" transform="translate(330,300)"/>
<path d="M0 0 C4.95 0 9.9 0 15 0 C15 4.95 15 9.9 15 15 C10.05 15 5.1 15 0 15 C0 10.05 0 5.1 0 0 Z " fill="#FFFFFF" transform="translate(300,300)"/>
<path d="M0 0 C4.95 0 9.9 0 15 0 C15 4.95 15 9.9 15 15 C10.05 15 5.1 15 0 15 C0 10.05 0 5.1 0 0 Z " fill="#EFEEEE" transform="translate(285,300)"/>
<path d="M0 0 C4.95 0 9.9 0 15 0 C15 4.95 15 9.9 15 15 C10.05 15 5.1 15 0 15 C0 10.05 0 5.1 0 0 Z " fill="#EFEEEE" transform="translate(45,300)"/>
<path d="M0 0 C4.95 0 9.9 0 15 0 C15 4.95 15 9.9 15 15 C10.05 15 5.1 15 0 15 C0 10.05 0 5.1 0 0 Z " fill="#FFFFFF" transform="translate(30,300)"/>
<path d="M0 0 C4.95 0 9.9 0 15 0 C15 4.95 15 9.9 15 15 C10.05 15 5.1 15 0 15 C0 10.05 0 5.1 0 0 Z " fill="#EFEEEE" transform="translate(15,300)"/>
<path d="M0 0 C4.95 0 9.9 0 15 0 C15 4.95 15 9.9 15 15 C10.05 15 5.1 15 0 15 C0 10.05 0 5.1 0 0 Z " fill="#FFFFFF" transform="translate(0,300)"/>
<path d="M0 0 C4.95 0 9.9 0 15 0 C15 4.95 15 9.9 15 15 C10.05 15 5.1 15 0 15 C0 10.05 0 5.1 0 0 Z " fill="#FFFFFF" transform="translate(345,285)"/>
<path d="M0 0 C4.95 0 9.9 0 15 0 C15 4.95 15 9.9 15 15 C10.05 15 5.1 15 0 15 C0 10.05 0 5.1 0 0 Z " fill="#EFEEEE" transform="translate(330,285)"/>
<path d="M0 0 C4.95 0 9.9 0 15 0 C15 4.95 15 9.9 15 15 C10.05 15 5.1 15 0 15 C0 10.05 0 5.1 0 0 Z " fill="#FFFFFF" transform="translate(315,285)"/>
<path d="M0 0 C4.95 0 9.9 0 15 0 C15 4.95 15 9.9 15 15 C10.05 15 5.1 15 0 15 C0 10.05 0 5.1 0 0 Z " fill="#EFEEEE" transform="translate(30,285)"/>
<path d="M0 0 C4.95 0 9.9 0 15 0 C15 4.95 15 9.9 15 15 C10.05 15 5.1 15 0 15 C0 10.05 0 5.1 0 0 Z " fill="#FFFFFF" transform="translate(15,285)"/>
<path d="M0 0 C4.95 0 9.9 0 15 0 C15 4.95 15 9.9 15 15 C10.05 15 5.1 15 0 15 C0 10.05 0 5.1 0 0 Z " fill="#EFEEEE" transform="translate(0,285)"/>
<path d="M0 0 C4.95 0 9.9 0 15 0 C15 4.95 15 9.9 15 15 C10.05 15 5.1 15 0 15 C0 10.05 0 5.1 0 0 Z " fill="#EFEEEE" transform="translate(345,270)"/>
<path d="M0 0 C0.33 0 0.66 0 1 0 C0.99097656 1.18078125 0.98195313 2.3615625 0.97265625 3.578125 C1.00080068 5.1354503 1.03084842 6.69274203 1.0625 8.25 C1.05154297 9.02730469 1.04058594 9.80460937 1.02929688 10.60546875 C1.09896281 12.9343014 1.23108284 14.79670283 2 17 C4.23794997 18.98779046 6.19253462 19.81455491 9 21 C9 24.63 9 28.26 9 32 C4.05 32 -0.9 32 -6 32 C-6 27.05 -6 22.1 -6 17 C-4.02 17 -2.04 17 0 17 C0 11.39 0 5.78 0 0 Z " fill="#EEEEEE" transform="translate(21,253)"/>
<path d="M0 0 C4.95 0 9.9 0 15 0 C15 4.95 15 9.9 15 15 C10.05 15 5.1 15 0 15 C0 10.05 0 5.1 0 0 Z " fill="#FFFFFF" transform="translate(0,270)"/>
<path d="M0 0 C4.95 0 9.9 0 15 0 C15 4.95 15 9.9 15 15 C10.05 15 5.1 15 0 15 C0 10.05 0 5.1 0 0 Z " fill="#FFFFFF" transform="translate(345,255)"/>
<path d="M0 0 C4.95 0 9.9 0 15 0 C15 4.95 15 9.9 15 15 C10.05 15 5.1 15 0 15 C0 10.05 0 5.1 0 0 Z " fill="#EFEEEE" transform="translate(0,255)"/>
<path d="M0 0 C4.95 0 9.9 0 15 0 C15 4.95 15 9.9 15 15 C10.05 15 5.1 15 0 15 C0 10.05 0 5.1 0 0 Z " fill="#EFEEEE" transform="translate(345,240)"/>
<path d="M0 0 C4.95 0 9.9 0 15 0 C15 4.95 15 9.9 15 15 C10.05 15 5.1 15 0 15 C0 10.05 0 5.1 0 0 Z " fill="#FFFFFF" transform="translate(0,240)"/>
<path d="M0 0 C4.95 0 9.9 0 15 0 C15 4.95 15 9.9 15 15 C10.05 15 5.1 15 0 15 C0 10.05 0 5.1 0 0 Z " fill="#FFFFFF" transform="translate(345,225)"/>
<path d="M0 0 C4.95 0 9.9 0 15 0 C15 4.95 15 9.9 15 15 C10.05 15 5.1 15 0 15 C0 10.05 0 5.1 0 0 Z " fill="#EFEEEE" transform="translate(345,210)"/>
<path d="M0 0 C4.95 0 9.9 0 15 0 C15 4.95 15 9.9 15 15 C10.05 15 5.1 15 0 15 C0 10.05 0 5.1 0 0 Z " fill="#FFFFFF" transform="translate(0,210)"/>
<path d="M0 0 C4.95 0 9.9 0 15 0 C15 4.95 15 9.9 15 15 C10.05 15 5.1 15 0 15 C0 10.05 0 5.1 0 0 Z " fill="#FFFFFF" transform="translate(345,195)"/>
<path d="M0 0 C4.95 0 9.9 0 15 0 C15 4.95 15 9.9 15 15 C10.05 15 5.1 15 0 15 C0 10.05 0 5.1 0 0 Z " fill="#EFEEEE" transform="translate(345,180)"/>
<path d="M0 0 C4.95 0 9.9 0 15 0 C15 4.95 15 9.9 15 15 C10.05 15 5.1 15 0 15 C0 10.05 0 5.1 0 0 Z " fill="#FFFFFF" transform="translate(0,180)"/>
<path d="M0 0 C4.95 0 9.9 0 15 0 C15 4.95 15 9.9 15 15 C10.05 15 5.1 15 0 15 C0 10.05 0 5.1 0 0 Z " fill="#FFFFFF" transform="translate(345,165)"/>
<path d="M0 0 C4.95 0 9.9 0 15 0 C15 4.95 15 9.9 15 15 C10.05 15 5.1 15 0 15 C0 10.05 0 5.1 0 0 Z " fill="#EFEEEE" transform="translate(345,150)"/>
<path d="M0 0 C4.95 0 9.9 0 15 0 C15 4.95 15 9.9 15 15 C10.05 15 5.1 15 0 15 C0 10.05 0 5.1 0 0 Z " fill="#FFFFFF" transform="translate(0,150)"/>
<path d="M0 0 C4.95 0 9.9 0 15 0 C15 4.95 15 9.9 15 15 C10.05 15 5.1 15 0 15 C0 10.05 0 5.1 0 0 Z " fill="#FFFFFF" transform="translate(345,135)"/>
<path d="M0 0 C4.95 0 9.9 0 15 0 C15 4.95 15 9.9 15 15 C10.05 15 5.1 15 0 15 C0 10.05 0 5.1 0 0 Z " fill="#EFEEEE" transform="translate(345,120)"/>
<path d="M0 0 C4.95 0 9.9 0 15 0 C15 4.95 15 9.9 15 15 C10.05 15 5.1 15 0 15 C0 10.05 0 5.1 0 0 Z " fill="#FFFFFF" transform="translate(0,120)"/>
<path d="M0 0 C4.95 0 9.9 0 15 0 C15 4.95 15 9.9 15 15 C10.05 15 5.1 15 0 15 C0 10.05 0 5.1 0 0 Z " fill="#FFFFFF" transform="translate(345,105)"/>
<path d="M0 0 C4.95 0 9.9 0 15 0 C15 4.95 15 9.9 15 15 C10.05 15 5.1 15 0 15 C0 10.05 0 5.1 0 0 Z " fill="#FFFFFF" transform="translate(0,90)"/>
<path d="M0 0 C4.95 0 9.9 0 15 0 C15 4.95 15 9.9 15 15 C10.05 15 5.1 15 0 15 C0 10.05 0 5.1 0 0 Z " fill="#FFFFFF" transform="translate(345,75)"/>
<path d="M0 0 C4.95 0 9.9 0 15 0 C15 4.95 15 9.9 15 15 C10.05 15 5.1 15 0 15 C0 10.05 0 5.1 0 0 Z " fill="#EFEEEE" transform="translate(0,75)"/>
<path d="M0 0 C4.95 0 9.9 0 15 0 C15 4.95 15 9.9 15 15 C10.05 15 5.1 15 0 15 C0 10.05 0 5.1 0 0 Z " fill="#EFEEEE" transform="translate(345,60)"/>
<path d="M0 0 C4.95 0 9.9 0 15 0 C15 4.95 15 9.9 15 15 C10.05 15 5.1 15 0 15 C0 10.05 0 5.1 0 0 Z " fill="#FFFFFF" transform="translate(330,60)"/>
<path d="M0 0 C4.95 0 9.9 0 15 0 C15 4.95 15 9.9 15 15 C10.05 15 5.1 15 0 15 C0 10.05 0 5.1 0 0 Z " fill="#EFEEEE" transform="translate(315,60)"/>
<path d="M0 0 C4.95 0 9.9 0 15 0 C15 4.95 15 9.9 15 15 C10.05 15 5.1 15 0 15 C0 10.05 0 5.1 0 0 Z " fill="#EFEEEE" transform="translate(15,60)"/>
<path d="M0 0 C4.95 0 9.9 0 15 0 C15 4.95 15 9.9 15 15 C10.05 15 5.1 15 0 15 C0 10.05 0 5.1 0 0 Z " fill="#FFFFFF" transform="translate(0,60)"/>
<path d="M0 0 C4.95 0 9.9 0 15 0 C15 4.95 15 9.9 15 15 C10.05 15 5.1 15 0 15 C0 10.05 0 5.1 0 0 Z " fill="#FFFFFF" transform="translate(345,45)"/>
<path d="M0 0 C4.95 0 9.9 0 15 0 C15 4.95 15 9.9 15 15 C10.05 15 5.1 15 0 15 C0 10.05 0 5.1 0 0 Z " fill="#EFEEEE" transform="translate(330,45)"/>
<path d="M0 0 C4.95 0 9.9 0 15 0 C15 4.95 15 9.9 15 15 C10.05 15 5.1 15 0 15 C0 10.05 0 5.1 0 0 Z " fill="#FFFFFF" transform="translate(315,45)"/>
<path d="M0 0 C4.95 0 9.9 0 15 0 C15 4.95 15 9.9 15 15 C10.05 15 5.1 15 0 15 C0 10.05 0 5.1 0 0 Z " fill="#FFFFFF" transform="translate(45,45)"/>
<path d="M0 0 C4.95 0 9.9 0 15 0 C15 4.95 15 9.9 15 15 C10.05 15 5.1 15 0 15 C0 10.05 0 5.1 0 0 Z " fill="#EFEEEE" transform="translate(30,45)"/>
<path d="M0 0 C4.95 0 9.9 0 15 0 C15 4.95 15 9.9 15 15 C10.05 15 5.1 15 0 15 C0 10.05 0 5.1 0 0 Z " fill="#FFFFFF" transform="translate(15,45)"/>
<path d="M0 0 C4.95 0 9.9 0 15 0 C15 4.95 15 9.9 15 15 C10.05 15 5.1 15 0 15 C0 10.05 0 5.1 0 0 Z " fill="#EFEEEE" transform="translate(0,45)"/>
<path d="M0 0 C4.95 0 9.9 0 15 0 C15 4.95 15 9.9 15 15 C10.05 15 5.1 15 0 15 C0 10.05 0 5.1 0 0 Z " fill="#EFEEEE" transform="translate(345,30)"/>
<path d="M0 0 C4.95 0 9.9 0 15 0 C15 4.95 15 9.9 15 15 C10.05 15 5.1 15 0 15 C0 10.05 0 5.1 0 0 Z " fill="#FFFFFF" transform="translate(330,30)"/>
<path d="M0 0 C4.95 0 9.9 0 15 0 C15 4.95 15 9.9 15 15 C10.05 15 5.1 15 0 15 C0 10.05 0 5.1 0 0 Z " fill="#EFEEEE" transform="translate(315,30)"/>
<path d="M0 0 C4.95 0 9.9 0 15 0 C15 4.95 15 9.9 15 15 C10.05 15 5.1 15 0 15 C0 10.05 0 5.1 0 0 Z " fill="#FFFFFF" transform="translate(300,30)"/>
<path d="M0 0 C4.95 0 9.9 0 15 0 C15 4.95 15 9.9 15 15 C10.05 15 5.1 15 0 15 C0 10.05 0 5.1 0 0 Z " fill="#EFEEEE" transform="translate(285,30)"/>
<path d="M0 0 C4.95 0 9.9 0 15 0 C15 4.95 15 9.9 15 15 C10.05 15 5.1 15 0 15 C0 10.05 0 5.1 0 0 Z " fill="#FFFFFF" transform="translate(270,30)"/>
<path d="M0 0 C4.95 0 9.9 0 15 0 C15 4.95 15 9.9 15 15 C10.05 15 5.1 15 0 15 C0 10.05 0 5.1 0 0 Z " fill="#EFEEEE" transform="translate(75,30)"/>
<path d="M0 0 C4.95 0 9.9 0 15 0 C15 4.95 15 9.9 15 15 C10.05 15 5.1 15 0 15 C0 10.05 0 5.1 0 0 Z " fill="#FFFFFF" transform="translate(60,30)"/>
<path d="M0 0 C4.95 0 9.9 0 15 0 C15 4.95 15 9.9 15 15 C10.05 15 5.1 15 0 15 C0 10.05 0 5.1 0 0 Z " fill="#EFEEEE" transform="translate(45,30)"/>
<path d="M0 0 C4.95 0 9.9 0 15 0 C15 4.95 15 9.9 15 15 C10.05 15 5.1 15 0 15 C0 10.05 0 5.1 0 0 Z " fill="#FFFFFF" transform="translate(30,30)"/>
<path d="M0 0 C4.95 0 9.9 0 15 0 C15 4.95 15 9.9 15 15 C10.05 15 5.1 15 0 15 C0 10.05 0 5.1 0 0 Z " fill="#EFEEEE" transform="translate(15,30)"/>
<path d="M0 0 C4.95 0 9.9 0 15 0 C15 4.95 15 9.9 15 15 C10.05 15 5.1 15 0 15 C0 10.05 0 5.1 0 0 Z " fill="#FFFFFF" transform="translate(0,30)"/>
<path d="M0 0 C4.95 0 9.9 0 15 0 C15 4.95 15 9.9 15 15 C10.05 15 5.1 15 0 15 C0 10.05 0 5.1 0 0 Z " fill="#FFFFFF" transform="translate(345,15)"/>
<path d="M0 0 C4.95 0 9.9 0 15 0 C15 4.95 15 9.9 15 15 C10.05 15 5.1 15 0 15 C0 10.05 0 5.1 0 0 Z " fill="#EFEEEE" transform="translate(330,15)"/>
<path d="M0 0 C4.95 0 9.9 0 15 0 C15 4.95 15 9.9 15 15 C10.05 15 5.1 15 0 15 C0 10.05 0 5.1 0 0 Z " fill="#FFFFFF" transform="translate(315,15)"/>
<path d="M0 0 C4.95 0 9.9 0 15 0 C15 4.95 15 9.9 15 15 C10.05 15 5.1 15 0 15 C0 10.05 0 5.1 0 0 Z " fill="#EFEEEE" transform="translate(300,15)"/>
<path d="M0 0 C4.95 0 9.9 0 15 0 C15 4.95 15 9.9 15 15 C10.05 15 5.1 15 0 15 C0 10.05 0 5.1 0 0 Z " fill="#FFFFFF" transform="translate(285,15)"/>
<path d="M0 0 C4.95 0 9.9 0 15 0 C15 4.95 15 9.9 15 15 C10.05 15 5.1 15 0 15 C0 10.05 0 5.1 0 0 Z " fill="#EFEEEE" transform="translate(270,15)"/>
<path d="M0 0 C4.95 0 9.9 0 15 0 C15 4.95 15 9.9 15 15 C10.05 15 5.1 15 0 15 C0 10.05 0 5.1 0 0 Z " fill="#FFFFFF" transform="translate(255,15)"/>
<path d="M0 0 C4.95 0 9.9 0 15 0 C15 4.95 15 9.9 15 15 C10.05 15 5.1 15 0 15 C0 10.05 0 5.1 0 0 Z " fill="#EFEEEE" transform="translate(240,15)"/>
<path d="M0 0 C4.95 0 9.9 0 15 0 C15 4.95 15 9.9 15 15 C10.05 15 5.1 15 0 15 C0 10.05 0 5.1 0 0 Z " fill="#FFFFFF" transform="translate(105,15)"/>
<path d="M0 0 C4.95 0 9.9 0 15 0 C15 4.95 15 9.9 15 15 C10.05 15 5.1 15 0 15 C0 10.05 0 5.1 0 0 Z " fill="#EFEEEE" transform="translate(90,15)"/>
<path d="M0 0 C4.95 0 9.9 0 15 0 C15 4.95 15 9.9 15 15 C10.05 15 5.1 15 0 15 C0 10.05 0 5.1 0 0 Z " fill="#FFFFFF" transform="translate(75,15)"/>
<path d="M0 0 C4.95 0 9.9 0 15 0 C15 4.95 15 9.9 15 15 C10.05 15 5.1 15 0 15 C0 10.05 0 5.1 0 0 Z " fill="#EFEEEE" transform="translate(60,15)"/>
<path d="M0 0 C4.95 0 9.9 0 15 0 C15 4.95 15 9.9 15 15 C10.05 15 5.1 15 0 15 C0 10.05 0 5.1 0 0 Z " fill="#FFFFFF" transform="translate(45,15)"/>
<path d="M0 0 C4.95 0 9.9 0 15 0 C15 4.95 15 9.9 15 15 C10.05 15 5.1 15 0 15 C0 10.05 0 5.1 0 0 Z " fill="#EFEEEE" transform="translate(30,15)"/>
<path d="M0 0 C4.95 0 9.9 0 15 0 C15 4.95 15 9.9 15 15 C10.05 15 5.1 15 0 15 C0 10.05 0 5.1 0 0 Z " fill="#FFFFFF" transform="translate(15,15)"/>
<path d="M0 0 C4.95 0 9.9 0 15 0 C15 4.95 15 9.9 15 15 C10.05 15 5.1 15 0 15 C0 10.05 0 5.1 0 0 Z " fill="#EFEEEE" transform="translate(0,15)"/>
<path d="M0 0 C4.95 0 9.9 0 15 0 C15 4.95 15 9.9 15 15 C10.05 15 5.1 15 0 15 C0 10.05 0 5.1 0 0 Z " fill="#EFEEEE" transform="translate(345,0)"/>
<path d="M0 0 C4.95 0 9.9 0 15 0 C15 4.95 15 9.9 15 15 C10.05 15 5.1 15 0 15 C0 10.05 0 5.1 0 0 Z " fill="#FFFFFF" transform="translate(330,0)"/>
<path d="M0 0 C4.95 0 9.9 0 15 0 C15 4.95 15 9.9 15 15 C10.05 15 5.1 15 0 15 C0 10.05 0 5.1 0 0 Z " fill="#EFEEEE" transform="translate(315,0)"/>
<path d="M0 0 C4.95 0 9.9 0 15 0 C15 4.95 15 9.9 15 15 C10.05 15 5.1 15 0 15 C0 10.05 0 5.1 0 0 Z " fill="#FFFFFF" transform="translate(300,0)"/>
<path d="M0 0 C4.95 0 9.9 0 15 0 C15 4.95 15 9.9 15 15 C10.05 15 5.1 15 0 15 C0 10.05 0 5.1 0 0 Z " fill="#EFEEEE" transform="translate(285,0)"/>
<path d="M0 0 C4.95 0 9.9 0 15 0 C15 4.95 15 9.9 15 15 C10.05 15 5.1 15 0 15 C0 10.05 0 5.1 0 0 Z " fill="#FFFFFF" transform="translate(270,0)"/>
<path d="M0 0 C4.95 0 9.9 0 15 0 C15 4.95 15 9.9 15 15 C10.05 15 5.1 15 0 15 C0 10.05 0 5.1 0 0 Z " fill="#EFEEEE" transform="translate(255,0)"/>
<path d="M0 0 C4.95 0 9.9 0 15 0 C15 4.95 15 9.9 15 15 C10.05 15 5.1 15 0 15 C0 10.05 0 5.1 0 0 Z " fill="#FFFFFF" transform="translate(240,0)"/>
<path d="M0 0 C4.95 0 9.9 0 15 0 C15 4.95 15 9.9 15 15 C10.05 15 5.1 15 0 15 C0 10.05 0 5.1 0 0 Z " fill="#EFEEEE" transform="translate(225,0)"/>
<path d="M0 0 C4.95 0 9.9 0 15 0 C15 4.95 15 9.9 15 15 C10.05 15 5.1 15 0 15 C0 10.05 0 5.1 0 0 Z " fill="#FFFFFF" transform="translate(120,0)"/>
<path d="M0 0 C4.95 0 9.9 0 15 0 C15 4.95 15 9.9 15 15 C10.05 15 5.1 15 0 15 C0 10.05 0 5.1 0 0 Z " fill="#EFEEEE" transform="translate(105,0)"/>
<path d="M0 0 C4.95 0 9.9 0 15 0 C15 4.95 15 9.9 15 15 C10.05 15 5.1 15 0 15 C0 10.05 0 5.1 0 0 Z " fill="#FFFFFF" transform="translate(90,0)"/>
<path d="M0 0 C4.95 0 9.9 0 15 0 C15 4.95 15 9.9 15 15 C10.05 15 5.1 15 0 15 C0 10.05 0 5.1 0 0 Z " fill="#EFEEEE" transform="translate(75,0)"/>
<path d="M0 0 C4.95 0 9.9 0 15 0 C15 4.95 15 9.9 15 15 C10.05 15 5.1 15 0 15 C0 10.05 0 5.1 0 0 Z " fill="#FFFFFF" transform="translate(60,0)"/>
<path d="M0 0 C4.95 0 9.9 0 15 0 C15 4.95 15 9.9 15 15 C10.05 15 5.1 15 0 15 C0 10.05 0 5.1 0 0 Z " fill="#EFEEEE" transform="translate(45,0)"/>
<path d="M0 0 C4.95 0 9.9 0 15 0 C15 4.95 15 9.9 15 15 C10.05 15 5.1 15 0 15 C0 10.05 0 5.1 0 0 Z " fill="#FFFFFF" transform="translate(30,0)"/>
<path d="M0 0 C4.95 0 9.9 0 15 0 C15 4.95 15 9.9 15 15 C10.05 15 5.1 15 0 15 C0 10.05 0 5.1 0 0 Z " fill="#FFFFFF" transform="translate(0,0)"/>
<path d="M0 0 C0 4.95 0 9.9 0 15 C-4.95 15 -9.9 15 -15 15 C-15.49216483 3.55716773 -15.49216483 3.55716773 -13.34375 1.125 C-9.03722468 -0.94213215 -4.69941622 -0.16783629 0 0 Z " fill="#FEFEFE" transform="translate(345,270)"/>
<path d="M0 0 C4.95 0 9.9 0 15 0 C15 4.95 15 9.9 15 15 C4.01273885 15.43949045 4.01273885 15.43949045 0 12 C-0.68298728 7.91846799 -0.22379753 4.16263407 0 0 Z " fill="#EEEEEE" transform="translate(255,30)"/>
<path d="M0 0 C8.58 0 17.16 0 26 0 C26 4.95 26 9.9 26 15 C21.02574063 13.01029625 16.54311554 10.65881145 11.875 8.0625 C11.06417969 7.61970703 10.25335938 7.17691406 9.41796875 6.72070312 C8.63808594 6.28822266 7.85820312 5.85574219 7.0546875 5.41015625 C6.34812012 5.01965088 5.64155273 4.62914551 4.91357422 4.22680664 C3 3 3 3 0 0 Z " fill="#EEEEEF" transform="translate(184,0)"/>
<path d="M0 0 C4.95 0 9.9 0 15 0 C15 4.95 15 9.9 15 15 C13.576875 15.061875 12.15375 15.12375 10.6875 15.1875 C9.48673828 15.23970703 9.48673828 15.23970703 8.26171875 15.29296875 C5.48038073 14.9326918 4.79565521 14.07671429 3 12 C2.2575 11.62875 1.515 11.2575 0.75 10.875 C-1 9 -1 9 -1.03125 6.80859375 C-0.77423789 4.5276113 -0.39329933 2.26147116 0 0 Z " fill="#EEEEEE" transform="translate(330,75)"/>
<path d="M0 0 C7.92 0 15.84 0 24 0 C21.15732994 2.13200254 18.53340221 3.93585083 15.48828125 5.69921875 C14.64845703 6.18583984 13.80863281 6.67246094 12.94335938 7.17382812 C11.64108398 7.9230957 11.64108398 7.9230957 10.3125 8.6875 C9.43271484 9.19861328 8.55292969 9.70972656 7.64648438 10.23632812 C1.12915137 14 1.12915137 14 0 14 C0 9.38 0 4.76 0 0 Z " fill="#FEFEFE" transform="translate(150,0)"/>
<path d="M0 0 C4.2692961 1.4230987 7.20454749 2.45133277 10.875 4.75 C11.65617188 5.21921875 12.43734375 5.6884375 13.2421875 6.171875 C15 8 15 8 15 14 C10.05 14 5.1 14 0 14 C0 9.38 0 4.76 0 0 Z " fill="#EFEEEE" transform="translate(150,346)"/>
<path d="M0 0 C2.97 0 5.94 0 9 0 C9 4.95 9 9.9 9 15 C6.03 15 3.06 15 0 15 C0 10.05 0 5.1 0 0 Z " fill="#EEEEEF" transform="translate(336,255)"/>
<path d="M0 0 C2.97 0 5.94 0 9 0 C9 4.95 9 9.9 9 15 C6.03 15 3.06 15 0 15 C0 10.05 0 5.1 0 0 Z " fill="#FFFFFF" transform="translate(336,240)"/>
<path d="M0 0 C2.97 0 5.94 0 9 0 C9 4.95 9 9.9 9 15 C6.03 15 3.06 15 0 15 C0 10.05 0 5.1 0 0 Z " fill="#EEEEEF" transform="translate(336,225)"/>
<path d="M0 0 C2.97 0 5.94 0 9 0 C9 4.95 9 9.9 9 15 C6.03 15 3.06 15 0 15 C0 10.05 0 5.1 0 0 Z " fill="#FFFFFF" transform="translate(336,210)"/>
<path d="M0 0 C2.97 0 5.94 0 9 0 C9 4.95 9 9.9 9 15 C6.03 15 3.06 15 0 15 C0 10.05 0 5.1 0 0 Z " fill="#EEEEEF" transform="translate(336,195)"/>
<path d="M0 0 C2.97 0 5.94 0 9 0 C9 4.95 9 9.9 9 15 C6.03 15 3.06 15 0 15 C0 10.05 0 5.1 0 0 Z " fill="#FFFFFF" transform="translate(336,180)"/>
<path d="M0 0 C2.97 0 5.94 0 9 0 C9 4.95 9 9.9 9 15 C6.03 15 3.06 15 0 15 C0 10.05 0 5.1 0 0 Z " fill="#EEEEEF" transform="translate(336,165)"/>
<path d="M0 0 C2.97 0 5.94 0 9 0 C9 4.95 9 9.9 9 15 C6.03 15 3.06 15 0 15 C0 10.05 0 5.1 0 0 Z " fill="#FFFFFF" transform="translate(336,150)"/>
<path d="M0 0 C2.97 0 5.94 0 9 0 C9 4.95 9 9.9 9 15 C6.03 15 3.06 15 0 15 C0 10.05 0 5.1 0 0 Z " fill="#EEEEEF" transform="translate(336,135)"/>
<path d="M0 0 C2.97 0 5.94 0 9 0 C9 4.95 9 9.9 9 15 C6.03 15 3.06 15 0 15 C0 10.05 0 5.1 0 0 Z " fill="#FFFFFF" transform="translate(336,120)"/>
<path d="M0 0 C2.97 0 5.94 0 9 0 C9 4.95 9 9.9 9 15 C6.03 15 3.06 15 0 15 C0 10.05 0 5.1 0 0 Z " fill="#EEEEEF" transform="translate(336,105)"/>
<path d="M0 0 C2.97 0 5.94 0 9 0 C9 4.95 9 9.9 9 15 C6.03 15 3.06 15 0 15 C0 10.05 0 5.1 0 0 Z " fill="#FFFFFF" transform="translate(336,90)"/>
<path d="M0 0 C4.95 0 9.9 0 15 0 C15 3.96 15 7.92 15 12 C13.06126858 11.04416032 11.1240567 10.08523808 9.1875 9.125 C8.10855469 8.59132813 7.02960938 8.05765625 5.91796875 7.5078125 C3 6 3 6 0 4 C0 2.68 0 1.36 0 0 Z " fill="#EFEEEE" transform="translate(270,45)"/>
<path d="M0 0 C1.98 0 3.96 0 6 0 C6 4.95 6 9.9 6 15 C4.02 15 2.04 15 0 15 C0 10.05 0 5.1 0 0 Z " fill="#FFFFFF" transform="translate(15,255)"/>
<path d="M0 0 C1.98 0 3.96 0 6 0 C6 4.95 6 9.9 6 15 C4.02 15 2.04 15 0 15 C0 10.05 0 5.1 0 0 Z " fill="#FFFFFF" transform="translate(15,225)"/>
<path d="M0 0 C1.98 0 3.96 0 6 0 C6 4.95 6 9.9 6 15 C4.02 15 2.04 15 0 15 C0 10.05 0 5.1 0 0 Z " fill="#FFFFFF" transform="translate(15,195)"/>
<path d="M0 0 C1.98 0 3.96 0 6 0 C6 4.95 6 9.9 6 15 C4.02 15 2.04 15 0 15 C0 10.05 0 5.1 0 0 Z " fill="#FFFFFF" transform="translate(15,165)"/>
<path d="M0 0 C1.98 0 3.96 0 6 0 C6 4.95 6 9.9 6 15 C4.02 15 2.04 15 0 15 C0 10.05 0 5.1 0 0 Z " fill="#FFFFFF" transform="translate(15,135)"/>
<path d="M0 0 C1.98 0 3.96 0 6 0 C6 4.95 6 9.9 6 15 C4.02 15 2.04 15 0 15 C0 10.05 0 5.1 0 0 Z " fill="#FFFFFF" transform="translate(15,105)"/>
<path d="M0 0 C4.95 0 9.9 0 15 0 C15 2.97 15 5.94 15 9 C13.05886066 8.07005883 11.1222049 7.1307547 9.1875 6.1875 C8.10855469 5.66542969 7.02960938 5.14335937 5.91796875 4.60546875 C3 3 3 3 0 0 Z " fill="#EEEFF0" transform="translate(210,15)"/>
<path d="M0 0 C0 2.97 0 5.94 0 9 C-4.95 9 -9.9 9 -15 9 C-11.62428881 6.29943105 -8.93912917 4.25549975 -5.25 2.25 C-4.08210937 1.60804688 -4.08210937 1.60804688 -2.890625 0.953125 C-1 0 -1 0 0 0 Z " fill="#EEEFF1" transform="translate(195,351)"/>
<path d="M0 0 C4.62 0 9.24 0 14 0 C11.30928396 2.01803703 8.70356891 3.89679003 5.875 5.6875 C5.19179688 6.12449219 4.50859375 6.56148438 3.8046875 7.01171875 C2 8 2 8 0 8 C0 5.36 0 2.72 0 0 Z " fill="#EEEFF1" transform="translate(30,75)"/>
<path d="M0 0 C1.98270912 0.95098266 3.96108379 1.91100703 5.9375 2.875 C7.03964844 3.40867187 8.14179687 3.94234375 9.27734375 4.4921875 C12 6 12 6 13 8 C8.71 8 4.42 8 0 8 C0 5.36 0 2.72 0 0 Z " fill="#EEEFF1" transform="translate(60,292)"/>
<path d="M0 0 C4.49797113 1.68673918 8.72886302 3.81673892 13 6 C13 6.33 13 6.66 13 7 C8.71 7 4.42 7 0 7 C0 4.69 0 2.38 0 0 Z " fill="#FDFDFD" transform="translate(165,353)"/>
<path d="M0 0 C0.33 0.66 0.66 1.32 1 2 C0.00097656 2.55429687 -0.99804688 3.10859375 -2.02734375 3.6796875 C-3.33088911 4.41117338 -4.63426584 5.14295982 -5.9375 5.875 C-6.59685547 6.23980469 -7.25621094 6.60460937 -7.93554688 6.98046875 C-11.57936369 8.85417898 -11.57936369 8.85417898 -14 12 C-15.68480789 12.75981532 -17.37406272 13.51220171 -19.08984375 14.19921875 C-21.26342017 15.07419021 -21.26342017 15.07419021 -24.25 16.75 C-27 18 -27 18 -30 17 C-29.44650879 16.69819824 -28.89301758 16.39639648 -28.32275391 16.08544922 C-14.00434555 8.31562733 -14.00434555 8.31562733 0 0 Z " fill="#F1F4F8" transform="translate(329,273)"/>
<path d="M0 0 C3.96 0 7.92 0 12 0 C8.74190431 3.25809569 6.04733782 4.86594915 2 7 C1.34 7 0.68 7 0 7 C0 4.69 0 2.38 0 0 Z " fill="#FEFEFE" transform="translate(135,15)"/>
<path d="M0 0 C2.64 0 5.28 0 8 0 C8 1.32 8 2.64 8 4 C8.71542969 4.26554687 9.43085938 4.53109375 10.16796875 4.8046875 C13.06904319 6.02914099 15.63015864 7.47983063 18.3125 9.125 C19.19550781 9.66382813 20.07851563 10.20265625 20.98828125 10.7578125 C21.98408203 11.37269531 21.98408203 11.37269531 23 12 C22.67 12.66 22.34 13.32 22 14 C18.89133529 12.23697689 15.78890838 10.46325223 12.6875 8.6875 C11.36588867 7.93823242 11.36588867 7.93823242 10.01757812 7.17382812 C9.17001953 6.68720703 8.32246094 6.20058594 7.44921875 5.69921875 C6.66893311 5.25408936 5.88864746 4.80895996 5.0847168 4.3503418 C3.10177344 3.06592211 1.59239836 1.73493472 0 0 Z " fill="#EEF2F8" transform="translate(262,45)"/>
<path d="M0 0 C3.96 0 7.92 0 12 0 C12 2.31 12 4.62 12 7 C7.69235185 5.43358249 3.93828536 3.31663844 0 1 C0 0.67 0 0.34 0 0 Z " fill="#EEEFF1" transform="translate(288,60)"/>
<path d="M0 0 C0 2.31 0 4.62 0 7 C-3.96 7 -7.92 7 -12 7 C-3.79310345 0 -3.79310345 0 0 0 Z " fill="#EEEFF2" transform="translate(270,308)"/>
<path d="M0 0 C3.63 0 7.26 0 11 0 C11 1.98 11 3.96 11 6 C6.80639551 5.32902328 3.59665648 3.1441606 0 1 C0 0.67 0 0.34 0 0 Z " fill="#FDFDFD" transform="translate(184,0)"/>
<path d="M0 0 C2.97 0 5.94 0 9 0 C6.22719294 3.08089673 3.93673644 4.68775452 0 6 C0 4.02 0 2.04 0 0 Z " fill="#FEFDFD" transform="translate(60,60)"/>
<path d="M0 0 C3.48305042 0.64500934 6.06202164 2.04134776 9 4 C9 4.33 9 4.66 9 5 C6.03 5 3.06 5 0 5 C0 3.35 0 1.7 0 0 Z " fill="#FDFDFD" transform="translate(90,310)"/>
<path d="M0 0 C5 2 10 4 15 6 C15 6.33 15 6.66 15 7 C8.89357521 7.78287497 4.99540421 5.10825151 0 2 C0 1.34 0 0.68 0 0 Z " fill="#E0A540" transform="translate(228,163)"/>
<path d="M0 0 C2.97 0 5.94 0 9 0 C6.14693203 2.32472205 3.45925163 3.7508258 0 5 C0 3.35 0 1.7 0 0 Z " fill="#EEEFF2" transform="translate(165,0)"/>
<path d="M0 0 C0 0.66 0 1.32 0 2 C-0.9075 1.79375 -1.815 1.5875 -2.75 1.375 C-6.11027897 0.9872755 -7.24075815 1.19588033 -10 3 C-10.33 1.68 -10.66 0.36 -11 -1 C-6.70700357 -2.26264601 -4.12168689 -1.62950412 0 0 Z " fill="#E7A840" transform="translate(287,117)"/>
<path d="M0 0 C2.64 0 5.28 0 8 0 C8 1.65 8 3.3 8 5 C5.36 3.68 2.72 2.36 0 1 C0 0.67 0 0.34 0 0 Z " fill="#FDFDFD" transform="translate(262,45)"/>
<path d="M0 0 C0 0.66 0 1.32 0 2 C-3.63423209 4.32590854 -6.77088331 4.16265833 -11 4 C-10.67 3.01 -10.34 2.02 -10 1 C-10 1.66 -10 2.32 -10 3 C-9.44570312 2.7834375 -8.89140625 2.566875 -8.3203125 2.34375 C-7.59585938 2.0653125 -6.87140625 1.786875 -6.125 1.5 C-5.04605469 1.08234375 -5.04605469 1.08234375 -3.9453125 0.65625 C-2 0 -2 0 0 0 Z " fill="#CC963F" transform="translate(82,217)"/>
<path d="M0 0 C0 1.32 0 2.64 0 4 C-2.31 4 -4.62 4 -7 4 C-3.375 0 -3.375 0 0 0 Z " fill="#FEFEFE" transform="translate(240,326)"/>
<path d="M0 0 C0 0.33 0 0.66 0 1 C-1.0725 1.268125 -2.145 1.53625 -3.25 1.8125 C-6.56508928 2.86227827 -8.43877646 3.74612328 -11 6 C-11.66 5.67 -12.32 5.34 -13 5 C-8.7797731 -0.27528362 -6.38501231 -0.54110274 0 0 Z " fill="#D89F3F" transform="translate(141,104)"/>
</svg>
