<?xml version="1.0" encoding="UTF-8"?>
<svg version="1.1" xmlns="http://www.w3.org/2000/svg" width="1016" height="1024">
<path d="M0 0 C5.50127176 0.57572842 10.64724898 1.57663406 15.96044922 3.13525391 C16.71934574 3.35257203 17.47824226 3.56989016 18.26013565 3.79379368 C20.77661733 4.51584161 23.2905917 5.24625474 25.8046875 5.9765625 C27.60667421 6.49507519 29.40883318 7.01298957 31.21115112 7.53034973 C35.07410754 8.64024549 38.93605346 9.75356535 42.79724121 10.86959839 C52.11522099 13.562363 61.43866491 16.23611083 70.76184082 18.9108181 C72.89231224 19.52209226 75.02272359 20.13357584 77.15307617 20.74526405 C97.17107909 26.49274824 117.21553038 32.1419004 137.27415848 37.74571609 C144.85666652 39.86437231 152.43830477 41.98613794 160.01953125 44.109375 C160.86607458 44.34645739 161.71261791 44.58353977 162.58481407 44.82780647 C184.21906892 50.88885727 205.82841635 57.03743318 227.4375 63.1875 C235.48171665 65.47675295 243.52596486 67.76589491 251.5703125 70.0546875 C252.57515497 70.34059879 253.57999744 70.62651009 254.61528969 70.92108536 C278.00737037 77.57627541 301.40918327 84.19694919 324.8125 90.8125 C326.85847078 91.39088548 328.90444042 91.96927497 330.95040894 92.54766846 C339.22452469 94.88672417 347.49867029 97.22567425 355.77287292 99.56442261 C379.37478072 106.23579755 402.97479677 112.91385634 426.57450104 119.59302139 C429.99731374 120.56173974 433.42013488 121.53042829 436.84295654 122.49911499 C464.15369005 130.22840552 491.46265312 137.96388128 518.76806641 145.71194458 C546.09435541 153.46545377 573.42780693 161.1936069 600.76118088 168.92209625 C627.34357169 176.43827156 653.92475751 183.95858733 680.5 191.5 C707.34993585 199.11913735 734.20556456 206.7180748 761.0625 214.3125 C763.1601565 214.90566927 765.25781275 215.49883943 767.35546875 216.0920105 C768.39816988 216.38686309 769.44087101 216.68171568 770.51516914 216.9855032 C775.85516685 218.49553671 781.19516288 220.00557616 786.53515625 221.515625 C787.60809055 221.81902864 788.68102486 222.12243229 789.78647232 222.43502998 C844.96586892 238.03877223 900.14370643 253.64811563 955.31225586 269.29017258 C957.31703775 269.85856659 959.32184559 270.42686896 961.32666016 270.99514771 C968.38235118 272.99534058 975.43739504 274.99778786 982.49157715 277.0032959 C984.96180268 277.70505963 987.43223135 278.40607109 989.9029541 279.1060791 C993.8239404 280.2169917 997.7440166 281.33108603 1001.6640625 282.4453125 C1002.87291107 282.78730682 1004.08175964 283.12930115 1005.32723999 283.48165894 C1006.4356424 283.79724762 1007.5440448 284.1128363 1008.68603516 284.43798828 C1009.66641754 284.71619415 1010.64679993 284.99440002 1011.65689087 285.28103638 C1014 286 1014 286 1016 287 C1014.40584497 290.91209308 1011.86106668 293.37218086 1008.875 296.3125 C1007.96492187 297.21613281 1007.05484375 298.11976563 1006.1171875 299.05078125 C1003.95837815 301.13343842 1001.72863265 303.09825119 999.4453125 305.04296875 C993.31457275 310.3628218 987.70206455 316.23024559 982 322 C969.33776642 334.81254839 969.33776642 334.81254839 963.10546875 340.1171875 C958.01559498 344.66880003 953.29726237 349.64328498 948.5 354.5 C936.39801899 366.7519613 936.39801899 366.7519613 932.03125 370.46875 C926.00641187 375.60334149 920.55997688 381.37402 915 387 C902.36670821 399.78326304 902.36670821 399.78326304 896.13671875 405.0859375 C890.86304929 409.81006553 885.97514105 414.96579848 881 420 C868.36670821 432.78326304 868.36670821 432.78326304 862.13671875 438.0859375 C856.86304929 442.81006553 851.97514105 447.96579848 847 453 C834.36670821 465.78326304 834.36670821 465.78326304 828.13671875 471.0859375 C822.86304929 475.81006553 817.97514105 480.96579848 813 486 C800.36670821 498.78326304 800.36670821 498.78326304 794.13671875 504.0859375 C788.86304929 508.81006553 783.97514105 513.96579848 779 519 C766.36670821 531.78326304 766.36670821 531.78326304 760.13671875 537.0859375 C754.86304929 541.81006553 749.97514105 546.96579848 745 552 C732.33776642 564.81254839 732.33776642 564.81254839 726.10546875 570.1171875 C721.01559498 574.66880003 716.29726237 579.64328498 711.5 584.5 C699.39801899 596.7519613 699.39801899 596.7519613 695.03125 600.46875 C689.00641187 605.60334149 683.55997688 611.37402 678 617 C665.36670821 629.78326304 665.36670821 629.78326304 659.13671875 635.0859375 C653.86304929 639.81006553 648.97514105 644.96579848 644 650 C631.36670821 662.78326304 631.36670821 662.78326304 625.13671875 668.0859375 C619.86304929 672.81006553 614.97514105 677.96579848 610 683 C597.36670821 695.78326304 597.36670821 695.78326304 591.13671875 701.0859375 C585.86304929 705.81006553 580.97514105 710.96579848 576 716 C563.36670821 728.78326304 563.36670821 728.78326304 557.13671875 734.0859375 C551.86304929 738.81006553 546.97514105 743.96579848 542 749 C529.36670821 761.78326304 529.36670821 761.78326304 523.13671875 767.0859375 C517.86304929 771.81006553 512.97514105 776.96579848 508 782 C495.36670821 794.78326304 495.36670821 794.78326304 489.13671875 800.0859375 C483.86304929 804.81006553 478.97514105 809.96579848 474 815 C461.36554995 827.78443504 461.36554995 827.78443504 457.0234375 831.47265625 C453.35850366 834.59025482 449.98464837 837.9546755 446.6015625 841.37109375 C445.75232208 842.22859726 445.75232208 842.22859726 444.88592529 843.10342407 C442.52664448 845.49048996 440.17115506 847.88122548 437.81982422 850.27612305 C436.08470636 852.04125453 434.34357159 853.80026685 432.6015625 855.55859375 C431.80161362 856.37873207 431.80161362 856.37873207 430.98550415 857.21543884 C429.69447777 858.51528518 428.35155967 859.76321543 427 861 C426.34 861 425.68 861 425 861 C425 861.66 425 862.32 425 863 C423.65429687 864.32226563 423.65429687 864.32226563 421.71875 865.90625 C418.14391798 868.94611596 414.77161856 872.13841825 411.46875 875.46875 C410.9843042 875.95649902 410.4998584 876.44424805 410.00073242 876.94677734 C408.49849478 878.46256197 406.99880899 879.98082544 405.5 881.5 C394.45950841 892.69050797 394.45950841 892.69050797 390.1171875 896.37890625 C386.42466775 899.53186675 383.0155621 902.92339258 379.6015625 906.37109375 C379.03552307 906.94264191 378.46948364 907.51419006 377.8862915 908.10305786 C375.5268864 910.49024364 373.17127602 912.88110229 370.81982422 915.27612305 C369.08470636 917.04125453 367.34357159 918.80026685 365.6015625 920.55859375 C364.80161362 921.37873207 364.80161362 921.37873207 363.98550415 922.21543884 C362.69447777 923.51528518 361.35155967 924.76321543 360 926 C359.34 926 358.68 926 358 926 C357.67 926.99 357.34 927.98 357 929 C355.55664062 930.41992188 355.55664062 930.41992188 353.65625 931.96875 C350.10028652 934.98593114 346.75113232 938.15911645 343.46875 941.46875 C342.98422363 941.95657959 342.49969727 942.44440918 342.00048828 942.94702148 C340.49833277 944.46272546 338.99872816 945.98090737 337.5 947.5 C326.45950841 958.69050797 326.45950841 958.69050797 322.1171875 962.37890625 C318.42466775 965.53186675 315.0155621 968.92339258 311.6015625 972.37109375 C311.03552307 972.94264191 310.46948364 973.51419006 309.8862915 974.10305786 C307.5268864 976.49024364 305.17127602 978.88110229 302.81982422 981.27612305 C301.08470636 983.04125453 299.34357159 984.80026685 297.6015625 986.55859375 C296.80161362 987.37873207 296.80161362 987.37873207 295.98550415 988.21543884 C294.69447777 989.51528518 293.35155967 990.76321543 292 992 C291.34 992 290.68 992 290 992 C289.67 992.99 289.34 993.98 289 995 C287.55664062 996.42211914 287.55664062 996.42211914 285.65625 997.97265625 C279.95575019 1002.80917406 274.75846936 1008.13358072 269.5 1013.4375 C268.47679861 1014.4657298 267.45336267 1015.49372626 266.4296875 1016.52148438 C263.95042001 1019.01164338 261.47432462 1021.50492833 259 1024 C258.01 1023.67 257.02 1023.34 256 1023 C255.00108337 1020.32040405 255.00108337 1020.32040405 254.10913086 1016.66943359 C253.94253464 1016.00304871 253.77593842 1015.33666382 253.60429382 1014.65008545 C253.04559363 1012.40236396 252.50549945 1010.15056188 251.96484375 1007.8984375 C251.56504237 1006.27604184 251.16401684 1004.65394743 250.76185608 1003.03213501 C249.68726688 998.6857558 248.62785341 994.33581714 247.57196045 989.98486328 C245.95506316 983.33373023 244.31405706 976.68847096 242.67775345 970.04209137 C242.23705512 968.2508299 241.79688316 966.45943887 241.35718918 964.6679306 C237.11957826 947.40227898 232.75991114 930.16845068 228.37888646 912.93879366 C220.97768165 883.82990133 213.65354364 854.70230243 206.375 825.5625 C205.86746935 823.53085926 205.35993722 821.49921889 204.85240364 819.46757889 C200.97250868 803.93552988 197.09553368 788.40275225 193.21878052 772.86991882 C189.35571314 757.39206457 185.49152332 741.91449131 181.625 726.4375 C181.37342699 725.43041866 181.12185398 724.42333733 180.86265755 723.38573837 C174.01810859 695.98760255 167.13051471 668.60095006 160.1738224 641.2310791 C154.1791779 617.64594007 148.2404704 594.04731579 142.34375 570.4375 C142.14129292 569.62696293 141.93883583 568.81642586 141.73024368 567.98132706 C138.44542162 554.83016284 135.16392749 541.67816867 131.88282013 528.52607727 C128.80886541 516.20449296 125.73373095 503.8832041 122.65625 491.5625 C122.45360409 490.75112705 122.25095818 489.9397541 122.04217148 489.1037941 C116.12945307 465.43158102 110.16600587 441.77275242 104.15625 418.125 C97.46250148 391.78532567 90.83604406 365.42931086 84.25 339.0625 C84.02045687 338.14361874 83.79091373 337.22473747 83.55441475 336.27801132 C79.79784426 321.23977011 76.04458439 306.20070299 72.29168701 291.1615448 C68.77933395 277.08647781 65.26589424 263.01168288 61.75 248.9375 C61.40591827 247.56004435 61.40591827 247.56004435 61.05488539 246.15476131 C54.11713505 218.38300258 47.12119445 190.62656039 40.07332528 162.88256001 C32.68296334 133.78910334 25.36444342 104.677872 18.07974029 75.55778933 C16.23668776 68.1904075 14.3905098 60.82381724 12.54197824 53.45780826 C11.07418481 47.6081645 9.60906586 41.75785508 8.14602149 35.90702176 C7.28614567 32.46855777 6.42516622 29.03037991 5.56129074 25.5929184 C4.61819835 21.83993004 3.68064659 18.08557047 2.74365234 14.33105469 C2.46335678 13.21908722 2.18306122 12.10711975 1.89427185 10.9614563 C1.64261765 9.94927032 1.39096344 8.93708435 1.13168335 7.89422607 C0.91170874 7.01579418 0.69173412 6.13736229 0.46509361 5.23231125 C-0 3 -0 3 0 0 Z " fill="#040404" transform="translate(0,0)"/>
<path d="M0 0 C9.43066476 36.61920371 18.55889801 73.31006814 27.61671829 110.02295685 C28.85232183 115.03098633 30.08817659 120.03895376 31.32421875 125.046875 C31.56646683 126.0284407 31.8087149 127.01000641 32.05830383 128.02131653 C35.31459732 141.21257716 38.59028877 154.39879282 41.89453125 167.578125 C42.08200424 168.32614946 42.26947723 169.07417393 42.46263123 169.8448658 C44.03055618 176.10031011 45.59920626 182.35557017 47.17572021 188.6088562 C50.64370262 202.36714157 54.03796591 216.12293288 57 230 C48.50456357 229.02402588 48.50456357 229.02402588 44.50390625 227.8359375 C43.71129395 227.60463135 42.91868164 227.3733252 42.10205078 227.13500977 C41.26399902 226.88420654 40.42594727 226.63340332 39.5625 226.375 C37.69686632 225.82856685 35.83096935 225.28303205 33.96484375 224.73828125 C32.99144043 224.45291504 32.01803711 224.16754883 31.01513672 223.87353516 C26.94138587 222.69330192 22.85448364 221.56290375 18.7668457 220.43188477 C9.594129 217.89368878 0.46615535 215.25409448 -8.625 212.4375 C-17.15758593 209.79618315 -25.73529095 207.46588455 -34.39086914 205.26489258 C-41.00989677 203.5646484 -47.53908914 201.6595743 -54.0625 199.625 C-62.98298059 196.84507184 -71.96207845 194.3680802 -81 192 C-90.8202633 189.42632024 -100.54874284 186.6716481 -110.23828125 183.64453125 C-118.10332238 181.21351854 -126.03770512 179.08677757 -134 177 C-146.77086991 173.65101277 -159.40909317 169.97013963 -172 166 C-168.65873023 162.04060236 -165.29797153 158.15931736 -161.625 154.5 C-160.93664062 153.8090625 -160.24828125 153.118125 -159.5390625 152.40625 C-157.57194297 150.54202595 -155.58419656 148.78619112 -153.5234375 147.03125 C-147.36912161 141.68266835 -141.72787018 135.79586638 -136 130 C-123.36670821 117.21673696 -123.36670821 117.21673696 -117.13671875 111.9140625 C-111.86304929 107.18993447 -106.97514105 102.03420152 -102 97 C-89.36670821 84.21673696 -89.36670821 84.21673696 -83.13671875 78.9140625 C-77.86304929 74.18993447 -72.97514105 69.03420152 -68 64 C-55.36670821 51.21673696 -55.36670821 51.21673696 -49.13671875 45.9140625 C-43.86304929 41.18993447 -38.97514105 36.03420152 -34 31 C-20.96495811 17.81021765 -20.96495811 17.81021765 -14.69433594 12.47607422 C-11.5051261 9.69769343 -8.61814682 6.62296082 -5.6953125 3.56835938 C-2.2110892 0 -2.2110892 0 0 0 Z " fill="#FDFDFD" transform="translate(318,342)"/>
<path d="M0 0 C0.66 0 1.32 0 2 0 C2.21440231 0.87457855 2.42880463 1.7491571 2.64970398 2.65023804 C4.69094848 10.97464558 6.73487483 19.29838933 8.78166485 27.62143517 C9.83333231 31.89831538 10.88403418 36.17542756 11.93237305 40.453125 C12.94795283 44.59698549 13.96627285 48.7401645 14.98633766 52.88292313 C15.37111868 54.44756701 15.75498333 56.01243661 16.1378231 57.57755661 C18.10983523 65.63680917 20.15635462 73.66272476 22.40820312 81.64868164 C25.46182331 92.49167308 28.17194195 103.41773713 30.89453125 114.34765625 C31.45097356 116.57462308 32.00759268 118.80154574 32.56437683 121.02842712 C33.72642532 125.67817495 34.88691008 130.3283091 36.04614258 134.97875977 C37.50600061 140.83503449 38.96892157 146.69053847 40.43283272 152.54580116 C43.21914829 163.69100823 45.99727151 174.83820898 48.76272774 185.98861122 C50.17485996 191.68188281 51.59300218 197.37358273 53.01847935 203.06352711 C53.80308961 206.20213976 54.58104888 209.34236718 55.35666466 212.48321342 C55.70564901 213.89078066 56.05741631 215.29766129 56.41217995 216.70378304 C56.88607088 218.58376305 57.34903348 220.4664881 57.8112793 222.34936523 C58.06773727 223.37924057 58.32419525 224.40911591 58.58842468 225.47019958 C59 228 59 228 58 231 C36.08514844 225.14689831 14.19363271 219.26204643 -7.47729492 212.5546875 C-15.06158967 210.23087783 -22.70444813 208.21944149 -30.39086914 206.26489258 C-37.00989677 204.5646484 -43.53908914 202.6595743 -50.0625 200.625 C-58.98298059 197.84507184 -67.96207845 195.3680802 -77 193 C-86.8202633 190.42632024 -96.54874284 187.6716481 -106.23828125 184.64453125 C-114.10332238 182.21351854 -122.03770512 180.08677757 -130 178 C-142.77086991 174.65101277 -155.40909317 170.97013963 -168 167 C-168 164 -168 164 -166.87695312 162.50946045 C-166.35037109 161.98652405 -165.82378906 161.46358765 -165.28125 160.92480469 C-164.38901733 160.02807037 -164.38901733 160.02807037 -163.47875977 159.11322021 C-162.49927368 158.15225433 -162.49927368 158.15225433 -161.5 157.171875 C-160.830896 156.50464417 -160.16179199 155.83741333 -159.47241211 155.14996338 C-158.05003618 153.73432172 -156.62406142 152.32228838 -155.19482422 150.91357422 C-153.0297895 148.77936536 -150.87529465 146.63498543 -148.72265625 144.48828125 C-147.33655137 143.11136092 -145.94985044 141.73504032 -144.5625 140.359375 C-143.92570312 139.726828 -143.28890625 139.09428101 -142.6328125 138.44256592 C-138.8381684 134.70672006 -134.92587445 131.16371138 -130.8996582 127.67974854 C-128.08590829 125.19172607 -125.4455795 122.55157704 -122.8125 119.875 C-122.2656958 119.32440918 -121.7188916 118.77381836 -121.15551758 118.20654297 C-119.43450493 116.47349183 -117.71682168 114.73720227 -116 113 C-103.36670821 100.21673696 -103.36670821 100.21673696 -97.13671875 94.9140625 C-91.86304929 90.18993447 -86.97514105 85.03420152 -82 80 C-69.33776642 67.18745161 -69.33776642 67.18745161 -63.10546875 61.8828125 C-58.01559498 57.33119997 -53.29726237 52.35671502 -48.5 47.5 C-36.39686379 35.24686918 -36.39686379 35.24686918 -32.0546875 31.55859375 C-28.38057394 28.42918332 -24.99495501 25.05575406 -21.6015625 21.62890625 C-20.75238251 20.77146317 -20.75238251 20.77146317 -19.88604736 19.896698 C-17.52672512 17.50959215 -15.17119538 15.11881558 -12.81982422 12.72387695 C-11.08470636 10.95874547 -9.34357159 9.19973315 -7.6015625 7.44140625 C-7.06826324 6.89464737 -6.53496399 6.34788849 -5.98550415 5.78456116 C-4.69447777 4.48471482 -3.35155967 3.23678457 -2 2 C-1.34 2 -0.68 2 0 2 C0 1.34 0 0.68 0 0 Z " fill="#FDFDFD" transform="translate(502,161)"/>
<path d="M0 0 C0.2333606 0.99459229 0.2333606 0.99459229 0.47143555 2.00927734 C1.20641656 5.13207005 1.94696334 8.25352027 2.6875 11.375 C2.93177734 12.4165625 3.17605469 13.458125 3.42773438 14.53125 C4.93095191 20.84856927 6.57015994 27.10534262 8.33447266 33.35375977 C10.86238677 42.38732691 13.18472733 51.46380986 15.44921875 60.56640625 C15.86364548 62.2249748 16.27825776 63.88349699 16.69303894 65.54197693 C17.79855749 69.96519397 18.90098061 74.38917675 20.0026474 78.81335449 C20.92632389 82.52119042 21.85180964 86.22857392 22.77719498 89.93598366 C29.92056917 118.55834522 37.00608879 147.19493957 44.04956055 175.84204102 C44.56999741 177.95830065 45.09044556 180.0745575 45.61089897 182.19081306 C45.94532895 183.55101342 46.27962736 184.91124612 46.6137867 186.27151299 C48.41064585 193.58543855 50.22027328 200.89585003 52.05957031 208.19921875 C52.22510721 208.85735565 52.39064411 209.51549255 52.56119728 210.193573 C53.34602108 213.31311824 54.13336766 216.43198388 54.92501831 219.54980469 C55.19871246 220.63551758 55.47240662 221.72123047 55.75439453 222.83984375 C56.11671677 224.26864868 56.11671677 224.26864868 56.48635864 225.72631836 C57 228 57 228 57 230 C50.62216378 229.41548833 44.95768709 227.89785825 38.875 225.9375 C29.64342451 223.03977742 20.36024225 220.44871367 11 218 C2.10856636 215.67109145 -6.72616258 213.24060246 -15.5 210.5 C-25.43399273 207.40097536 -35.45277638 204.70319581 -45.51538086 202.05517578 C-57.67779413 198.84602632 -69.76677029 195.40145444 -81.85058594 191.90966797 C-86.46074166 190.57808345 -91.0737751 189.25665601 -95.6875 187.9375 C-96.93406372 187.5803894 -96.93406372 187.5803894 -98.20581055 187.21606445 C-102.81320211 185.89909579 -107.42531122 184.60084551 -112.04296875 183.3203125 C-123.38687022 180.17245462 -134.67797332 176.91382929 -145.92211914 173.42529297 C-152.92894674 171.27114406 -159.96594595 169.44761145 -167.11328125 167.82421875 C-170 167 -170 167 -172 165 C-169.00428676 161.97489042 -166.00265195 158.95572125 -163 155.9375 C-161.74123047 154.66616211 -161.74123047 154.66616211 -160.45703125 153.36914062 C-156.78275686 149.68062486 -153.12010497 146.03811295 -149.15625 142.66015625 C-143.28186477 137.61812305 -137.9365021 132.00387687 -132.5 126.5 C-120.39801899 114.2480387 -120.39801899 114.2480387 -116.03125 110.53125 C-110.00641187 105.39665851 -104.55997688 99.62598 -99 94 C-86.36670821 81.21673696 -86.36670821 81.21673696 -80.13671875 75.9140625 C-74.86304929 71.18993447 -69.97514105 66.03420152 -65 61 C-52.36670821 48.21673696 -52.36670821 48.21673696 -46.13671875 42.9140625 C-40.86304929 38.18993447 -35.97514105 33.03420152 -31 28 C-17.87811142 14.72233999 -17.87811142 14.72233999 -11.60058594 9.38232422 C-8.77013407 6.93784306 -6.2407653 4.20893091 -3.6640625 1.50390625 C-2 0 -2 0 0 0 Z " fill="#FDFDFD" transform="translate(255,91)"/>
<path d="M0 0 C0.66 0 1.32 0 2 0 C2.18934616 0.77435394 2.37869232 1.54870789 2.57377625 2.3465271 C4.37950971 9.72911331 6.18798427 17.11102055 7.99936199 24.49222374 C8.92998479 28.28482599 9.85963228 32.07766118 10.78686523 35.87109375 C11.68568803 39.54812747 12.58731472 43.22446425 13.49070168 46.90037918 C13.8308409 48.28639022 14.17005408 49.67262894 14.50821495 51.05912399 C16.56576171 59.49200837 18.77529624 67.86710323 21.12264824 76.22398853 C23.32750826 84.10454802 25.3257101 92.03194657 27.30078125 99.97265625 C27.69858387 101.56460039 28.09657428 103.15649762 28.49473572 104.74835205 C29.55223437 108.97917846 30.60663007 113.21077172 31.66011047 117.44260025 C32.31663376 120.07910058 32.9739255 122.71540817 33.63146973 125.35165405 C36.54381061 137.02833725 39.44933657 148.7067047 42.35062408 160.38613892 C42.9883315 162.95303208 43.62630271 165.51985955 44.26434326 168.08666992 C46.58019987 177.40441516 48.89129956 186.7233193 51.19467163 196.04415894 C51.89627571 198.88314577 52.59933181 201.72176683 53.30361938 204.56008911 C54.27424291 208.47264356 55.23906574 212.38660418 56.203125 216.30078125 C56.63285866 218.02932343 56.63285866 218.02932343 57.0712738 219.79278564 C57.32780228 220.83867859 57.58433075 221.88457153 57.84863281 222.9621582 C58.072547 223.868918 58.29646118 224.7756778 58.52716064 225.70991516 C59 228 59 228 59 231 C51.98454772 229.74441489 45.28747005 227.96915421 38.5 225.8125 C30.08552129 223.19508986 21.64117117 220.76453751 13.125 218.5 C12.04178467 218.21165283 10.95856934 217.92330566 9.8425293 217.6262207 C8.75625244 217.33706787 7.66997559 217.04791504 6.55078125 216.75 C-8.88140848 212.64147467 -24.22191456 208.27637332 -39.47729492 203.5546875 C-47.05646766 201.2324472 -54.69392828 199.2213086 -62.37548828 197.26928711 C-70.11954776 195.28098307 -77.74207105 192.98038822 -85.375 190.60546875 C-92.04095572 188.5495286 -98.73954903 186.71780539 -105.5 185 C-114.1255872 182.80688069 -122.62442288 180.33084998 -131.12231445 177.68896484 C-143.96075311 173.72904612 -156.95826582 170.22851055 -170 167 C-170 166.34 -170 165.68 -170 165 C-168.6015625 163.625 -168.6015625 163.625 -166.625 162 C-161.46279904 157.6103115 -156.75265835 152.82466833 -152 148 C-142.5124201 138.36866889 -142.5124201 138.36866889 -138.1875 134.6875 C-132.12096791 129.4858751 -126.6131278 123.67976188 -121 118 C-108.36670821 105.21673696 -108.36670821 105.21673696 -102.13671875 99.9140625 C-96.86304929 95.18993447 -91.97514105 90.03420152 -87 85 C-74.36670821 72.21673696 -74.36670821 72.21673696 -68.13671875 66.9140625 C-62.86304929 62.18993447 -57.97514105 57.03420152 -53 52 C-40.36643349 39.21645899 -40.36643349 39.21645899 -36.01171875 35.51171875 C-29.9239796 30.330834 -24.42754768 24.49333984 -18.8125 18.8125 C-16.5094642 16.48272543 -14.20302912 14.15639233 -11.89453125 11.83203125 C-11.37671585 11.30591751 -10.85890045 10.77980377 -10.32539368 10.23774719 C-8.03561327 7.93266629 -5.73529179 5.78872632 -3.1940918 3.76049805 C-0.91899957 2.18611659 -0.91899957 2.18611659 0 0 Z " fill="#FDFDFD" transform="translate(565,412)"/>
<path d="M0 0 C8.8255252 34.61693426 17.6187606 69.24052791 26.125 103.9375 C26.28589489 104.59374611 26.44678978 105.24999222 26.61256027 105.92612457 C26.93810507 107.25394773 27.2636453 108.581772 27.58918095 109.9095974 C28.40427048 113.23406023 29.21960093 116.5584639 30.03515625 119.8828125 C30.27653352 120.86681723 30.27653352 120.86681723 30.52278709 121.87070084 C34.48804159 138.02993471 38.52140946 154.17209141 42.5625 170.3125 C42.72708961 170.96993572 42.89167923 171.62737144 43.06125641 172.30472946 C44.16672915 176.72018293 45.27279776 181.13548701 46.37890625 185.55078125 C46.6771228 186.74197067 46.97533936 187.9331601 47.28259277 189.16044617 C48.6876631 194.77110139 50.09519226 200.38110582 51.51115131 205.98902225 C52.01080463 207.9688217 52.50947328 209.94886642 53.00779724 211.92900085 C53.63321622 214.41321676 54.26046748 216.89697228 54.88978577 219.38020325 C55.16713058 220.48345444 55.4444754 221.58670563 55.73022461 222.72338867 C55.97614853 223.69700851 56.22207245 224.67062836 56.47544861 225.67375183 C57 228 57 228 57 230 C48.11145226 229.06335733 39.89101014 226.53786349 31.39575195 223.88061523 C24.0134475 221.58278852 16.59742605 219.48431123 9.125 217.5 C-7.38792304 213.10498613 -23.86480271 208.6240678 -40.1875 203.5625 C-49.70500592 200.61231403 -59.30090471 198.01762455 -68.93835449 195.49203491 C-78.27622277 193.04161896 -87.51528542 190.37801238 -96.73046875 187.50390625 C-103.27695098 185.47893505 -109.859332 183.68863822 -116.5 182 C-125.23538692 179.77698696 -133.85492805 177.28612818 -142.46508789 174.62084961 C-152.26558463 171.58923605 -162.12614917 168.78179698 -172 166 C-167.99109382 161.11274311 -163.73336107 156.75062848 -159.0625 152.5 C-150.83028371 144.9083308 -142.9361434 137.00058354 -135.07055664 129.03320312 C-127.28330926 121.16565244 -127.28330926 121.16565244 -123.125 117.625 C-117.07522302 112.45003802 -111.59189256 106.65827455 -106 101 C-93.36670821 88.21673696 -93.36670821 88.21673696 -87.13671875 82.9140625 C-81.86304929 78.18993447 -76.97514105 73.03420152 -72 68 C-59.36670821 55.21673696 -59.36670821 55.21673696 -53.13671875 49.9140625 C-47.86304929 45.18993447 -42.97514105 40.03420152 -38 35 C-25.0807537 21.92738786 -25.0807537 21.92738786 -18.81933594 16.60107422 C-14.69410427 12.9707375 -10.93882259 8.93454841 -7.1171875 4.99023438 C-6.16585937 4.0224707 -6.16585937 4.0224707 -5.1953125 3.03515625 C-4.62828613 2.4512915 -4.06125977 1.86742676 -3.47705078 1.26586914 C-2 0 -2 0 0 0 Z " fill="#FDFDFD" transform="translate(381,593)"/>
<path d="M0 0 C0.36791992 1.47167969 0.73583984 2.94335938 1.10375977 4.41503906 C1.47420914 5.89682144 1.47420914 5.89682144 1.85214233 7.40853882 C2.42762114 9.71047498 3.00307992 12.01241616 3.57852173 14.31436157 C5.09629027 20.38577932 6.61423364 26.45715312 8.13288975 32.52834892 C9.06527746 36.25584799 9.99751567 39.98338444 10.9296875 43.7109375 C11.12460218 44.49035328 11.31951687 45.26976906 11.52033806 46.0728035 C14.5058405 58.01225913 17.48487496 69.95331828 20.46089172 81.8951416 C22.26642531 89.13991843 24.07364722 96.38427385 25.88122845 103.62854004 C27.15673039 108.74085184 28.43133369 113.85338426 29.70388794 118.96643066 C30.9188749 123.84812661 32.13617006 128.72924168 33.35505295 133.60996628 C33.80391295 135.40903287 34.25196154 137.20830215 34.69908524 139.00780106 C37.0836368 148.602699 39.56346955 158.15864872 42.23696709 167.67732239 C44.03657915 174.09077903 45.71316693 180.53066558 47.33203125 186.9921875 C47.75424202 188.67104538 47.75424202 188.67104538 48.1849823 190.38381958 C48.76833221 192.70723595 49.35047192 195.0309565 49.93139648 197.35498047 C50.82350082 200.9189484 51.72317248 204.48095578 52.62304688 208.04296875 C53.19316704 210.31759341 53.76284529 212.59232889 54.33203125 214.8671875 C54.60070511 215.9275119 54.86937897 216.9878363 55.14619446 218.08029175 C55.39032578 219.06297028 55.63445709 220.0456488 55.88598633 221.05810547 C56.10184891 221.91870575 56.31771149 222.77930603 56.54011536 223.66598511 C57 226 57 226 57 230 C50.39464473 229.39314757 44.39742876 227.8019587 38.0625 225.875 C35.9170252 225.23577457 33.77117983 224.59779182 31.625 223.9609375 C30.52800781 223.63448242 29.43101562 223.30802734 28.30078125 222.97167969 C23.06851498 221.43141195 17.81677937 219.96309112 12.5625 218.5 C11.53020264 218.2117334 10.49790527 217.9234668 9.43432617 217.62646484 C4.18320855 216.16135936 -1.06993609 214.70370921 -6.32421875 213.25 C-16.46595059 210.43655818 -26.57083978 207.550604 -36.625 204.4375 C-45.1576383 201.79634094 -53.73528246 199.46588671 -62.39086914 197.26489258 C-69.00989677 195.5646484 -75.53908914 193.6595743 -82.0625 191.625 C-90.98297215 188.84507447 -99.96202922 186.36788059 -109 184 C-118.96960033 181.38803945 -128.84928465 178.59451672 -138.68432617 175.51489258 C-146.65774524 173.04107174 -154.70928415 170.9352199 -162.81811523 168.95263672 C-164.18625366 168.61063232 -164.18625366 168.61063232 -165.58203125 168.26171875 C-166.38874268 168.06537842 -167.1954541 167.86903809 -168.02661133 167.66674805 C-170 167 -170 167 -172 165 C-170.16994917 163.1424984 -168.33607989 161.28902768 -166.5 159.4375 C-165.9946875 158.92380859 -165.489375 158.41011719 -164.96875 157.88085938 C-162.20567563 155.10051579 -159.39156588 152.45096738 -156.40625 149.91015625 C-150.28230259 144.61323475 -144.68777116 138.75529134 -139 133 C-126.33776642 120.18745161 -126.33776642 120.18745161 -120.10546875 114.8828125 C-115.01559498 110.33119997 -110.29726237 105.35671502 -105.5 100.5 C-93.39801899 88.2480387 -93.39801899 88.2480387 -89.03125 84.53125 C-83.00641187 79.39665851 -77.55997688 73.62598 -72 68 C-59.36670821 55.21673696 -59.36670821 55.21673696 -53.13671875 49.9140625 C-47.86304929 45.18993447 -42.97514105 40.03420152 -38 35 C-25.0807537 21.92738786 -25.0807537 21.92738786 -18.81933594 16.60107422 C-14.69410427 12.9707375 -10.93882259 8.93454841 -7.1171875 4.99023438 C-6.16585937 4.0224707 -6.16585937 4.0224707 -5.1953125 3.03515625 C-4.62828613 2.4512915 -4.06125977 1.86742676 -3.47705078 1.26586914 C-2 0 -2 0 0 0 Z " fill="#FDFDFD" transform="translate(753,232)"/>
<path d="M0 0 C6.96605514 1.31886639 13.83018744 2.88910542 20.6875 4.6875 C21.686604 4.94877686 22.68570801 5.21005371 23.71508789 5.47924805 C31.45116898 7.53051384 39.09988985 9.8127693 46.7434082 12.18237305 C55.08386075 14.75494923 63.47044407 17.14783876 71.875 19.5 C72.56008636 19.69178833 73.24517273 19.88357666 73.95101929 20.08117676 C78.63303893 21.39095406 83.31645246 22.69569827 88 24 C92.25036645 25.18619115 96.50027457 26.37401456 100.75 27.5625 C101.74700928 27.8409375 102.74401855 28.119375 103.77124023 28.40625 C112.68593139 30.90055314 121.58136794 33.46070755 130.47827148 36.01757812 C138.40142628 38.28431176 146.34733673 40.44866134 154.3125 42.5625 C163.61759679 45.03217587 172.82666987 47.73284582 182.02075195 50.58618164 C188.54582486 52.59770451 195.07796554 54.30018502 201.71875 55.890625 C210.91698061 58.19018265 219.95133691 61.17883427 229 64 C225.65873023 67.95939764 222.29797153 71.84068264 218.625 75.5 C217.59246094 76.53640625 217.59246094 76.53640625 216.5390625 77.59375 C214.57194297 79.45797405 212.58419656 81.21380888 210.5234375 82.96875 C204.36912161 88.31733165 198.72787018 94.20413362 193 100 C180.33776642 112.81254839 180.33776642 112.81254839 174.10546875 118.1171875 C169.01559498 122.66880003 164.29726237 127.64328498 159.5 132.5 C147.39801899 144.7519613 147.39801899 144.7519613 143.03125 148.46875 C137.00641187 153.60334149 131.55997688 159.37402 126 165 C113.36670821 177.78326304 113.36670821 177.78326304 107.13671875 183.0859375 C101.86304929 187.81006553 96.97514105 192.96579848 92 198 C78.99390701 211.1604898 78.99390701 211.1604898 72.72558594 216.49267578 C69.30265388 219.48265633 66.19730196 222.8008234 63.05078125 226.07617188 C61.7360282 227.41980193 60.37183112 228.71469976 59 230 C58.34 230 57.68 230 57 230 C56.76925781 228.98164063 56.53851563 227.96328125 56.30078125 226.9140625 C55.97156567 225.48432628 55.64212586 224.05464168 55.3125 222.625 C55.16361328 221.965 55.01472656 221.305 54.86132812 220.625 C53.81529181 216.1126865 52.63313026 211.64937409 51.37353992 207.19183254 C48.25884048 196.15836581 45.44573775 185.05773842 42.67578125 173.93359375 C42.17139852 171.9152027 41.6668312 169.89685777 41.16209412 167.8785553 C39.81971099 162.50787993 38.48041848 157.13643858 37.14189148 151.76480103 C36.30850363 148.42146763 35.47417985 145.07836921 34.63952637 141.73535156 C26.56246093 109.38442678 18.53239076 77.02205372 10.5715332 44.64233398 C10.39946445 43.94252694 10.22739569 43.2427199 10.05011272 42.52170658 C9.23339339 39.19979166 8.41714231 35.87776348 7.60160828 32.55555725 C6.2191793 26.9292507 4.82946044 21.30512073 3.41210938 15.6875 C3.17357239 14.74144897 2.9350354 13.79539795 2.68927002 12.82067871 C2.2559144 11.10665258 1.82049426 9.39314639 1.38250732 7.68029785 C0 2.21792797 0 2.21792797 0 0 Z " fill="#FEFEFE" transform="translate(266,88)"/>
<path d="M0 0 C6.88254923 1.23944602 13.46369958 2.94864412 20.125 5.0625 C29.66703306 8.02726114 39.25308009 10.80884119 48.875 13.5 C49.90086212 13.78713867 49.90086212 13.78713867 50.94744873 14.08007812 C55.63066087 15.39021406 60.31525305 16.69536425 65 18 C69.25036645 19.18619115 73.50027457 20.37401456 77.75 21.5625 C78.74700928 21.8409375 79.74401855 22.119375 80.77124023 22.40625 C89.68593139 24.90055314 98.58136794 27.46070755 107.47827148 30.01757812 C115.40142628 32.28431176 123.34733673 34.44866134 131.3125 36.5625 C140.61759679 39.03217587 149.82666987 41.73284582 159.02075195 44.58618164 C164.32034913 46.21991985 169.60778435 47.70432446 175 49 C182.46690359 50.79574043 189.77323647 53.01151664 197.10961914 55.27758789 C207.03029974 58.3376532 217.0075175 61.18478047 227 64 C227 67.88309022 225.42128402 68.92998741 222.78369141 71.58184814 C222.17444824 72.17874451 221.56520508 72.77564087 220.9375 73.390625 C220.31278809 74.01346375 219.68807617 74.63630249 219.04443359 75.27801514 C217.71621399 76.59950111 216.38439617 77.91737872 215.04931641 79.23193359 C213.02914529 81.22129914 211.01950797 83.22080284 209.01171875 85.22265625 C203.498502 90.70179831 197.98979183 96.1100245 192.06640625 101.14746094 C186.81814252 105.85254425 181.95291721 110.98828615 177 116 C164.36670821 128.78326304 164.36670821 128.78326304 158.13671875 134.0859375 C152.86304929 138.81006553 147.97514105 143.96579848 143 149 C130.36670821 161.78326304 130.36670821 161.78326304 124.13671875 167.0859375 C118.86304929 171.81006553 113.97514105 176.96579848 109 182 C96.36230528 194.78771823 96.36230528 194.78771823 90.15869141 200.06835938 C84.77618838 204.88473168 79.774422 210.12579313 74.6875 215.25 C73.49698032 216.44554708 72.30622677 217.64086133 71.11523438 218.8359375 C68.9421587 221.01712344 66.77038259 223.19958377 64.6003418 225.38378906 C63.742229 226.24713867 62.88411621 227.11048828 62 228 C61.42870361 228.61327148 60.85740723 229.22654297 60.26879883 229.85839844 C59 231 59 231 57 231 C56.79003891 230.14762756 56.58007782 229.29525513 56.36375427 228.41705322 C54.35030239 220.24347941 52.33637511 212.0700229 50.3219595 203.89668655 C49.28722771 199.69827508 48.25265768 195.4998239 47.21850586 191.30126953 C44.66359144 180.92900399 42.10466958 170.55773775 39.5406723 160.18771362 C39.02132556 158.08628925 38.50266221 155.9846974 37.98419189 153.88305664 C37.06692697 150.16602219 36.1451126 146.45012469 35.22265625 142.734375 C34.83925331 141.17846649 34.83925331 141.17846649 34.44810486 139.59112549 C32.92666758 133.48217209 31.29042911 127.4135104 29.58935547 121.3527832 C27.00965966 112.14883672 24.65542682 102.89639273 22.34765625 93.62109375 C21.92094446 91.91304775 21.4940552 90.20504608 21.06700134 88.49708557 C20.17902979 84.94365097 19.29261419 81.38983345 18.4074707 77.83569336 C17.29275805 73.35994244 16.17496518 68.88496817 15.05616188 64.41023827 C11.14204786 48.75352342 7.23419098 33.09488225 3.43359375 17.41015625 C3.07479881 15.94236977 3.07479881 15.94236977 2.70875549 14.44493103 C1.55366476 9.63903709 0.59917138 4.90731872 0 0 Z " fill="#FEFEFE" transform="translate(17,17)"/>
<path d="M0 0 C6.96606341 1.31886796 13.8301576 2.88919572 20.6875 4.6875 C21.68152832 4.94732666 22.67555664 5.20715332 23.69970703 5.47485352 C31.60619378 7.57067629 39.42445736 9.90623459 47.23779297 12.32299805 C61.67211858 16.77567424 76.24507271 20.74090476 90.84106445 24.62573242 C91.92476318 24.91424072 93.00846191 25.20274902 94.125 25.5 C95.20160889 25.78657471 96.27821777 26.07314941 97.38745117 26.3684082 C105.6582584 28.59063022 113.84147324 31.04781553 122.02001953 33.5859375 C127.31985524 35.21978398 132.60753238 36.70426392 138 38 C144.39362335 39.53787256 150.65523789 41.37072908 156.9375 43.3125 C168.16322763 46.78088327 179.45344295 49.97478044 190.77685547 53.10742188 C196.33289233 54.6460426 201.88521434 56.19790823 207.4375 57.75 C208.44925293 58.03166016 209.46100586 58.31332031 210.50341797 58.60351562 C216.6911219 60.33165957 222.85378673 62.12959651 229 64 C224.60514612 69.25739529 219.98296044 74.16979934 215.125 79 C214.45597656 79.67289062 213.78695312 80.34578125 213.09765625 81.0390625 C209.91281588 84.21776638 206.69779629 87.29886468 203.2734375 90.21875 C197.36890565 95.31319568 191.976697 100.95543009 186.5 106.5 C174.39801899 118.7519613 174.39801899 118.7519613 170.03125 122.46875 C164.00641187 127.60334149 158.55997688 133.37402 153 139 C140.36670821 151.78326304 140.36670821 151.78326304 134.13671875 157.0859375 C128.86304929 161.81006553 123.97514105 166.96579848 119 172 C106.36670821 184.78326304 106.36670821 184.78326304 100.13671875 190.0859375 C94.86304929 194.81006553 89.97514105 199.96579848 85 205 C71.56470908 218.59478279 71.56470908 218.59478279 65.57373047 223.63891602 C63.99981717 225.00015813 62.56459178 226.43613759 61.125 227.9375 C59 230 59 230 57 230 C56.85276237 229.40589577 56.70552475 228.81179153 56.55382538 228.19968414 C52.92957465 213.57591922 49.30495614 198.9522455 45.67995453 184.32866669 C43.92676307 177.25610055 42.17368833 170.18350552 40.42089844 163.11083984 C36.79363903 148.47475832 33.16500811 133.83901953 29.53225708 119.20429993 C28.02143447 113.11766728 26.51209357 107.03067395 25.00546551 100.94300175 C20.64455469 83.30706542 20.64455469 83.30706542 15.87898254 65.77732849 C12.89226054 55.20980476 10.30010927 44.53470358 7.64135742 33.88110352 C6.99860555 31.30795738 6.35425723 28.73528558 5.70678711 26.16333008 C4.76315759 22.41316526 3.82425112 18.6618494 2.88671875 14.91015625 C2.59617111 13.75717545 2.30562347 12.60419464 2.00627136 11.41627502 C1.74211929 10.35343796 1.47796722 9.29060089 1.20581055 8.19555664 C0.97218307 7.26167618 0.7385556 6.32779572 0.49784851 5.36561584 C0 3 0 3 0 0 Z " fill="#FEFEFE" transform="translate(764,229)"/>
<path d="M0 0 C17.64150149 4.36174778 35.16965196 9.05011147 52.5246582 14.44433594 C59.14060665 16.48247029 65.79127945 18.2939789 72.5 20 C80.19002392 21.95689174 87.79457021 24.09128463 95.375 26.4375 C110.76239096 31.19829768 126.27507596 35.48285795 141.83935547 39.62524414 C152.13588546 42.36654797 162.34614129 45.28109388 172.52124023 48.44311523 C180.14162316 50.79033291 187.82072279 52.82430346 195.54711914 54.79003906 C202.9679271 56.69146515 210.30183623 58.82057118 217.61987305 61.08422852 C221.39539949 62.24760595 225.09691885 63.33381145 229 64 C227.44063866 67.9073652 225.00570768 69.99497724 221.875 72.75 C213.79079359 79.99366863 206.20529595 87.73958888 198.57958984 95.45800781 C190.23799041 103.879802 190.23799041 103.879802 186.08203125 107.41796875 C180.043714 112.5744852 174.57727426 118.35651729 169 124 C156.36670821 136.78326304 156.36670821 136.78326304 150.13671875 142.0859375 C144.86304929 146.81006553 139.97514105 151.96579848 135 157 C122.33776642 169.81254839 122.33776642 169.81254839 116.10546875 175.1171875 C111.01559498 179.66880003 106.29726237 184.64328498 101.5 189.5 C89.34471706 201.8059238 89.34471706 201.8059238 83.05566406 207.16259766 C80.42981825 209.50964226 77.95143453 211.99245619 75.4765625 214.49609375 C74.76031708 215.22060226 74.76031708 215.22060226 74.02960205 215.95974731 C72.05273286 217.96434822 70.07975819 219.97269636 68.11083984 221.98510742 C66.65371557 223.47224382 65.19058243 224.95325005 63.7265625 226.43359375 C62.86627441 227.31072021 62.00598633 228.18784668 61.11962891 229.09155273 C59 231 59 231 57 231 C54.20586442 219.85478463 51.41440287 208.70890079 48.625 197.5625 C48.41208942 196.71171371 48.19917885 195.86092743 47.97981644 194.98435974 C41.21040236 167.93060489 34.49771522 140.86340798 27.83892822 113.78222656 C23.57354679 96.43612601 19.28370051 79.09655603 14.94140625 61.76953125 C14.73279402 60.93683338 14.52418179 60.10413551 14.30924797 59.24620438 C12.28708802 51.17496698 10.26287419 43.10425547 8.2312994 35.03538227 C7.49251 32.0993805 6.75557143 29.16291614 6.01901054 26.2263546 C5.67933392 24.87409059 5.33879787 23.52204209 4.9973011 22.17023659 C3.13855173 14.81188638 1.38880982 7.46262885 0 0 Z " fill="#FEFEFE" transform="translate(578,409)"/>
<path d="M0 0 C4.85363091 0.8483989 9.52528168 2.2524266 14.25 3.625 C22.03230877 5.86788878 29.82309008 8.07630192 37.625 10.25 C47.92877085 13.12482699 58.21609763 16.05511764 68.5 19 C79.63102603 22.18744725 90.76874744 25.347586 101.921875 28.45703125 C110.81259527 30.93897544 119.68667676 33.47774364 128.56030273 36.02001953 C137.22057816 38.49848708 145.89155277 40.93647075 154.56860352 43.35546875 C163.54196737 45.86117945 172.49568354 48.43351967 181.44873047 51.01074219 C187.35211887 52.7016501 193.26292452 54.35005209 199.19921875 55.921875 C200.36267822 56.22996094 201.5261377 56.53804688 202.72485352 56.85546875 C204.91519499 57.43171713 207.10699512 58.00246342 209.30053711 58.56640625 C215.75510052 60.26132273 221.86808028 62.36454319 228 65 C222.82127171 71.3234998 217.08950916 77.06283446 211.30566406 82.82470703 C209.63231271 84.49271066 207.96435883 86.16597673 206.296875 87.83984375 C197.4001299 96.74156151 197.4001299 96.74156151 193.0234375 100.46875 C187.00491982 105.6073124 181.55848721 111.37552735 176 117 C163.36670821 129.78326304 163.36670821 129.78326304 157.13671875 135.0859375 C151.86304929 139.81006553 146.97514105 144.96579848 142 150 C129.36524177 162.78474688 129.36524177 162.78474688 125.0625 166.4375 C118.66791273 171.88027239 112.90062608 178.03476853 107 184 C93.27678668 197.87346748 93.27678668 197.87346748 87.12792969 203.09033203 C84.17399796 205.74127902 81.39374412 208.55143685 78.6015625 211.37109375 C77.75220123 212.22871811 77.75220123 212.22871811 76.88568115 213.10366821 C74.5264832 215.49065417 72.17107443 217.88130761 69.81982422 220.27612305 C68.08470636 222.04125453 66.34357159 223.80026685 64.6015625 225.55859375 C64.06826324 226.10535263 63.53496399 226.65211151 62.98550415 227.21543884 C61.69447777 228.51528518 60.35155967 229.76321543 59 231 C58.34 231 57.68 231 57 231 C56.79225952 230.15651001 56.58451904 229.31302002 56.3704834 228.44396973 C54.37213325 220.3304884 52.37323138 212.21714321 50.37377167 204.10393524 C49.34687893 199.93703583 48.32016961 195.77009144 47.29394531 191.60302734 C44.72509048 181.17247886 42.15193555 170.74300313 39.57250977 160.31506348 C39.00889831 158.03598217 38.44583263 155.75676651 37.8828125 153.47753906 C36.99691088 149.89274828 36.10804875 146.30870267 35.21705627 142.72517395 C34.74330761 140.81763091 34.27191875 138.90950227 33.80065918 137.00134277 C32.15645299 130.40324612 30.41404484 123.84218406 28.57421875 117.29663086 C25.89565734 107.75435532 23.47922682 98.15420458 21.09375 88.53515625 C20.64229541 86.72303739 20.19058887 84.91098128 19.73864746 83.09898376 C18.56150347 78.37726441 17.38699575 73.65489398 16.21331787 68.93231201 C14.33675703 61.38255466 12.45694738 53.83360763 10.57551575 46.28506279 C9.92916925 43.68968749 9.2844895 41.09390272 8.64001465 38.49806213 C8.23220867 36.85941834 7.82421229 35.22082191 7.41601562 33.58227539 C7.22003532 32.79377229 7.02405502 32.00526918 6.82213593 31.19287205 C5.78074287 27.02815371 4.70464756 22.87546839 3.58276367 18.73165894 C3.23439579 17.438832 3.23439579 17.438832 2.87899017 16.11988735 C2.43429654 14.47749993 1.98430059 12.83653543 1.52805328 11.19731998 C0.49204767 7.36981736 -0.27979774 4.00714338 0 0 Z " fill="#FEFEFE" transform="translate(80,268)"/>
<path d="M0 0 C7.39869719 1.34947997 14.5846052 3.18229609 21.8125 5.25 C23.4521875 5.7140625 23.4521875 5.7140625 25.125 6.1875 C28.4179136 7.12068341 31.70921461 8.05934212 35 9 C35.92345215 9.26361328 36.8469043 9.52722656 37.79833984 9.79882812 C41.2243124 10.77713007 44.65003127 11.75629986 48.07495117 12.73828125 C54.58412881 14.60275279 61.10301749 16.43088663 67.625 18.25 C77.92868401 21.12514415 88.21609515 24.05511693 98.5 27 C109.63102603 30.18744725 120.76874744 33.347586 131.921875 36.45703125 C140.81259527 38.93897544 149.68667676 41.47774364 158.56030273 44.02001953 C166.19965234 46.20631028 173.84624126 48.36473435 181.5 50.5 C194.08261187 54.01050609 206.64259185 57.59895241 219.20019531 61.19775391 C222.46629203 62.13360966 225.73301462 63.067252 229 64 C225.12442694 68.76141834 220.95485835 73.15516592 216.625 77.5 C216.09624268 78.03326904 215.56748535 78.56653809 215.02270508 79.1159668 C212.23574401 81.89277654 209.39380533 84.54289664 206.3984375 87.09375 C200.27862355 92.39084273 194.68568385 98.24682075 189 104 C176.36670821 116.78326304 176.36670821 116.78326304 170.13671875 122.0859375 C164.86304929 126.81006553 159.97514105 131.96579848 155 137 C142.36670821 149.78326304 142.36670821 149.78326304 136.13671875 155.0859375 C130.86304929 159.81006553 125.97514105 164.96579848 121 170 C108.36670821 182.78326304 108.36670821 182.78326304 102.13671875 188.0859375 C96.86304929 192.81006553 91.97514105 197.96579848 87 203 C73.84916253 216.30695256 73.84916253 216.30695256 67.56933594 221.64892578 C65.02267174 223.84140239 62.75055003 226.27558079 60.4453125 228.71484375 C59 230 59 230 57 230 C56.72325439 228.85225098 56.44650879 227.70450195 56.16137695 226.52197266 C55.11142 222.17112109 54.05735938 217.82127156 53.00219727 213.47167969 C52.55027033 211.60638126 52.09938551 209.74082998 51.6496582 207.875 C50.99459728 205.15814398 50.3355049 202.44228961 49.67578125 199.7265625 C49.48284988 198.92264069 49.28991852 198.11871887 49.09114075 197.29043579 C47.72551531 191.69008105 46.21090517 186.14029648 44.65185547 180.59155273 C41.88172928 170.7089525 39.37387441 160.76746291 36.89453125 150.80859375 C36.41238725 148.87924242 35.93005688 146.94993765 35.44755554 145.02067566 C34.16423129 139.88644207 32.88400752 134.75144055 31.60464478 129.61621857 C30.80917104 126.42414156 30.01287901 123.23226981 29.21630859 120.04046631 C22.14409521 91.70194964 15.09388386 63.35792861 8.08782578 35.00297928 C7.50009128 32.62536926 6.91158834 30.24795057 6.32290649 27.87057495 C5.41081237 24.18629999 4.50112518 20.50143948 3.59348488 16.81606483 C3.26411655 15.48009572 2.93398404 14.14431474 2.60303307 12.8087368 C2.15699887 11.00795929 1.71414499 9.20639492 1.27148438 7.40478516 C1.02410522 6.40194489 0.77672607 5.39910461 0.52185059 4.36587524 C0 2 0 2 0 0 Z " fill="#FEFEFE" transform="translate(329,339)"/>
<path d="M0 0 C10.5256353 2.27466749 20.78456401 5.08709565 31.06469727 8.29125977 C37.83425095 10.38441488 44.63245574 12.25720917 51.5 14 C59.043122 15.92031045 66.50323987 18.00628729 73.9375 20.3125 C83.19144785 23.17989782 92.48545019 25.88237658 101.8125 28.5 C102.49431335 28.69145599 103.17612671 28.88291199 103.87860107 29.08016968 C114.14526953 31.95866776 124.43782433 34.73212347 134.74291992 37.4699707 C142.89632849 39.65579435 150.96043253 42.08480827 159.02172852 44.58642578 C165.57609356 46.60711199 172.13875396 48.31330095 178.80859375 49.9140625 C183.95302404 51.20048353 188.99990475 52.80215898 194.0625 54.375 C205.61382875 57.9621703 217.27230451 61.04717188 229 64 C227.65641368 67.07767309 226.29003846 68.83652142 223.6875 70.9375 C219.87435269 74.16559764 216.32930926 77.58251678 212.8125 81.125 C212.26142578 81.67937744 211.71035156 82.23375488 211.14257812 82.80493164 C209.4264096 84.53467745 207.71277411 86.26689335 206 88 C193.36670821 100.78326304 193.36670821 100.78326304 187.13671875 106.0859375 C181.86304929 110.81006553 176.97514105 115.96579848 172 121 C159.33776642 133.81254839 159.33776642 133.81254839 153.10546875 139.1171875 C148.01559498 143.66880003 143.29726237 148.64328498 138.5 153.5 C126.39801899 165.7519613 126.39801899 165.7519613 122.03125 169.46875 C116.00641187 174.60334149 110.55997688 180.37402 105 186 C92.36627874 198.7836976 92.36627874 198.7836976 87.9921875 202.50390625 C84.41650269 205.54558459 81.12035432 208.81850625 77.8203125 212.15234375 C77.27630798 212.70185699 76.73230347 213.25137024 76.17181396 213.8175354 C73.90814751 216.10897563 71.6482947 218.40410223 69.39257812 220.70336914 C67.7269587 222.39900186 66.05532413 224.08851301 64.3828125 225.77734375 C63.87138702 226.30222885 63.35996155 226.82711395 62.83303833 227.36790466 C61.59282171 228.61695159 60.30066105 229.81402517 59 231 C58.34 231 57.68 231 57 231 C53.70593154 217.85476776 50.41443084 204.70889352 47.125 191.5625 C46.75329115 190.07694862 46.75329115 190.07694862 46.37407303 188.56138611 C39.34580368 160.46968023 32.35616284 132.36890143 25.4375 104.25 C23.98597266 98.35148973 22.53426899 92.45302291 21.08203125 86.5546875 C20.90889027 85.85145418 20.73574928 85.14822086 20.5573616 84.42367744 C16.93997169 69.73410462 13.29141301 55.05242009 9.625 40.375 C9.36105438 39.31671997 9.09710876 38.25843994 8.82516479 37.16809082 C8.08532639 34.20286338 7.34405363 31.23800175 6.6015625 28.2734375 C6.37596146 27.37258423 6.15036041 26.47173096 5.91792297 25.5435791 C4.25449687 18.93469789 2.49871763 12.35460236 0.67724609 5.78759766 C0 3 0 3 0 0 Z " fill="#FEFEFE" transform="translate(515,158)"/>
<path d="M0 0 C7.49646 1.38692313 14.83236351 3.18892422 22.1875 5.1875 C23.32098877 5.49357178 24.45447754 5.79964355 25.62231445 6.11499023 C33.97672093 8.3935706 42.25553396 10.87433154 50.52416992 13.4440918 C57.14023772 15.48248192 63.79113306 17.29381677 70.5 19 C78.04301321 20.92073355 85.50327971 23.00609638 92.9375 25.3125 C102.21033937 28.18799894 111.52648055 30.88365414 120.875 33.5 C121.56008636 33.69178833 122.24517273 33.88357666 122.95101929 34.08117676 C127.63303893 35.39095406 132.31645246 36.69569827 137 38 C141.25036642 39.18619114 145.50029942 40.37392578 149.75 41.5625 C150.74628418 41.8409375 151.74256836 42.119375 152.76904297 42.40625 C161.69899304 44.9062328 170.6141829 47.45698986 179.52880859 50.01098633 C188.50863473 52.58102281 197.4995676 55.10958552 206.49584961 57.62133789 C214.00567871 59.71860027 221.50738675 61.84202015 229 64 C224.60514612 69.25739529 219.98296044 74.16979934 215.125 79 C214.45597656 79.67289063 213.78695312 80.34578125 213.09765625 81.0390625 C209.92310388 84.2074982 206.71980056 87.27919187 203.3046875 90.1875 C197.21052062 95.44556328 191.65398114 101.27889981 186 107 C173.36670821 119.78326304 173.36670821 119.78326304 167.13671875 125.0859375 C161.86304929 129.81006553 156.97514105 134.96579848 152 140 C139.36670821 152.78326304 139.36670821 152.78326304 133.13671875 158.0859375 C127.86304929 162.81006553 122.97514105 167.96579848 118 173 C105.36670821 185.78326304 105.36670821 185.78326304 99.13671875 191.0859375 C93.86304929 195.81006553 88.97514105 200.96579848 84 206 C75.66275333 214.43621907 67.36475428 222.68378572 58 230 C55.52200655 222.91795982 53.60615148 215.78852474 51.8203125 208.50390625 C51.52567108 207.31635239 51.23102966 206.12879852 50.92745972 204.90525818 C49.98990062 201.1251722 49.05701669 197.34395601 48.125 193.5625 C47.19976186 189.81327203 46.27337808 186.06434185 45.34396362 182.31614685 C44.76814858 179.99357682 44.19463289 177.67043479 43.62405396 175.34657288 C42.03567551 168.93525519 40.33790883 162.56392086 38.5534668 156.20507812 C36.11679984 147.51515554 33.87749628 138.78510544 31.69921875 130.02734375 C31.30141539 128.43535402 30.903425 126.84341101 30.50526428 125.25151062 C29.44778473 121.02065787 28.39340267 116.78903951 27.33988953 112.55719757 C26.68341302 109.92108857 26.02611071 107.28518685 25.36853027 104.64935303 C19.30878152 80.35895756 13.27357198 56.062429 7.27621841 31.75654984 C6.75017664 29.62571552 6.22336911 27.49507179 5.69638062 25.36447144 C4.72696318 21.44421629 3.76159925 17.52297523 2.796875 13.6015625 C2.36714134 11.8652784 2.36714134 11.8652784 1.9287262 10.09391785 C1.67219772 9.04794937 1.41566925 8.0019809 1.15136719 6.92431641 C0.927453 6.015336 0.70353882 5.10635559 0.47283936 4.16983032 C0 2 0 2 0 0 Z " fill="#FEFEFE" transform="translate(392,590)"/>
<path d="M0 0 C13.90811788 3.4975133 27.74052462 7.12150569 41.43847656 11.37329102 C55.80200314 15.82132689 70.3118689 19.75868305 84.84106445 23.62573242 C85.92476318 23.91424072 87.00846191 24.20274902 88.125 24.5 C89.20160889 24.78657471 90.27821777 25.07314941 91.38745117 25.3684082 C99.6582584 27.59063022 107.84147324 30.04781553 116.02001953 32.5859375 C122.57498029 34.60671703 129.13817138 36.31316113 135.80859375 37.9140625 C140.95302758 39.20048441 145.99988573 40.8022145 151.0625 42.375 C158.83068736 44.78652448 166.61636055 46.99811581 174.5 49 C183.30789506 51.23953729 191.99539036 53.76067893 200.67602539 56.44946289 C209.40242096 59.14795036 218.18429585 61.61172559 227 64 C227 68 227 68 224.4921875 70.6796875 C223.29466913 71.75401495 222.08811507 72.81831578 220.875 73.875 C212.88378205 81.0624667 205.31211204 88.62317709 197.76708984 96.27099609 C190.23244583 103.87375296 190.23244583 103.87375296 186.15234375 107.34765625 C180.09524885 112.53430715 174.60118692 118.33232075 169 124 C156.36670821 136.78326304 156.36670821 136.78326304 150.13671875 142.0859375 C144.86304929 146.81006553 139.97514105 151.96579848 135 157 C122.36670821 169.78326304 122.36670821 169.78326304 116.13671875 175.0859375 C110.86304929 179.81006553 105.97514105 184.96579848 101 190 C88.25444707 202.89685683 88.25444707 202.89685683 82.00683594 208.21142578 C76.99027001 212.68239439 72.37918508 217.60780283 67.68359375 222.41235352 C66.29600999 223.82994803 64.90201582 225.24125905 63.5078125 226.65234375 C62.68941895 227.48757568 61.87102539 228.32280762 61.02783203 229.18334961 C59 231 59 231 57 231 C56.70900421 229.82348877 56.41800842 228.64697754 56.11819458 227.43481445 C53.32576156 216.14514521 50.53278894 204.85560956 47.73933601 193.56619263 C46.30448419 187.7673361 44.869799 181.96843847 43.43554688 176.16943359 C39.8835319 161.80827562 36.32756931 147.44810279 32.7660675 133.08929443 C32.02015694 130.08128621 31.27485213 127.07312845 30.52966309 124.06494141 C29.39554143 119.48789245 28.25868672 114.91153055 27.11968613 110.33569336 C26.71205161 108.69658108 26.30521919 107.05726904 25.89932632 105.41772461 C23.68119196 96.46100793 21.34223409 87.55205204 18.84577465 78.66881466 C16.67254338 70.90166476 14.71825891 63.08557001 12.79296875 55.25390625 C12.41909982 53.73979051 12.04509892 52.22570735 11.67097473 50.71165466 C10.8987573 47.58383658 10.12848717 44.45554733 9.35961914 41.3269043 C8.37418232 37.3179494 7.38307661 33.31041923 6.39051342 29.30322361 C5.62200233 26.19752228 4.85672076 23.09103214 4.0924015 19.9842968 C3.727855 18.50444133 3.36223286 17.02485039 2.99550438 15.54553413 C2.48739769 13.49413228 1.98372222 11.44169219 1.48120117 9.38891602 C1.19427902 8.22409195 0.90735687 7.05926788 0.61174011 5.85914612 C0 3 0 3 0 0 Z " fill="#FEFEFE" transform="translate(206,770)"/>
<path d="M0 0 C8.07258259 1.62691204 15.88957565 3.81843943 23.75 6.25 C39.34797593 11.07033218 55.06533278 15.42690854 70.84106445 19.62573242 C71.92476318 19.91424072 73.00846191 20.20274902 74.125 20.5 C75.20160889 20.78657471 76.27821777 21.07314941 77.38745117 21.3684082 C85.6582584 23.59063022 93.84147324 26.04781553 102.02001953 28.5859375 C108.57498029 30.60671703 115.13817138 32.31316113 121.80859375 33.9140625 C126.95302758 35.20048441 131.99988573 36.8022145 137.0625 38.375 C144.83069463 40.78652673 152.61639396 42.99797456 160.5 45 C169.14801359 47.20033874 177.67672569 49.67058178 186.19921875 52.31323242 C196.5580686 55.51317467 206.99998026 58.403349 217.44921875 61.29150391 C220.63788125 62.17717567 223.81982727 63.08436038 227 64 C227 68 227 68 225.70703125 69.46484375 C225.08183594 69.95082031 224.45664062 70.43679688 223.8125 70.9375 C219.92582114 74.14674716 216.35460726 77.54743992 212.8125 81.125 C212.26158691 81.67937744 211.71067383 82.23375488 211.14306641 82.80493164 C209.42656731 84.53451305 207.71285571 86.26681079 206 88 C193.36670821 100.78326304 193.36670821 100.78326304 187.13671875 106.0859375 C181.86304929 110.81006553 176.97514105 115.96579848 172 121 C159.36670821 133.78326304 159.36670821 133.78326304 153.13671875 139.0859375 C147.86304929 143.81006553 142.97514105 148.96579848 138 154 C125.36670821 166.78326304 125.36670821 166.78326304 119.13671875 172.0859375 C113.86304929 176.81006553 108.97514105 181.96579848 104 187 C91.34129376 199.80897918 91.34129376 199.80897918 85.10058594 205.11767578 C82.30868757 207.6194815 79.6747488 210.26980791 77.0390625 212.93359375 C76.51721375 213.46095123 75.99536499 213.98830872 75.45770264 214.53164673 C73.2896499 216.72746097 71.125435 218.92697974 68.96533203 221.13061523 C67.36921101 222.75674919 65.76707677 224.37675895 64.1640625 225.99609375 C63.42973495 226.75061073 63.42973495 226.75061073 62.68057251 227.52037048 C61.49116463 228.71861993 60.24975604 229.86483363 59 231 C58.34 231 57.68 231 57 231 C56.80558319 230.20980469 56.61116638 229.41960937 56.41085815 228.60546875 C44.28956478 179.33393433 44.28956478 179.33393433 32.06622314 130.08764648 C31.48804588 127.76819061 30.91067182 125.44853436 30.33416748 123.12866211 C29.53123482 119.89895582 28.72506036 116.67007541 27.91796875 113.44140625 C27.69466385 112.54104141 27.47135895 111.64067657 27.24128723 110.71302795 C25.78812243 104.92020213 24.21795648 99.16628194 22.60571289 93.41625977 C20.04843778 84.28061244 17.69343339 75.10105802 15.390625 65.8984375 C14.97424579 64.23937408 14.55780149 62.58032699 14.14129639 60.92129517 C13.27923676 57.4848869 12.41905284 54.04801556 11.56005859 50.61083984 C10.4632266 46.22330677 9.35986958 41.83744224 8.25494766 37.45194054 C7.39725086 34.04342642 6.54385098 30.63384716 5.69164276 27.22395706 C5.28650983 25.60577052 4.87986705 23.98796116 4.47162628 22.37055588 C3.90268615 20.11451031 3.33979506 17.85703449 2.77832031 15.59912109 C2.45808899 14.32104584 2.13785767 13.04297058 1.80792236 11.72616577 C0.95835287 7.80792201 0.43930453 3.98239103 0 0 Z " fill="#FEFEFE" transform="translate(143,519)"/>
</svg>
