<?xml version="1.0" encoding="UTF-8"?>
<svg version="1.1" xmlns="http://www.w3.org/2000/svg" width="939" height="768">
<path d="M0 0 C2.90375577 2.29720895 5.84323627 4.54650326 8.78369141 6.79638672 C10.86712495 8.40042324 12.95045929 10.00458862 15.03369141 11.60888672 C17.20013792 13.27583964 19.36691637 14.94236085 21.53369141 16.60888672 C22.61703079 17.44221219 23.70036413 18.27554552 24.78369141 19.10888672 C25.58806641 19.72763672 25.58806641 19.72763672 26.40869141 20.35888672 C57.28369141 44.10888672 57.28369141 44.10888672 58.90771484 45.3581543 C59.9942792 46.19396048 61.08086786 47.02973507 62.16748047 47.86547852 C64.82657688 49.91072308 67.4851908 51.95658663 70.14306641 54.00341797 C76.26472597 58.71648672 82.39529552 63.4176327 88.53369141 68.10888672 C95.71150233 73.59451114 102.87614187 79.09685423 110.03369141 84.60888672 C112.20013792 86.27583964 114.36691637 87.94236085 116.53369141 89.60888672 C117.61703079 90.44221219 118.70036413 91.27554552 119.78369141 92.10888672 C120.31994141 92.52138672 120.85619141 92.93388672 121.40869141 93.35888672 C191.2836914 147.10888671 191.2836914 147.10888671 192.90771484 148.3581543 C193.9942792 149.19396048 195.08086786 150.02973507 196.16748047 150.86547852 C198.82657688 152.91072308 201.4851908 154.95658663 204.14306641 157.00341797 C210.26472597 161.71648672 216.39529552 166.4176327 222.53369141 171.10888672 C229.71150233 176.59451114 236.87614187 182.09685423 244.03369141 187.60888672 C245.65535286 188.85665964 247.27719926 190.10419155 248.89916992 191.3515625 C249.98844194 192.18946405 251.07747216 193.02768003 252.16625977 193.86621094 C254.83191178 195.9186791 257.50161864 197.96520895 260.17822266 200.00341797 C272.29797197 209.25388014 284.21128047 218.69870576 295.35400391 229.11669922 C297.8082949 231.3992614 300.31201127 233.60351031 302.84619141 235.79638672 C306.24622266 238.80645023 309.24884745 241.97195593 312.17431641 245.44091797 C314.28503148 247.9019408 316.50224389 250.24507162 318.72119141 252.60888672 C367.0274257 305.74574444 389.79299378 378.5909615 386.91357422 449.56982422 C384.81399766 488.61927362 373.51029814 527.21131606 355.03369141 561.60888672 C354.4777832 562.66849609 354.4777832 562.66849609 353.91064453 563.74951172 C343.47850225 583.6070338 330.25991577 601.88626025 315.06884766 618.39013672 C313.23824721 620.38587771 311.47532658 622.42119283 309.72119141 624.48388672 C302.48842435 632.77633826 294.52344811 640.61135688 286.03369141 647.60888672 C285.27910645 648.2341626 285.27910645 648.2341626 284.50927734 648.87207031 C248.47110517 678.61441723 207.04330346 700.83556116 162.03369141 713.60888672 C161.12184082 713.87008301 160.20999023 714.1312793 159.27050781 714.40039062 C73.51555018 738.516645 -22.78570762 727.61205341 -100.57421875 684.15185547 C-120.98056652 672.52832617 -140.28979155 658.86797053 -157.51318359 642.87841797 C-159.6687323 640.88419217 -161.86116994 638.95605269 -164.09130859 637.04638672 C-171.28940465 630.77565273 -177.80345627 623.88753967 -183.96630859 616.60888672 C-184.69205078 615.77228516 -185.41779297 614.93568359 -186.16552734 614.07373047 C-198.75713569 599.33282987 -209.3710228 583.43359247 -218.96630859 566.60888672 C-219.37333008 565.90473633 -219.78035156 565.20058594 -220.19970703 564.47509766 C-243.40567816 524.03485124 -253.33155513 477.88102663 -249.96630859 431.60888672 C-251.23861328 432.71683594 -251.23861328 432.71683594 -252.53662109 433.84716797 C-258.57388753 439.07761078 -264.64981736 444.21768724 -270.96630859 449.10888672 C-275.75137317 452.81507107 -280.39623239 456.64067323 -284.96630859 460.60888672 C-289.53638976 464.57710451 -294.18132586 468.40259565 -298.96630859 472.10888672 C-304.45688491 476.36231271 -309.75309293 480.79900028 -315.00415039 485.34375 C-318.97851602 488.77871752 -323.02445519 492.09719484 -327.14599609 495.35498047 C-330.93094773 498.37979639 -334.66666109 501.46282289 -338.40380859 504.54638672 C-339.14300537 505.15619385 -339.88220215 505.76600098 -340.64379883 506.39428711 C-342.09133953 507.58850417 -343.53885016 508.78275768 -344.98632812 509.97705078 C-349.30226038 513.53410272 -353.63502244 517.07055911 -357.96630859 520.60888672 C-359.79975895 522.10874367 -361.63309031 523.60874612 -363.46630859 525.10888672 C-366.14530779 527.30113817 -368.82455067 529.4930814 -371.50537109 531.68310547 C-377.16971649 536.3121249 -382.82071413 540.95702578 -388.46630859 545.60888672 C-394.11550898 550.26371887 -399.76911186 554.91281104 -405.43896484 559.54248047 C-407.15790695 560.94792154 -408.87395054 562.35691354 -410.58740234 563.76904297 C-413.37147013 566.06014084 -416.16683796 568.33663735 -418.96630859 570.60888672 C-419.5119043 571.05554688 -420.0575 571.50220703 -420.61962891 571.96240234 C-440.41395747 588.12423131 -461.04612341 597.47573153 -486.96630859 595.60888672 C-499.89224673 593.92042718 -512.51158098 588.64296257 -520.80224609 578.32373047 C-529.41410431 566.56872569 -533.30843703 554.2346453 -531.96630859 539.60888672 C-529.3715417 523.81036929 -522.86091586 509.43731746 -511.96630859 497.60888672 C-510.93570312 496.47580078 -510.93570312 496.47580078 -509.88427734 495.31982422 C-504.64304973 489.82361796 -498.85968019 485.36276474 -492.72949219 480.90576172 C-489.37566738 478.43892187 -486.0813881 475.89366908 -482.77880859 473.35888672 C-481.31662894 472.2390168 -479.85438872 471.11922596 -478.39208984 469.99951172 C-477.2930835 469.15743164 -477.2930835 469.15743164 -476.171875 468.29833984 C-472.60511427 465.5662185 -469.035605 462.837694 -465.46630859 460.10888672 C-464.04962806 459.02557152 -462.63296141 457.94223817 -461.21630859 456.85888672 C-265.71630861 307.35888673 -265.71630861 307.35888673 -263.59033203 305.7331543 C-262.17690208 304.65228655 -260.76349056 303.57139471 -259.35009766 302.49047852 C-255.75906158 299.74422167 -252.16768379 296.99841369 -248.57568359 294.25341797 C-242.19949023 289.38018447 -235.82524045 284.50463152 -229.46630859 279.60888672 C-222.3756739 274.14980354 -215.26594702 268.71580872 -208.15576172 263.28222656 C-205.33598711 261.12714905 -202.51679989 258.97130408 -199.69769287 256.81535339 C-197.63719649 255.23957443 -195.57666449 253.66384205 -193.51611328 252.08813477 C-192.77774231 251.52350021 -192.03937134 250.95886566 -191.27862549 250.37712097 C-190.51556091 249.79360367 -189.75249634 249.21008636 -188.96630859 248.60888672 C-187.45003226 247.44938189 -185.93375622 246.28987668 -184.41748047 245.13037109 C-180.26708984 241.95654297 -176.11669922 238.78271484 -171.96630859 235.60888672 C-173.43260853 235.60668688 -173.43260853 235.60668688 -174.92853069 235.6044426 C-198.75038073 235.56779386 -222.57209075 235.50827388 -246.39382458 235.42498398 C-257.91400056 235.38523062 -269.43410859 235.3528193 -280.9543457 235.33789062 C-290.99925208 235.32485494 -301.04400873 235.29784129 -311.08883077 235.25427365 C-316.40399814 235.23170206 -321.71898112 235.21597346 -327.03420067 235.21700287 C-332.04524841 235.21775202 -337.05588921 235.19969909 -342.06683159 235.16771889 C-343.89805493 235.15925603 -345.72932411 235.15744517 -347.56055832 235.16308403 C-363.83572116 235.20649327 -378.30414338 232.76046246 -390.77880859 221.35888672 C-398.49925029 213.16390251 -400.29676764 204.06428304 -400.17333984 193.20263672 C-399.4419926 180.50755241 -392.55621564 169.22846285 -383.42333984 160.64013672 C-379.20975847 157.15673081 -374.70720006 154.31594283 -369.96630859 151.60888672 C-369.29986328 151.21958984 -368.63341797 150.83029297 -367.94677734 150.42919922 C-358.35353946 145.21855632 -347.30460513 142.49591173 -336.43397713 142.47022152 C-334.47754805 142.46200985 -334.47754805 142.46200985 -332.48159516 142.4536323 C-331.04112576 142.45255621 -329.60065629 142.4515715 -328.16018677 142.45066833 C-326.62470619 142.44610045 -325.08922686 142.4411001 -323.55374897 142.43570477 C-319.33732388 142.42214005 -315.12090685 142.41471012 -310.90446568 142.40827811 C-306.3564618 142.40026685 -301.80847463 142.38657157 -297.26048279 142.37356567 C-289.38174081 142.35181324 -281.50299714 142.33366423 -273.62424088 142.31796074 C-262.23287311 142.2952509 -250.84152386 142.2671096 -239.45017181 142.23764146 C-220.96857975 142.18997922 -202.48698011 142.14671132 -184.00537109 142.10620117 C-166.05191458 142.06683929 -148.09846479 142.0254114 -130.14501953 141.98120117 C-128.485121 141.97711476 -128.485121 141.97711476 -126.79168917 141.9729458 C-121.24022246 141.95926621 -115.68875585 141.94554596 -110.13728929 141.93180549 C-64.08030975 141.8178622 -18.02331566 141.71104809 28.03369141 141.60888672 C27.34453644 141.05798874 26.65538147 140.50709076 25.94534302 139.9394989 C25.04266693 139.21768936 24.13999084 138.49587982 23.20996094 137.75219727 C22.31455597 137.03629929 21.419151 136.32040131 20.49661255 135.58280945 C17.95392703 133.54495909 15.42589927 131.49061691 12.90869141 129.42138672 C8.39730209 125.72217438 3.87495803 122.03680408 -0.65380859 118.35888672 C-1.33266113 117.8075708 -2.01151367 117.25625488 -2.7109375 116.68823242 C-4.1025004 115.55822061 -5.49410225 114.42825677 -6.88574219 113.29833984 C-10.90934235 110.0311123 -14.93160557 106.76223911 -18.95410156 103.49365234 C-22.34963836 100.73462269 -25.74553259 97.97603507 -29.14208984 95.21826172 C-35.79783851 89.81359363 -42.44694487 84.40128032 -49.07958984 78.96826172 C-52.59894489 76.09181998 -56.12590522 73.22483266 -59.65380859 70.35888672 C-60.32879395 69.81006836 -61.0037793 69.26125 -61.69921875 68.69580078 C-65.19215854 65.85691087 -68.68992894 63.02433208 -72.19677734 60.20263672 C-99.67429574 38.06895098 -99.67429574 38.06895098 -101.96630859 26.60888672 C-102.94538699 15.23377586 -100.15475845 6.46833589 -92.96630859 -2.39111328 C-66.20294988 -31.38475189 -27.07534534 -21.48376501 0 0 Z " fill="#EA7600" transform="translate(541.96630859375,26.39111328125)"/>
<path d="M0 0 C0.88488098 -0.0033284 1.76976196 -0.0066568 2.68145752 -0.01008606 C4.54023729 -0.01511051 6.39902594 -0.01749579 8.2578125 -0.01733398 C11.05744766 -0.01951514 13.85668451 -0.0377047 16.65625 -0.05664062 C26.75848733 -0.08902875 36.37010346 0.329207 46.328125 2.16796875 C47.24996582 2.32370361 48.17180664 2.47943848 49.12158203 2.63989258 C77.72132201 7.65365468 105.84293242 18.96331131 129.328125 36.16796875 C130.88853516 37.30298828 130.88853516 37.30298828 132.48046875 38.4609375 C165.3401335 62.81742187 189.48436832 96.31253303 200.203125 135.98046875 C200.39430908 136.68357178 200.58549316 137.3866748 200.7824707 138.11108398 C203.90646726 150.53474892 204.77317538 163.21333499 204.765625 175.98046875 C204.76602783 176.68974518 204.76643066 177.39902161 204.7668457 178.12979126 C204.63365053 219.28882252 188.16652805 258.12313734 160.2109375 288.1328125 C158.64351062 289.82706438 157.19323293 291.54495936 155.765625 293.35546875 C152.58431531 297.0262107 149.03851848 300.04505423 145.328125 303.16796875 C144.4515625 303.93238281 143.575 304.69679688 142.671875 305.484375 C106.09137774 336.90230208 59.48456631 352.30649607 11.65258789 352.40820312 C8.92757799 352.41783809 6.20334728 352.44891366 3.47851562 352.48046875 C-12.78229837 352.57936003 -28.58159977 350.70006812 -44.296875 346.41796875 C-45.25215088 346.16192871 -46.20742676 345.90588867 -47.19165039 345.64208984 C-62.12874327 341.51163946 -76.02112809 335.44528299 -89.671875 328.16796875 C-90.26419922 327.85778809 -90.85652344 327.54760742 -91.46679688 327.22802734 C-104.73952455 320.23284116 -116.67042934 311.26645653 -127.63671875 301.05078125 C-129.33097063 299.48335437 -131.04886561 298.03307668 -132.859375 296.60546875 C-136.53952156 293.4160084 -139.56268706 289.90825816 -142.671875 286.16796875 C-143.31020264 285.42208496 -143.31020264 285.42208496 -143.96142578 284.66113281 C-162.73095009 262.68163412 -175.03403849 237.25326859 -181.671875 209.16796875 C-181.86620117 208.39404785 -182.06052734 207.62012695 -182.26074219 206.82275391 C-184.35300104 197.28078551 -184.06789292 187.51131403 -184.046875 177.79296875 C-184.04633118 176.85388672 -184.04578735 175.91480469 -184.04522705 174.94726562 C-184.00883503 161.31743608 -183.54322784 148.32515392 -179.671875 135.16796875 C-179.47352051 134.4399707 -179.27516602 133.71197266 -179.07080078 132.96191406 C-171.08350205 104.02463609 -154.91516145 79.9002535 -134.671875 58.16796875 C-133.98738281 57.42933594 -133.30289063 56.69070313 -132.59765625 55.9296875 C-99.32620527 21.30523851 -47.84431065 0.06467979 0 0 Z " fill="#FEFEFE" transform="translate(599.671875,260.83203125)"/>
<path d="M0 0 C1.14251221 0.00894287 2.28502441 0.01788574 3.4621582 0.02709961 C26.47717971 0.34161488 48.24299505 5.60028356 68.25 17.25 C68.86697754 17.60852051 69.48395508 17.96704102 70.11962891 18.33642578 C78.26870177 23.15517464 85.4537755 28.63351036 92.25 35.25 C93.49716797 36.40435547 93.49716797 36.40435547 94.76953125 37.58203125 C112.53929627 54.47832088 125.65967026 80.4851968 126.5859375 105.24609375 C127.05509594 138.27076817 116.87495175 165.10245237 94.25 189.25 C70.96734044 213.17834507 37.65814259 225.254618 4.78494263 225.73339844 C-15.28721065 225.89227244 -34.51784486 223.01737515 -52.75 214.25 C-53.4311084 213.92515625 -54.1122168 213.6003125 -54.81396484 213.265625 C-74.62306532 203.69368193 -93.22358857 189.2976242 -104.75 170.25 C-105.32878906 169.35410156 -105.90757812 168.45820313 -106.50390625 167.53515625 C-120.72206959 144.65711805 -125.77766618 115.69596374 -119.6875 89.4375 C-114.62239794 69.59735636 -105.01795076 52.93682638 -90.75 38.25 C-90.14027344 37.57839844 -89.53054688 36.90679687 -88.90234375 36.21484375 C-66.78687784 12.59684088 -31.85245097 -0.28343989 0 0 Z " fill="#265787" transform="translate(607.75,315.75)"/>
</svg>
